<svg width="48" height="48" viewBox="0 0 48 48" fill="none" xmlns="http://www.w3.org/2000/svg">
<path fill-rule="evenodd" clip-rule="evenodd" d="M0 24C0 22.3431 1.34315 21 3 21H45C46.6569 21 48 22.3431 48 24C48 25.6569 46.6569 27 45 27H3C1.34315 27 0 25.6569 0 24Z" fill="white"/>
<path fill-rule="evenodd" clip-rule="evenodd" d="M26.1213 0.87868C27.2929 2.05025 27.2929 3.94975 26.1213 5.12132L7.24264 24L26.1213 42.8787C27.2929 44.0503 27.2929 45.9497 26.1213 47.1213C24.9497 48.2929 23.0503 48.2929 21.8787 47.1213L0.87868 26.1213C-0.292893 24.9497 -0.292893 23.0503 0.87868 21.8787L21.8787 0.87868C23.0503 -0.292893 24.9497 -0.292893 26.1213 0.87868Z" fill="white"/>
</svg>
