<svg width="129" height="129" viewBox="0 0 129 129" fill="none" xmlns="http://www.w3.org/2000/svg">
<circle opacity="0.3" cx="64.5" cy="64.5" r="64.5" fill="#F06649"/>
<path fill-rule="evenodd" clip-rule="evenodd" d="M41 64C41 62.3431 42.3431 61 44 61H86C87.6569 61 89 62.3431 89 64C89 65.6569 87.6569 67 86 67H44C42.3431 67 41 65.6569 41 64Z" fill="#F06649"/>
<path fill-rule="evenodd" clip-rule="evenodd" d="M67.1213 40.8787C68.2929 42.0503 68.2929 43.9497 67.1213 45.1213L48.2426 64L67.1213 82.8787C68.2929 84.0503 68.2929 85.9497 67.1213 87.1213C65.9497 88.2929 64.0503 88.2929 62.8787 87.1213L41.8787 66.1213C40.7071 64.9497 40.7071 63.0503 41.8787 61.8787L62.8787 40.8787C64.0503 39.7071 65.9497 39.7071 67.1213 40.8787Z" fill="#F06649"/>
</svg>
