<svg width="60" height="60" viewBox="0 0 60 60" fill="none" xmlns="http://www.w3.org/2000/svg">
<path fill-rule="evenodd" clip-rule="evenodd" d="M2.5 57.2732C2.5 55.7669 3.72104 54.5459 5.22727 54.5459H54.3182C55.8244 54.5459 57.0454 55.7669 57.0454 57.2732C57.0454 58.7794 55.8244 60.0004 54.3182 60.0004H5.22727C3.72104 60.0004 2.5 58.7794 2.5 57.2732Z" fill="#999999"/>
<path fill-rule="evenodd" clip-rule="evenodd" d="M13.409 24.5459C14.9153 24.5459 16.1363 25.7669 16.1363 27.2732V46.3641C16.1363 47.8703 14.9153 49.0914 13.409 49.0914C11.9028 49.0914 10.6818 47.8703 10.6818 46.3641V27.2732C10.6818 25.7669 11.9028 24.5459 13.409 24.5459Z" fill="#999999"/>
<path fill-rule="evenodd" clip-rule="evenodd" d="M24.3182 24.5459C25.8244 24.5459 27.0455 25.7669 27.0455 27.2732V46.3641C27.0455 47.8703 25.8244 49.0914 24.3182 49.0914C22.812 49.0914 21.5909 47.8703 21.5909 46.3641V27.2732C21.5909 25.7669 22.812 24.5459 24.3182 24.5459Z" fill="#999999"/>
<path fill-rule="evenodd" clip-rule="evenodd" d="M35.2273 24.5459C36.7335 24.5459 37.9545 25.7669 37.9545 27.2732V46.3641C37.9545 47.8703 36.7335 49.0914 35.2273 49.0914C33.721 49.0914 32.5 47.8703 32.5 46.3641V27.2732C32.5 25.7669 33.721 24.5459 35.2273 24.5459Z" fill="#999999"/>
<path fill-rule="evenodd" clip-rule="evenodd" d="M46.1363 24.5459C47.6426 24.5459 48.8636 25.7669 48.8636 27.2732V46.3641C48.8636 47.8703 47.6426 49.0914 46.1363 49.0914C44.6301 49.0914 43.4091 47.8703 43.4091 46.3641V27.2732C43.4091 25.7669 44.6301 24.5459 46.1363 24.5459Z" fill="#999999"/>
<path fill-rule="evenodd" clip-rule="evenodd" d="M28.3274 0.41455C29.2118 -0.138183 30.3339 -0.138183 31.2183 0.41455L53.0365 14.0509C54.0682 14.6957 54.548 15.946 54.2126 17.1155C53.8772 18.285 52.8077 19.0909 51.591 19.0909H7.95467C6.73801 19.0909 5.6685 18.285 5.33309 17.1155C4.99767 15.946 5.4775 14.6957 6.50922 14.0509L28.3274 0.41455ZM17.4641 13.6364H42.0816L29.7729 5.9434L17.4641 13.6364Z" fill="#999999"/>
</svg>
