<svg width="48" height="48" viewBox="0 0 48 48" fill="none" xmlns="http://www.w3.org/2000/svg">
<path fill-rule="evenodd" clip-rule="evenodd" d="M14.5699 6.8106C17.0359 4.36879 20.377 3 23.8573 3C27.3375 3 30.6786 4.36879 33.1447 6.8106C35.6113 9.25298 37.0001 12.5692 37.0001 16.0306C37.0001 22.3764 38.371 26.3297 39.6445 28.6416C40.2838 29.802 40.9082 30.5667 41.3459 31.0243C41.5653 31.2535 41.7389 31.4068 41.8457 31.4949C41.8991 31.539 41.9358 31.5668 41.9531 31.5796C41.9574 31.5827 41.9605 31.5849 41.9624 31.5863C42.5815 32.0061 42.8576 32.78 42.642 33.4981C42.4243 34.223 41.757 34.7193 41.0001 34.7193H6.71442C5.95755 34.7193 5.29025 34.223 5.07257 33.4981C4.85694 32.78 5.13303 32.0061 5.75219 31.5863C5.75409 31.5849 5.75718 31.5827 5.76142 31.5796C5.77879 31.5668 5.8155 31.539 5.8689 31.4949C5.97565 31.4068 6.14929 31.2535 6.36862 31.0243C6.80638 30.5667 7.43077 29.802 8.07003 28.6416C9.34357 26.3297 10.7144 22.3764 10.7144 16.0306C10.7144 12.5692 12.1033 9.25298 14.5699 6.8106ZM10.4816 31.2908H37.2329C37.0368 30.985 36.8387 30.6538 36.6415 30.2958C35.0579 27.4211 33.5716 22.8872 33.5716 16.0306C33.5716 13.4895 32.5523 11.049 30.7323 9.24691C28.9118 7.44428 26.4391 6.42857 23.8573 6.42857C21.2755 6.42857 18.8028 7.44428 16.9822 9.24691C15.1623 11.049 14.143 13.4895 14.143 16.0306C14.143 22.8872 12.6567 27.4211 11.0731 30.2958C10.8759 30.6538 10.6778 30.985 10.4816 31.2908Z" fill="#999999"/>
<path fill-rule="evenodd" clip-rule="evenodd" d="M19.6957 39.0704C20.5126 38.5918 21.5628 38.8661 22.0414 39.683C22.2237 39.9941 22.4865 40.2545 22.8054 40.4363C23.1243 40.6182 23.4871 40.7146 23.8575 40.7146C24.2278 40.7146 24.5906 40.6182 24.9096 40.4363C25.2284 40.2545 25.4913 39.9941 25.6735 39.683C26.1521 38.8661 27.2023 38.5918 28.0192 39.0704C28.8361 39.549 29.1104 40.5992 28.6318 41.4161C28.1444 42.2481 27.4459 42.9367 26.6081 43.4146C25.7704 43.8923 24.8219 44.1432 23.8575 44.1432C22.893 44.1432 21.9445 43.8923 21.1068 43.4146C20.269 42.9367 19.5705 42.2481 19.0831 41.4161C18.6045 40.5992 18.8788 39.549 19.6957 39.0704Z" fill="#999999"/>
</svg>
