<svg width="48" height="48" viewBox="0 0 48 48" fill="none" xmlns="http://www.w3.org/2000/svg">
<path fill-rule="evenodd" clip-rule="evenodd" d="M2.39855 0C3.72323 0 4.79709 1.07387 4.79709 2.39855V11.9927H14.3913C15.716 11.9927 16.7898 13.0666 16.7898 14.3913C16.7898 15.716 15.716 16.7898 14.3913 16.7898H2.39855C1.07387 16.7898 0 15.716 0 14.3913V2.39855C0 1.07387 1.07387 0 2.39855 0Z" fill="#F06649"/>
<path fill-rule="evenodd" clip-rule="evenodd" d="M22.4735 0.0763576C27.8411 -0.260306 33.166 1.21673 37.5932 4.27026C42.0204 7.32378 45.2929 11.7766 46.8851 16.9136C48.4774 22.0506 48.297 27.5737 46.3729 32.5958C44.4488 37.6179 40.8927 41.8477 36.2757 44.6058C31.6587 47.364 26.2488 48.4904 20.9146 47.8042C15.5805 47.118 10.6317 44.659 6.86311 40.8221C3.09452 36.9852 0.724765 31.9931 0.134441 26.6475C-0.0109622 25.3308 0.938542 24.1456 2.25522 24.0002C3.57189 23.8548 4.75714 24.8043 4.90255 26.121C5.3748 30.3975 7.27061 34.3911 10.2855 37.4606C13.3004 40.5301 17.2594 42.4973 21.5267 43.0463C25.794 43.5953 30.122 42.6941 33.8156 40.4876C37.5092 38.2811 40.3541 34.8973 41.8933 30.8796C43.4326 26.8619 43.5769 22.4434 42.3031 18.3338C41.0293 14.2242 38.4113 10.662 34.8695 8.21916C31.3278 5.77634 27.0678 4.59471 22.7738 4.86404C18.4812 5.13328 14.4035 6.8369 11.1953 9.70139C11.1942 9.70235 11.1931 9.7033 11.1921 9.70426L4.00311 16.1743C3.01848 17.0605 1.50191 16.9807 0.615741 15.9961C-0.270423 15.0114 -0.190603 13.4949 0.794024 12.6087L7.99633 6.12662C12.0073 2.54384 17.1059 0.413022 22.4735 0.0763576Z" fill="#F06649"/>
<path fill-rule="evenodd" clip-rule="evenodd" d="M23.9855 9.59375C25.3101 9.59375 26.384 10.6676 26.384 11.9923V22.5026L34.6523 26.6368C35.8371 27.2292 36.3174 28.6699 35.725 29.8548C35.1326 31.0396 33.6918 31.5198 32.507 30.9274L22.9128 26.1303C22.1002 25.7241 21.5869 24.8935 21.5869 23.985V11.9923C21.5869 10.6676 22.6608 9.59375 23.9855 9.59375Z" fill="#F06649"/>
</svg>
