<svg width="60" height="60" viewBox="0 0 60 60" fill="none" xmlns="http://www.w3.org/2000/svg">
<path fill-rule="evenodd" clip-rule="evenodd" d="M10.3461 10.1539C8.56183 10.1539 7.11537 11.6004 7.11537 13.3847V52.1539C7.11537 53.9382 8.56183 55.3847 10.3461 55.3847H49.1153C50.8996 55.3847 52.3461 53.9382 52.3461 52.1539V13.3847C52.3461 11.6004 50.8996 10.1539 49.1153 10.1539H10.3461ZM2.5 13.3847C2.5 9.05141 6.01284 5.53857 10.3461 5.53857H49.1153C53.4486 5.53857 56.9614 9.05141 56.9614 13.3847V52.1539C56.9614 56.4872 53.4486 60 49.1153 60H10.3461C6.01284 60 2.5 56.4872 2.5 52.1539V13.3847Z" fill="#999999"/>
<path fill-rule="evenodd" clip-rule="evenodd" d="M40.8076 0C42.0821 0 43.1152 1.03318 43.1152 2.30768V13.3846C43.1152 14.6591 42.0821 15.6923 40.8076 15.6923C39.5331 15.6923 38.4999 14.6591 38.4999 13.3846V2.30768C38.4999 1.03318 39.5331 0 40.8076 0Z" fill="#999999"/>
<path fill-rule="evenodd" clip-rule="evenodd" d="M18.6533 0C19.9278 0 20.961 1.03318 20.961 2.30768V13.3846C20.961 14.6591 19.9278 15.6923 18.6533 15.6923C17.3788 15.6923 16.3456 14.6591 16.3456 13.3846V2.30768C16.3456 1.03318 17.3788 0 18.6533 0Z" fill="#999999"/>
<path fill-rule="evenodd" clip-rule="evenodd" d="M2.5 24.462C2.5 23.1875 3.53318 22.1543 4.80768 22.1543H54.6538C55.9283 22.1543 56.9614 23.1875 56.9614 24.462C56.9614 25.7365 55.9283 26.7697 54.6538 26.7697H4.80768C3.53318 26.7697 2.5 25.7365 2.5 24.462Z" fill="#999999"/>
</svg>
