<svg width="48" height="48" viewBox="0 0 48 48" fill="none" xmlns="http://www.w3.org/2000/svg">
<path fill-rule="evenodd" clip-rule="evenodd" d="M46.9152 12.2217C47.5813 12.5645 48 13.2508 48 14V34C48 34.7492 47.5813 35.4355 46.9152 35.7783C46.249 36.1212 45.4472 36.0629 44.8375 35.6275L30.8375 25.6275C30.3119 25.2521 30 24.6459 30 24C30 23.3541 30.3119 22.748 30.8375 22.3725L44.8375 12.3725C45.4472 11.9371 46.249 11.8789 46.9152 12.2217ZM35.4409 24L44 30.1136V17.8864L35.4409 24Z" fill="white"/>
<path fill-rule="evenodd" clip-rule="evenodd" d="M6 12C4.89543 12 4 12.8954 4 14V34C4 35.1046 4.89543 36 6 36H28C29.1046 36 30 35.1046 30 34V14C30 12.8954 29.1046 12 28 12H6ZM0 14C0 10.6863 2.68629 8 6 8H28C31.3137 8 34 10.6863 34 14V34C34 37.3137 31.3137 40 28 40H6C2.68629 40 0 37.3137 0 34V14Z" fill="white"/>
</svg>
