<svg width="32" height="32" viewBox="0 0 32 32" fill="none" xmlns="http://www.w3.org/2000/svg">
<path fill-rule="evenodd" clip-rule="evenodd" d="M4.28758 1.88235C2.95921 1.88235 1.88235 2.95921 1.88235 4.28758V27.7124C1.88235 29.0408 2.95921 30.1176 4.28758 30.1176H27.7124C29.0408 30.1176 30.1176 29.0408 30.1176 27.7124V4.28758C30.1176 2.95921 29.0408 1.88235 27.7124 1.88235H4.28758ZM0 4.28758C0 1.91962 1.91962 0 4.28758 0H27.7124C30.0804 0 32 1.91962 32 4.28758V27.7124C32 30.0804 30.0804 32 27.7124 32H4.28758C1.91962 32 0 30.0804 0 27.7124V4.28758Z" fill="#999999"/>
</svg>
