<svg width="32" height="32" viewBox="0 0 32 32" fill="none" xmlns="http://www.w3.org/2000/svg">
<path fill-rule="evenodd" clip-rule="evenodd" d="M0 4.28758C0 1.91962 1.91961 0 4.28758 0H27.7124C30.0804 0 32 1.91962 32 4.28758V27.7124C32 30.0804 30.0804 32 27.7124 32H4.28758C1.91961 32 0 30.0804 0 27.7124V4.28758Z" fill="#F06649"/>
<path fill-rule="evenodd" clip-rule="evenodd" d="M24.1948 9.68753C24.5624 10.0551 24.5624 10.651 24.1948 11.0186L13.8419 21.3715C13.4743 21.739 12.8784 21.739 12.5108 21.3715L7.80496 16.6656C7.43741 16.2981 7.43741 15.7021 7.80496 15.3346C8.17251 14.967 8.76843 14.967 9.13599 15.3346L13.1764 19.375L22.8638 9.68753C23.2313 9.31998 23.8273 9.31998 24.1948 9.68753Z" fill="white"/>
</svg>
