<svg width="32" height="32" viewBox="0 0 32 32" fill="none" xmlns="http://www.w3.org/2000/svg">
<path fill-rule="evenodd" clip-rule="evenodd" d="M0 4.28758C0 1.91962 1.91961 0 4.28758 0H27.7124C30.0804 0 32 1.91962 32 4.28758V27.7124C32 30.0804 30.0804 32 27.7124 32H4.28758C1.91961 32 0 30.0804 0 27.7124V4.28758Z" fill="#27AAE1"/>
<path fill-rule="evenodd" clip-rule="evenodd" d="M24.1948 9.68729C24.5624 10.0548 24.5624 10.6508 24.1948 11.0183L13.8419 21.3713C13.4743 21.7388 12.8784 21.7388 12.5108 21.3713L7.80496 16.6654C7.43741 16.2978 7.43741 15.7019 7.80496 15.3343C8.17251 14.9668 8.76843 14.9668 9.13599 15.3343L13.1764 19.3747L22.8638 9.68729C23.2313 9.31973 23.8273 9.31973 24.1948 9.68729Z" fill="white"/>
</svg>
