<svg width="48" height="48" viewBox="0 0 48 48" fill="none" xmlns="http://www.w3.org/2000/svg">
<path fill-rule="evenodd" clip-rule="evenodd" d="M17.0908 2.18182C17.0908 0.976833 18.0677 0 19.2726 0H27.9999C29.2049 0 30.1817 0.976833 30.1817 2.18182C30.1817 3.3868 29.2049 4.36364 27.9999 4.36364H19.2726C18.0677 4.36364 17.0908 3.3868 17.0908 2.18182Z" fill="white"/>
<path fill-rule="evenodd" clip-rule="evenodd" d="M31.7242 20.2758C32.5762 21.1278 32.5762 22.5093 31.7242 23.3613L25.1787 29.9068C24.3266 30.7588 22.9452 30.7588 22.0931 29.9068C21.2411 29.0547 21.2411 27.6733 22.0931 26.8212L28.6386 20.2758C29.4906 19.4237 30.8721 19.4237 31.7242 20.2758Z" fill="white"/>
<path fill-rule="evenodd" clip-rule="evenodd" d="M23.6364 13.0912C15.2015 13.0912 8.36364 19.929 8.36364 28.3639C8.36364 36.7988 15.2015 43.6366 23.6364 43.6366C32.0713 43.6366 38.9091 36.7988 38.9091 28.3639C38.9091 19.929 32.0713 13.0912 23.6364 13.0912ZM4 28.3639C4 17.519 12.7915 8.72754 23.6364 8.72754C34.4812 8.72754 43.2727 17.519 43.2727 28.3639C43.2727 39.2088 34.4812 48.0003 23.6364 48.0003C12.7915 48.0003 4 39.2088 4 28.3639Z" fill="white"/>
</svg>
