<svg width="48" height="48" viewBox="0 0 48 48" fill="none" xmlns="http://www.w3.org/2000/svg">
<path fill-rule="evenodd" clip-rule="evenodd" d="M46.9958 1.00421C48.3347 2.34315 48.3347 4.514 46.9958 5.85294L5.85294 46.9958C4.514 48.3347 2.34315 48.3347 1.00421 46.9958C-0.334735 45.6569 -0.334735 43.486 1.00421 42.1471L42.1471 1.00421C43.486 -0.334735 45.6569 -0.334735 46.9958 1.00421Z" fill="white"/>
<path fill-rule="evenodd" clip-rule="evenodd" d="M1.00421 1.00421C2.34315 -0.334735 4.514 -0.334735 5.85294 1.00421L46.9958 42.1471C48.3347 43.486 48.3347 45.6569 46.9958 46.9958C45.6569 48.3347 43.486 48.3347 42.1471 46.9958L1.00421 5.85294C-0.334735 4.514 -0.334735 2.34315 1.00421 1.00421Z" fill="white"/>
</svg>
