<svg width="48" height="48" viewBox="0 0 48 48" fill="none" xmlns="http://www.w3.org/2000/svg">
<path fill-rule="evenodd" clip-rule="evenodd" d="M47.9026 6.7563L47.8018 6.65546C47.4992 6.05042 46.8942 5.7479 46.1883 5.7479C45.1799 5.7479 44.0707 5.7479 43.0623 5.7479H42.2555V4.33613C42.2555 3.42857 42.2555 2.62185 42.2555 1.71429C42.2555 0.907563 41.953 0.403361 41.348 0.10084L41.2471 0H40.5412H40.3396C39.7345 0.302521 39.432 0.806723 39.432 1.61345C39.432 2.52101 39.432 3.42857 39.432 4.43698V5.64706H38.5244H34.995C34.4908 5.64706 34.0875 5.84874 33.8858 6.05042C33.6841 6.35294 33.4824 6.65546 33.4824 7.05882C33.4824 7.86555 34.0875 8.36975 34.995 8.36975H39.432V12.8067C39.432 13.0084 39.432 13.2101 39.5328 13.4118C39.7345 14.0168 40.2387 14.4202 40.8438 14.4202C40.9446 14.4202 40.9446 14.4202 41.0454 14.4202C41.7513 14.3193 42.2555 13.7143 42.2555 13.0084C42.2555 12 42.2555 11.0924 42.2555 10.084V8.47059H43.0623C44.1715 8.47059 45.1799 8.47059 46.1883 8.47059C46.995 8.47059 47.4992 8.16807 47.8018 7.56303V7.46219L47.9026 6.7563Z" fill="#F06649"/>
<path fill-rule="evenodd" clip-rule="evenodd" d="M42.5577 15.1254C42.1543 15.2262 41.7509 15.6296 41.5493 16.033C41.3476 16.4363 41.3476 16.9405 41.5493 17.4447C42.4568 19.7641 42.961 22.2851 42.961 24.8061C42.961 30.0498 40.9442 34.9909 37.2131 38.722C33.482 42.4531 28.5408 44.4699 23.2971 44.4699C18.0535 44.4699 13.1123 42.4531 9.38118 38.722C5.54925 34.9909 3.4316 30.0498 3.4316 24.8061C3.4316 19.5624 5.44841 14.6212 9.1795 10.8901C12.9106 7.15901 17.8518 5.1422 23.0955 5.1422C25.314 5.1422 27.4316 5.44473 29.4484 6.15061C29.8518 6.25145 30.356 6.25145 30.7593 6.04977C31.1627 5.84809 31.4652 5.44473 31.6669 5.04136C31.9694 4.1338 31.4652 3.22624 30.5577 2.92372C28.2383 2.11699 25.7173 1.71363 23.2971 1.71363C23.1963 1.71363 23.1963 1.71363 23.1963 1.71363C10.5913 1.61279 0.204711 11.7977 0.00303007 24.5036C-0.0978103 30.7557 2.32236 36.6044 6.65849 41.0414C10.9946 45.4783 16.8434 47.9993 23.0955 47.9993C23.1963 47.9993 23.1963 47.9993 23.2971 47.9993C35.9022 47.9993 46.2887 37.8145 46.4904 25.1086C46.4904 21.9825 45.9862 18.9573 44.7761 16.033C44.3728 15.2262 43.3644 14.8229 42.5577 15.1254Z" fill="#F06649"/>
<path fill-rule="evenodd" clip-rule="evenodd" d="M28.0363 17.7482C28.5405 17.7482 28.843 17.3448 28.843 16.9415C28.843 16.4373 28.4396 16.1348 28.0363 16.1348H17.9522C17.448 16.1348 17.1455 16.5381 17.1455 16.9415C17.1455 17.4457 17.5489 17.7482 17.9522 17.7482H20.4732C21.6833 17.7482 22.49 18.1516 22.9942 18.7566C23.3976 19.16 23.5993 19.6642 23.7001 20.2692H17.9522C17.448 20.2692 17.1455 20.6726 17.1455 21.0759C17.1455 21.5801 17.5489 21.8827 17.9522 21.8827H23.7001C23.5993 22.4877 23.2968 22.9919 22.9942 23.3953C22.49 24.0003 21.6833 24.4037 20.4732 24.4037H17.9522C17.8514 24.4037 17.8514 24.4037 17.7506 24.4037H17.6497C17.6497 24.4037 17.5489 24.4037 17.5489 24.5045C17.448 24.5045 17.448 24.6054 17.3472 24.6054C17.3472 24.6054 17.3472 24.7062 17.2463 24.7062C17.2463 24.807 17.1455 24.807 17.1455 24.9079C17.1455 25.0087 17.1455 25.0087 17.1455 25.1096V25.2104C17.1455 25.3112 17.1455 25.3112 17.1455 25.4121V25.5129C17.1455 25.5129 17.1455 25.6138 17.2463 25.6138C17.2463 25.7146 17.3472 25.7146 17.3472 25.8154L24.5069 32.5717C24.8094 32.8743 25.4144 32.8743 25.7169 32.5717C26.0195 32.2692 26.0195 31.6642 25.7169 31.3617L20.0699 26.118H20.4732C22.0867 26.118 23.3976 25.5129 24.2043 24.5045C24.9102 23.7986 25.2127 22.8911 25.4144 21.8827H28.0363C28.5405 21.8827 28.843 21.4793 28.843 21.0759C28.843 20.5717 28.4396 20.2692 28.0363 20.2692H25.4144C25.3136 19.3617 24.9102 18.4541 24.3052 17.7482H28.0363Z" fill="#F06649"/>
</svg>
