<svg width="48" height="48" viewBox="0 0 48 48" fill="none" xmlns="http://www.w3.org/2000/svg">
<path fill-rule="evenodd" clip-rule="evenodd" d="M6.54545 21.8184C7.75044 21.8184 8.72727 22.7952 8.72727 24.0002V43.6365H39.2727V24.0002C39.2727 22.7952 40.2496 21.8184 41.4545 21.8184C42.6595 21.8184 43.6364 22.7952 43.6364 24.0002V45.8184C43.6364 47.0233 42.6595 48.0002 41.4545 48.0002H6.54545C5.34047 48.0002 4.36364 47.0233 4.36364 45.8184V24.0002C4.36364 22.7952 5.34047 21.8184 6.54545 21.8184Z" fill="#999999"/>
<path fill-rule="evenodd" clip-rule="evenodd" d="M0 13.09C0 11.885 0.976833 10.9082 2.18182 10.9082H45.8182C47.0232 10.9082 48 11.885 48 13.09V23.9991C48 25.2041 47.0232 26.1809 45.8182 26.1809H2.18182C0.976833 26.1809 0 25.2041 0 23.9991V13.09ZM4.36364 15.2718V21.8173H43.6364V15.2718H4.36364Z" fill="#999999"/>
<path fill-rule="evenodd" clip-rule="evenodd" d="M24 10.9082C25.205 10.9082 26.1818 11.885 26.1818 13.09V45.8173C26.1818 47.0223 25.205 47.9991 24 47.9991C22.795 47.9991 21.8182 47.0223 21.8182 45.8173V13.09C21.8182 11.885 22.795 10.9082 24 10.9082Z" fill="#999999"/>
<path fill-rule="evenodd" clip-rule="evenodd" d="M14.1818 4.36364C13.3138 4.36364 12.4814 4.70844 11.8676 5.3222C11.2539 5.93595 10.9091 6.76838 10.9091 7.63636C10.9091 8.50434 11.2539 9.33678 11.8676 9.95053C12.4814 10.5643 13.3138 10.9091 14.1818 10.9091H21.0633C20.797 10.2122 20.4598 9.446 20.0428 8.68782C18.6705 6.19275 16.7867 4.36364 14.1818 4.36364ZM24 13.0909C26.1394 12.663 26.1393 12.6623 26.1391 12.6615L26.1379 12.6554L26.1355 12.6437L26.1282 12.6086C26.1222 12.58 26.1138 12.5412 26.103 12.4928C26.0814 12.3962 26.05 12.2611 26.008 12.093C25.9241 11.7573 25.7971 11.2875 25.6198 10.7277C25.2677 9.61596 24.7054 8.11057 23.8663 6.5849C22.2386 3.62543 19.2133 0 14.1818 0C12.1565 0 10.2142 0.804543 8.78209 2.23664C7.35 3.66874 6.54545 5.61107 6.54545 7.63636C6.54545 9.66165 7.35 11.604 8.78209 13.0361C10.2142 14.4682 12.1565 15.2727 14.1818 15.2727H24C24.6537 15.2727 25.2729 14.9797 25.6873 14.4742C26.1017 13.9687 26.2676 13.304 26.1394 12.663L24 13.0909Z" fill="#999999"/>
<path fill-rule="evenodd" clip-rule="evenodd" d="M24.1337 6.5849C25.7614 3.62543 28.7867 0 33.8182 0C35.8435 0 37.7858 0.804543 39.2179 2.23664C40.65 3.66874 41.4546 5.61107 41.4546 7.63636C41.4546 9.66165 40.65 11.604 39.2179 13.0361C37.7858 14.4682 35.8435 15.2727 33.8182 15.2727H24C23.3464 15.2727 22.7271 14.9797 22.3127 14.4742C21.8983 13.9687 21.7324 13.304 21.8606 12.663L24 13.0909C21.8606 12.663 21.8607 12.6623 21.8609 12.6615L21.8621 12.6554L21.8645 12.6437L21.8718 12.6086C21.8779 12.58 21.8862 12.5412 21.897 12.4928C21.9186 12.3962 21.95 12.2611 21.992 12.093C22.0759 11.7573 22.203 11.2875 22.3802 10.7277C22.7323 9.61596 23.2946 8.11057 24.1337 6.5849ZM26.9367 10.9091H33.8182C34.6862 10.9091 35.5186 10.5643 36.1324 9.95053C36.7461 9.33678 37.0909 8.50434 37.0909 7.63636C37.0909 6.76838 36.7461 5.93595 36.1324 5.3222C35.5186 4.70844 34.6862 4.36364 33.8182 4.36364C31.2133 4.36364 29.3295 6.19275 27.9572 8.68782C27.5402 9.446 27.203 10.2122 26.9367 10.9091ZM26.1387 13.5225C26.1386 13.5232 26.1386 13.5231 26.1387 13.5225V13.5225Z" fill="#999999"/>
</svg>
