<svg width="48" height="48" viewBox="0 0 48 48" fill="none" xmlns="http://www.w3.org/2000/svg">
<path fill-rule="evenodd" clip-rule="evenodd" d="M41.3941 14.0458C41.0017 14.1439 40.6094 14.5362 40.4132 14.9285C40.2171 15.3209 40.2171 15.8113 40.4132 16.3017C41.296 18.5576 41.7864 21.0097 41.7864 23.4618C41.7864 28.5621 39.8247 33.3682 36.1957 36.9973C32.5666 40.6263 27.7605 42.588 22.6602 42.588C17.5598 42.588 12.7538 40.6263 9.12469 36.9973C5.39753 33.3682 3.33778 28.5621 3.33778 23.4618C3.33778 18.3615 5.29944 13.5554 8.92852 9.9263C12.5576 6.29722 17.3637 4.33555 22.464 4.33555C24.6218 4.33555 26.6816 4.6298 28.6433 5.31638C29.0356 5.41447 29.526 5.41447 29.9183 5.2183C30.3107 5.02213 30.6049 4.6298 30.8011 4.23747C31.0953 3.35472 30.6049 2.47197 29.7222 2.17772C27.4663 1.39305 25.0142 1.00072 22.6602 1.00072C22.5621 1.00072 22.5621 1.00072 22.5621 1.00072C10.3017 0.902639 0.199114 10.809 0.00294722 23.1675C-0.095136 29.2487 2.25886 34.9375 6.47644 39.2532C10.694 43.5688 16.3828 46.0209 22.464 46.0209C22.5621 46.0209 22.5621 46.0209 22.6602 46.0209C34.9206 46.0209 45.0232 36.1145 45.2193 23.756C45.2193 20.7155 44.7289 17.773 43.5519 14.9285C43.1596 14.1439 42.1787 13.7515 41.3941 14.0458Z" fill="#80C181"/>
<path fill-rule="evenodd" clip-rule="evenodd" d="M47.5699 1.49086C47.0795 1.00044 46.0986 1.00044 45.6082 1.49086L37.8596 9.23943L34.9171 6.29694C34.3286 5.70844 33.4459 5.70844 32.8574 6.29694C32.2689 6.88544 32.2689 7.76819 32.8574 8.35669L36.7807 12.28C37.075 12.5743 37.4673 12.6723 37.7616 12.6723C38.0558 12.6723 38.4481 12.5743 38.7424 12.28L47.4718 3.55061C48.1584 2.96211 48.1584 2.07936 47.5699 1.49086Z" fill="#80C181"/>
<path fill-rule="evenodd" clip-rule="evenodd" d="M29.3269 16.3007C29.8173 16.3007 30.2096 15.9083 30.2096 15.4179C30.2096 14.9275 29.8173 14.5352 29.3269 14.5352H18.9301C18.4396 14.5352 18.0473 14.9275 18.0473 15.4179C18.0473 15.9083 18.4396 16.3007 18.9301 16.3007H21.4802C22.6572 16.3007 23.54 16.7911 24.0304 17.3796C24.4227 17.7719 24.6189 18.3604 24.815 18.9489H18.832C18.3416 18.9489 17.9492 19.3412 17.9492 19.8317C17.9492 20.3221 18.3416 20.7144 18.832 20.7144H24.717C24.6189 21.3029 24.3246 21.7933 23.9323 22.2837C23.3438 22.8722 22.5591 23.3626 21.3821 23.3626H18.832C18.7339 23.3626 18.7339 23.3626 18.6358 23.3626H18.5377C18.5377 23.3626 18.4396 23.3626 18.4396 23.4607C18.3416 23.4607 18.3416 23.5588 18.2435 23.5588C18.2435 23.5588 18.2435 23.6569 18.1454 23.6569C18.1454 23.755 18.0473 23.755 18.0473 23.8531C18.0473 23.9511 18.0473 23.9511 18.0473 24.0492V24.1473C18.0473 24.2454 18.0473 24.2454 18.0473 24.3435V24.4416C18.0473 24.4416 18.0473 24.5396 18.1454 24.5396C18.1454 24.6377 18.2435 24.6377 18.2435 24.7358L25.5997 31.6016C25.992 31.8959 26.4825 31.8959 26.7767 31.6016C27.071 31.2093 27.071 30.7189 26.7767 30.4246L20.9898 25.0301H21.3821C23.0495 25.0301 24.3246 24.4416 25.3055 23.3626C26.0901 22.578 26.4825 21.5971 26.5805 20.6163H29.2288C29.7192 20.6163 30.1115 20.224 30.1115 19.7336C30.1115 19.2432 29.7192 18.8508 29.2288 18.8508H26.5805C26.4825 17.87 26.0901 16.9872 25.4035 16.3007H29.3269Z" fill="#80C181"/>
</svg>
