<svg width="48" height="48" viewBox="0 0 48 48" fill="none" xmlns="http://www.w3.org/2000/svg">
<path fill-rule="evenodd" clip-rule="evenodd" d="M2 10.9094C2 9.70437 2.97683 8.72754 4.18182 8.72754H43.4545C44.6595 8.72754 45.6364 9.70437 45.6364 10.9094C45.6364 12.1143 44.6595 13.0912 43.4545 13.0912H4.18182C2.97683 13.0912 2 12.1143 2 10.9094Z" fill="white"/>
<path fill-rule="evenodd" clip-rule="evenodd" d="M19.4542 4.36364C18.8755 4.36364 18.3206 4.59351 17.9114 5.00268C17.5022 5.41185 17.2724 5.9668 17.2724 6.54545V8.72727H30.3633V6.54545C30.3633 5.9668 30.1334 5.41185 29.7242 5.00268C29.3151 4.59351 28.7601 4.36364 28.1815 4.36364H19.4542ZM34.7269 8.72727V6.54545C34.7269 4.80949 34.0373 3.14463 32.8098 1.91712C31.5823 0.689608 29.9174 0 28.1815 0H19.4542C17.7182 0 16.0534 0.689608 14.8259 1.91712C13.5983 3.14463 12.9087 4.80949 12.9087 6.54545V8.72727H8.5451C7.34011 8.72727 6.36328 9.70411 6.36328 10.9091V41.4545C6.36328 43.1905 7.05289 44.8554 8.2804 46.0829C9.50791 47.3104 11.1728 48 12.9087 48H34.7269C36.4629 48 38.1277 47.3104 39.3553 46.0829C40.5828 44.8554 41.2724 43.1905 41.2724 41.4545V10.9091C41.2724 9.70411 40.2955 8.72727 39.0906 8.72727H34.7269ZM10.7269 13.0909V41.4545C10.7269 42.0332 10.9568 42.5882 11.366 42.9973C11.7751 43.4065 12.3301 43.6364 12.9087 43.6364H34.7269C35.3056 43.6364 35.8605 43.4065 36.2697 42.9973C36.6789 42.5882 36.9087 42.0332 36.9087 41.4545V13.0909H10.7269Z" fill="white"/>
<path fill-rule="evenodd" clip-rule="evenodd" d="M19.4543 19.6367C20.6593 19.6367 21.6361 20.6136 21.6361 21.8185V34.9094C21.6361 36.1144 20.6593 37.0913 19.4543 37.0913C18.2493 37.0913 17.2725 36.1144 17.2725 34.9094V21.8185C17.2725 20.6136 18.2493 19.6367 19.4543 19.6367Z" fill="white"/>
<path fill-rule="evenodd" clip-rule="evenodd" d="M28.1818 19.6367C29.3868 19.6367 30.3636 20.6136 30.3636 21.8185V34.9094C30.3636 36.1144 29.3868 37.0913 28.1818 37.0913C26.9768 37.0913 26 36.1144 26 34.9094V21.8185C26 20.6136 26.9768 19.6367 28.1818 19.6367Z" fill="#FAFAFA"/>
</svg>
