<svg width="42" height="42" viewBox="0 0 42 42" fill="none" xmlns="http://www.w3.org/2000/svg">
<path fill-rule="evenodd" clip-rule="evenodd" d="M36.5533 18.2801C37.2822 19.0091 37.2822 20.191 36.5533 20.92L16.0199 41.4533C15.291 42.1823 14.109 42.1823 13.3801 41.4533L4.04673 32.12C3.31776 31.391 3.31776 30.2091 4.04673 29.4801C4.77571 28.7512 5.95762 28.7512 6.6866 29.4801L14.7 37.4935L33.9134 18.2801C34.6424 17.5512 35.8243 17.5512 36.5533 18.2801Z" fill="#F06649"/>
<path fill-rule="evenodd" clip-rule="evenodd" d="M38.4205 0.546734C39.1494 1.27571 39.1494 2.45762 38.4205 3.1866L17.8871 23.7199C17.1581 24.4489 15.9762 24.4489 15.2473 23.7199L5.91392 14.3866C5.18494 13.6576 5.18494 12.4757 5.91392 11.7467C6.6429 11.0178 7.82481 11.0178 8.55379 11.7467L16.5672 19.7601L35.7806 0.546734C36.5096 -0.182245 37.6915 -0.182245 38.4205 0.546734Z" fill="#F06649"/>
</svg>
