<svg width="48" height="48" viewBox="0 0 48 48" fill="none" xmlns="http://www.w3.org/2000/svg">
<path fill-rule="evenodd" clip-rule="evenodd" d="M41.7752 20.8914C42.6083 21.7246 42.6083 23.0753 41.7752 23.9084L18.3085 47.3751C17.4754 48.2082 16.1246 48.2082 15.2915 47.3751L4.62484 36.7084C3.79172 35.8753 3.79172 34.5246 4.62484 33.6914C5.45796 32.8583 6.80871 32.8583 7.64183 33.6914L16.8 42.8496L38.7582 20.8914C39.5913 20.0583 40.942 20.0583 41.7752 20.8914Z" fill="white"/>
<path fill-rule="evenodd" clip-rule="evenodd" d="M43.9085 0.624839C44.7416 1.45796 44.7416 2.80871 43.9085 3.64183L20.4418 27.1085C19.6087 27.9416 18.2579 27.9416 17.4248 27.1085L6.75814 16.4418C5.92502 15.6087 5.92502 14.258 6.75814 13.4248C7.59126 12.5917 8.94201 12.5917 9.77513 13.4248L18.9333 22.583L40.8915 0.624839C41.7246 -0.20828 43.0753 -0.20828 43.9085 0.624839Z" fill="white"/>
</svg>
