<svg width="48" height="48" viewBox="0 0 48 48" fill="none" xmlns="http://www.w3.org/2000/svg">
<path fill-rule="evenodd" clip-rule="evenodd" d="M35.5482 0.639039C36.4003 -0.213013 37.7817 -0.213013 38.6338 0.639039L47.361 9.3663C48.2131 10.2184 48.2131 11.5998 47.361 12.4519C46.509 13.3039 45.1275 13.3039 44.2755 12.4519L35.5482 3.72459C34.6962 2.87254 34.6962 1.49109 35.5482 0.639039Z" fill="white"/>
<path fill-rule="evenodd" clip-rule="evenodd" d="M29.0027 7.18445C29.8547 6.3324 31.2362 6.3324 32.0882 7.18445L40.8155 15.9117C41.6676 16.7638 41.6676 18.1452 40.8155 18.9973L15.7246 44.0882C15.4561 44.3566 15.1222 44.5504 14.7559 44.6503L2.75594 47.923C2.00057 48.129 1.19273 47.9145 0.63909 47.3609C0.0854535 46.8072 -0.129081 45.9994 0.0769294 45.244L3.34965 33.244C3.44956 32.8777 3.64333 32.5438 3.91181 32.2753L29.0027 7.18445ZM7.40707 34.9512L5.29143 42.7085L13.0488 40.5929L36.1872 17.4545L30.5455 11.8128L7.40707 34.9512Z" fill="white"/>
</svg>
