<svg width="48" height="48" viewBox="0 0 48 48" fill="none" xmlns="http://www.w3.org/2000/svg">
<path fill-rule="evenodd" clip-rule="evenodd" d="M5.91712 1.91712C7.14463 0.689608 8.80949 0 10.5455 0H29.0909C29.6696 0 30.2245 0.229869 30.6337 0.63904L42.6337 12.639C43.0429 13.0482 43.2727 13.6032 43.2727 14.1818V41.4545C43.2727 43.1905 42.5831 44.8554 41.3556 46.0829C40.1281 47.3104 38.4632 48 36.7273 48H10.5455C8.80949 48 7.14463 47.3104 5.91712 46.0829C4.68961 44.8554 4 43.1905 4 41.4545V6.54545C4 4.80949 4.68961 3.14463 5.91712 1.91712ZM10.5455 4.36364C9.9668 4.36364 9.41185 4.59351 9.00268 5.00268C8.59351 5.41185 8.36364 5.9668 8.36364 6.54545V41.4545C8.36364 42.0332 8.59351 42.5882 9.00268 42.9973C9.41185 43.4065 9.9668 43.6364 10.5455 43.6364H36.7273C37.3059 43.6364 37.8609 43.4065 38.2701 42.9973C38.6792 42.5882 38.9091 42.0332 38.9091 41.4545V15.0856L28.1872 4.36364H10.5455Z" fill="#999999"/>
<path fill-rule="evenodd" clip-rule="evenodd" d="M28.0002 0C29.2052 0 30.182 0.976833 30.182 2.18182V13.0909H41.0911C42.2961 13.0909 43.2729 14.0677 43.2729 15.2727C43.2729 16.4777 42.2961 17.4545 41.0911 17.4545H28.0002C26.7952 17.4545 25.8184 16.4777 25.8184 15.2727V2.18182C25.8184 0.976833 26.7952 0 28.0002 0Z" fill="#999999"/>
<path fill-rule="evenodd" clip-rule="evenodd" d="M31.7247 24.639C32.5767 25.4911 32.5767 26.8725 31.7247 27.7246L22.9974 36.4519C22.1454 37.3039 20.7639 37.3039 19.9119 36.4519L15.5482 32.0882C14.6962 31.2362 14.6962 29.8547 15.5482 29.0027C16.4003 28.1506 17.7817 28.1506 18.6338 29.0027L21.4546 31.8235L28.6391 24.639C29.4912 23.787 30.8726 23.787 31.7247 24.639Z" fill="#999999"/>
</svg>
