<svg width="40" height="40" viewBox="0 0 40 40" fill="none" xmlns="http://www.w3.org/2000/svg">
<g clip-path="url(#clip0_337_3984)">
<path d="M22.3089 24.1249L25.9562 23.3788L22.8302 8.03339C22.609 7.01224 21.6083 6.31271 20.627 6.51525C19.6025 6.73565 18.9618 7.75836 19.183 8.7795L22.3089 24.1249Z" fill="#FFDD67"/>
<path d="M20.6704 6.4974C20.5225 6.50783 20.4359 6.54357 20.306 6.59717C21.211 6.57773 21.9848 7.21924 22.1701 8.15404L25.296 23.4995L25.9562 23.3788L22.8302 8.03341C22.6344 6.95123 21.6516 6.29486 20.6704 6.4974Z" fill="#F1A341"/>
<path d="M19.0233 25.9859L23.0946 24.3065L16.5872 8.63685C16.1032 7.47134 14.7813 6.85371 13.6552 7.31825C12.5724 7.76492 12.014 9.10767 12.5159 10.3163L19.0233 25.9859Z" fill="#FFDD67"/>
<path d="M13.6985 7.30039C13.6119 7.33613 13.4819 7.38973 13.4133 7.46863C14.4811 7.23036 15.576 7.78996 16.0241 8.86913L22.5495 24.5819L23.1558 24.3318L16.6305 8.619C16.1285 7.41032 14.8246 6.83585 13.6985 7.30039Z" fill="#F1A341"/>
<path d="M16.8398 26.8361L19.9283 24.5002L10.2264 11.7664C9.55421 10.8808 8.30707 10.6874 7.44385 11.2963C6.59856 11.9483 6.44782 13.1734 7.12001 14.0591L16.8398 26.8361Z" fill="#FFDD67"/>
<path d="M7.44382 11.2963L7.23773 11.533C8.08604 11.1325 9.0987 11.372 9.73503 12.1713L19.4369 24.9052L19.9716 24.4824L10.2264 11.7664C9.55419 10.8808 8.30705 10.6874 7.44382 11.2963Z" fill="#F1A341"/>
<path d="M4.13465 17.0098C3.47307 17.7378 3.64345 18.881 4.4351 19.5656L14.867 28.5601L17.1593 25.8953L6.72747 16.9009C5.93581 16.2162 4.79623 16.2818 4.13465 17.0098Z" fill="#FFDD67"/>
<path d="M4.13466 17.0098C4.06596 17.0887 3.99727 17.1676 3.9465 17.2897C4.59316 16.7701 5.57742 16.8191 6.28991 17.4353L16.7218 26.4298L17.1773 25.9385L6.72747 16.9009C5.93582 16.2162 4.79624 16.2818 4.13466 17.0098Z" fill="#F1A341"/>
<path d="M31.9758 13.5641C30.7271 12.5118 28.5974 13.4915 27.3924 16.82C26.5323 19.1467 26.4622 19.833 24.885 20.433L24.15 18.6632C24.15 18.6632 19.7932 17.5784 13.6326 21.4344C13.6326 21.4344 10.0796 23.5068 10.9043 25.4925C10.9043 25.4925 12.2445 30.552 14.842 33.0198C18.6987 36.6873 29.4043 33.6362 29.4363 24.6735C29.4585 22.8947 30.2918 21.2363 30.8696 19.3294C31.4952 17.0489 33.3037 14.6849 31.9758 13.5641Z" fill="#FFDD67"/>
<path d="M31.9758 13.5641C31.7383 13.3587 31.4934 13.2575 31.2051 13.1742C31.2664 13.1995 31.3276 13.2248 31.3634 13.3111C32.7093 14.4751 30.8828 16.7959 30.1706 19.1122C29.5928 21.0191 28.7596 22.6775 28.7373 24.4563C28.7082 32.2043 20.6522 35.5276 16.019 33.8995C20.5283 36.0843 29.334 32.8563 29.3497 24.7093C29.3719 22.9305 30.2052 21.2721 30.783 19.3652C31.4952 17.0489 33.3037 14.6849 31.9758 13.5641Z" fill="#F1A341"/>
<path d="M25.3182 20.2544C22.0727 20.3798 17.8373 24.3517 20.6277 29.1163C18.6737 24.4111 22.4775 21.4768 24.8164 20.512C25.1449 20.3259 25.3182 20.2544 25.3182 20.2544Z" fill="#F1A341"/>
</g>
<defs>
<clipPath id="clip0_337_3984">
<rect width="29.9854" height="29.9145" fill="white" transform="matrix(0.924432 -0.381347 0.383532 0.923528 0 11.9401)"/>
</clipPath>
</defs>
</svg>
