<svg width="48" height="48" viewBox="0 0 48 48" fill="none" xmlns="http://www.w3.org/2000/svg">
<path fill-rule="evenodd" clip-rule="evenodd" d="M8.63105 4.06678C10.3271 3.36252 12.1455 3 13.9819 3C15.8184 3 17.6368 3.36252 19.3329 4.06678C21.0289 4.77103 22.5693 5.80316 23.8656 7.10398L23.8728 7.11127L24 7.24014L24.1272 7.11128L24.1345 7.10398C25.4308 5.80316 26.9711 4.77103 28.6672 4.06678C30.3632 3.36252 32.1816 3 34.0181 3C35.8545 3 37.6729 3.36252 39.369 4.06678C41.0645 4.77079 42.6043 5.80245 43.9004 7.10264C49.4491 12.6528 49.5724 21.8296 42.9976 28.5276L42.9834 28.542L25.5417 45.9836C25.1328 46.3925 24.5782 46.6222 24 46.6222C23.4218 46.6222 22.8672 46.3925 22.4584 45.9836L5.00239 28.5277C-1.57247 21.8297 -1.44902 12.6528 4.09968 7.10263C5.39571 5.80245 6.93558 4.77079 8.63105 4.06678ZM13.9819 7.36042C12.7194 7.36042 11.4692 7.60965 10.3032 8.09383C9.13717 8.578 8.07818 9.28759 7.18696 10.1819L7.18429 10.1846C3.49185 13.877 3.04766 20.3055 8.10741 25.4661L24 41.3587L39.8926 25.4661C44.9524 20.3055 44.5082 13.877 40.8157 10.1846L40.8131 10.1819C39.9219 9.28759 38.8629 8.578 37.6968 8.09383C36.5308 7.60965 35.2806 7.36042 34.0181 7.36042C32.7555 7.36042 31.5054 7.60965 30.3393 8.09383C29.1748 8.57737 28.1171 9.28573 27.2266 10.1784C27.2254 10.1796 27.2243 10.1807 27.2231 10.1819L25.5516 11.8752C25.1419 12.2901 24.5831 12.5237 24 12.5237C23.4169 12.5237 22.8581 12.2901 22.4485 11.8752L20.7769 10.1819C20.7758 10.1807 20.7746 10.1796 20.7734 10.1784C19.8829 9.28573 18.8252 8.57737 17.6607 8.09383C16.4947 7.60965 15.2445 7.36042 13.9819 7.36042Z" fill="white"/>
</svg>
