<svg width="48" height="48" viewBox="0 0 48 48" fill="none" xmlns="http://www.w3.org/2000/svg">
<path fill-rule="evenodd" clip-rule="evenodd" d="M24 4.36364C13.1551 4.36364 4.36364 13.1551 4.36364 24C4.36364 34.8449 13.1551 43.6364 24 43.6364C34.8449 43.6364 43.6364 34.8449 43.6364 24C43.6364 13.1551 34.8449 4.36364 24 4.36364ZM0 24C0 10.7452 10.7452 0 24 0C37.2548 0 48 10.7452 48 24C48 37.2548 37.2548 48 24 48C10.7452 48 0 37.2548 0 24Z" fill="#F06649"/>
<path fill-rule="evenodd" clip-rule="evenodd" d="M24.5634 15.3249C23.5477 15.1507 22.5032 15.3416 21.6147 15.8637C20.7263 16.3858 20.0513 17.2056 19.7093 18.1777C19.3095 19.3144 18.0638 19.9117 16.9271 19.5118C15.7904 19.112 15.1931 17.8663 15.593 16.7296C16.2769 14.7854 17.6269 13.146 19.4038 12.1017C21.1806 11.0574 23.2698 10.6756 25.3011 11.0241C27.3325 11.3725 29.175 12.4286 30.5023 14.0054C31.8293 15.5818 32.5558 17.5769 32.553 19.6375C32.552 22.9764 30.0765 25.1814 28.3087 26.36C27.3582 26.9936 26.4233 27.4595 25.7346 27.7656C25.3871 27.92 25.0945 28.0372 24.8837 28.1175C24.7781 28.1578 24.6925 28.1889 24.6301 28.2111L24.5544 28.2376L24.5302 28.2459L24.5217 28.2488L24.5184 28.2499C24.5177 28.2501 24.5157 28.2508 23.8257 26.1809L24.5157 28.2508C23.3725 28.6318 22.1369 28.014 21.7559 26.8709C21.3751 25.7285 21.9918 24.4938 23.1335 24.1118L23.1307 24.1128C23.1309 24.1127 23.1311 24.1127 23.1335 24.1118L23.1683 24.0996C23.2018 24.0877 23.2569 24.0677 23.3302 24.0398C23.4774 23.9837 23.6961 23.8964 23.9623 23.7781C24.5009 23.5387 25.2023 23.1865 25.8882 22.7292C27.3928 21.7261 28.1893 20.659 28.1893 19.6355L28.1893 19.6322C28.1909 18.6017 27.8277 17.6039 27.164 16.8155C26.5004 16.0272 25.5791 15.4991 24.5634 15.3249Z" fill="#F06649"/>
<path fill-rule="evenodd" clip-rule="evenodd" d="M21.8182 34.9084C21.8182 33.7034 22.7951 32.7266 24.0001 32.7266H24.0219C25.2269 32.7266 26.2037 33.7034 26.2037 34.9084C26.2037 36.1134 25.2269 37.0902 24.0219 37.0902H24.0001C22.7951 37.0902 21.8182 36.1134 21.8182 34.9084Z" fill="#F06649"/>
</svg>
