<svg width="60" height="60" viewBox="0 0 60 60" fill="none" xmlns="http://www.w3.org/2000/svg">
<path fill-rule="evenodd" clip-rule="evenodd" d="M28.314 0.48611C29.1473 -0.162037 30.3142 -0.162037 31.1476 0.48611L56.0706 19.8707C56.6328 20.3079 56.9615 20.9802 56.9615 21.6923V52.1538C56.9615 54.2348 56.1349 56.2305 54.6635 57.7019C53.192 59.1734 51.1963 60 49.1154 60H10.3462C8.26522 60 6.26952 59.1734 4.79809 57.7019C3.32665 56.2305 2.5 54.2348 2.5 52.1538V21.6923C2.5 20.9802 2.82878 20.3079 3.39091 19.8707L28.314 0.48611ZM7.11538 22.821V52.1538C7.11538 53.0107 7.45577 53.8325 8.06165 54.4383C8.66754 55.0442 9.4893 55.3846 10.3462 55.3846H49.1154C49.9722 55.3846 50.794 55.0442 51.3999 54.4383C52.0058 53.8325 52.3462 53.0107 52.3462 52.1538V22.821L29.7308 5.23122L7.11538 22.821Z" fill="#999999"/>
<path fill-rule="evenodd" clip-rule="evenodd" d="M19.1152 29.9991C19.1152 28.7246 20.1484 27.6914 21.4229 27.6914H38.0383C39.3128 27.6914 40.346 28.7246 40.346 29.9991V57.6914C40.346 58.9659 39.3128 59.9991 38.0383 59.9991C36.7638 59.9991 35.7306 58.9659 35.7306 57.6914V32.3068H23.7306V57.6914C23.7306 58.9659 22.6974 59.9991 21.4229 59.9991C20.1484 59.9991 19.1152 58.9659 19.1152 57.6914V29.9991Z" fill="#999999"/>
</svg>
