<svg width="100" height="100" viewBox="0 0 100 100" fill="none" xmlns="http://www.w3.org/2000/svg">
<path d="M100 31.044C99.3843 31.5318 98.8364 32.1841 98.1398 32.4762C93.9263 34.2529 89.6814 35.9539 85.4443 37.668C84.0981 38.2132 83.0414 37.8532 82.577 36.7366C82.1204 35.633 82.637 34.5999 83.9546 34.0625C87.8551 32.4658 91.7634 30.8822 95.6665 29.2934C96.0265 29.1473 96.3892 29.0038 96.7492 28.8603C98.3903 28.1976 99.0426 28.4011 100 29.8726C100 30.2639 100 30.6552 100 31.044Z" fill="#F06649"/>
<path d="M68.9448 100C68.4464 99.353 67.7811 98.7791 67.4759 98.0512C65.72 93.9004 64.032 89.7209 62.3726 85.5284C62.1483 84.9649 62.0778 84.2396 62.2161 83.6552C62.4013 82.8777 63.0875 82.4577 63.9094 82.429C64.8225 82.3977 65.4643 82.8569 65.8087 83.6839C66.6906 85.8101 67.5489 87.9468 68.4151 90.0809C69.3205 92.3037 70.2258 94.5239 71.1285 96.7493C71.7938 98.3903 71.5851 99.0478 70.1162 99.9974C69.7249 100 69.3361 100 68.9448 100Z" fill="#F06649"/>
<path d="M50.0223 18.7222C66.2399 18.7587 79.8564 31.3624 81.0983 47.5272C82.3454 63.7572 71.0901 78.135 55.0446 80.8117C38.3808 83.5928 22.3484 72.3014 19.3271 55.6644C18.0644 48.7038 19.0662 42.0746 22.244 35.7662C22.7789 34.707 23.572 34.2426 24.4774 34.4278C25.8601 34.7096 26.4472 36.0741 25.7375 37.4933C24.5374 39.8909 23.6842 42.3955 23.1624 45.0305C20.3916 59.0586 29.651 73.3241 43.6406 76.5461C59.6391 80.2325 74.9149 69.643 77.1065 53.3451C79.0424 38.9439 68.5489 25.0853 54.1836 23.006C48.8195 22.2285 43.6902 22.9173 38.7539 25.1375C38.5478 25.2314 38.3365 25.3201 38.1251 25.401C36.9824 25.8393 35.9596 25.4636 35.5005 24.4435C35.0491 23.4365 35.4509 22.3851 36.5441 21.8555C39.821 20.2666 43.2806 19.2961 46.9045 18.9335C47.9429 18.8344 48.9839 18.7926 50.0223 18.7222Z" fill="#F06649"/>
<path d="M71.5014 49.4342C71.3996 55.2077 69.7507 59.7942 66.4529 63.7728C65.6024 64.7981 64.4336 64.9833 63.5491 64.2554C62.6542 63.5197 62.5916 62.3639 63.4291 61.3099C67.6766 55.9564 68.6628 50.0655 66.3695 43.6241C65.8868 42.2701 66.299 41.2056 67.4313 40.8065C68.5584 40.4099 69.5681 40.9578 70.0325 42.3249C70.4395 43.5224 70.8204 44.7381 71.0631 45.9747C71.324 47.3131 71.4101 48.6828 71.5014 49.4342Z" fill="#F06649"/>
<path d="M62.4824 15.5522C62.5372 15.38 62.6233 15.0018 62.772 14.6469C64.5644 10.3709 66.3672 6.10014 68.1727 1.82674C68.6527 0.694469 69.3519 0.167468 70.252 0.230082C71.6531 0.329221 72.4488 1.68586 71.8644 3.1025C70.4138 6.60888 68.9241 10.097 67.45 13.5929C67.0221 14.6078 66.6255 15.6409 66.1533 16.6349C65.7358 17.5089 64.8201 17.9107 63.9643 17.6889C63.0564 17.4594 62.4693 16.6976 62.4824 15.5522Z" fill="#F06649"/>
<path d="M37.5091 84.4194C37.4883 84.5003 37.4622 84.7325 37.3761 84.9386C35.4637 89.4938 33.5617 94.0516 31.6127 98.5911C31.1666 99.632 30.0421 100.005 29.0768 99.5851C28.148 99.1807 27.6314 98.1319 28.0384 97.1457C29.9378 92.5514 31.8684 87.9676 33.8226 83.3968C34.2244 82.4575 35.1923 82.0558 36.082 82.3088C36.9847 82.5671 37.5509 83.342 37.5091 84.4194Z" fill="#F06649"/>
<path d="M15.5744 37.5143C15.397 37.4569 14.9874 37.3578 14.6038 37.196C10.3277 35.4011 6.05409 33.6009 1.78312 31.7982C0.455133 31.2373 -0.0588436 30.225 0.395126 29.1188C0.846486 28.0205 1.96576 27.637 3.25722 28.1796C7.62211 30.0111 11.987 31.8477 16.3441 33.7001C17.4294 34.1618 17.9277 35.0463 17.706 35.9933C17.4973 36.9012 16.7432 37.5091 15.5744 37.5143Z" fill="#F06649"/>
<path d="M84.427 62.4815C84.594 62.531 84.9436 62.6041 85.2697 62.7424C89.585 64.5529 93.8978 66.3661 98.2052 68.1924C99.4837 68.735 99.982 69.6221 99.6559 70.6891C99.2802 71.9127 98.0905 72.3849 96.7233 71.8083C92.6793 70.1099 88.6406 68.3985 84.5992 66.687C84.1218 66.4835 83.626 66.3061 83.1825 66.0426C82.3868 65.5704 82.0685 64.6886 82.332 63.8564C82.6059 62.9876 83.3391 62.458 84.427 62.4815Z" fill="#F06649"/>
<path d="M37.9313 15.3959C37.9261 16.523 37.3625 17.2665 36.512 17.5065C35.651 17.7466 34.7222 17.3709 34.2969 16.5152C33.9212 15.7612 33.6368 14.9655 33.3185 14.1854C31.8131 10.4938 30.2921 6.80478 28.818 3.09751C28.6119 2.58095 28.4945 1.94176 28.5962 1.40954C28.7554 0.577301 29.4076 0.0789983 30.266 0.00855763C31.2157 -0.0697098 31.894 0.392068 32.2567 1.26345C33.175 3.48102 34.0752 5.70382 34.9805 7.92661C35.8623 10.0868 36.752 12.247 37.6234 14.4124C37.78 14.7985 37.8739 15.2107 37.9313 15.3959Z" fill="#F06649"/>
<path d="M15.4912 62.0613C16.5791 62.0717 17.3462 62.6926 17.5392 63.5901C17.7323 64.485 17.2862 65.385 16.3339 65.7946C14.578 66.5512 12.796 67.2504 11.0245 67.9705C8.29287 69.0819 5.56383 70.2089 2.82175 71.2942C1.4755 71.8264 0.202298 71.122 0.0196668 69.8097C-0.102957 68.9358 0.351012 68.1218 1.29287 67.7357C5.79082 65.8859 10.2966 64.0571 14.8024 62.2309C15.0659 62.1213 15.3633 62.09 15.4912 62.0613Z" fill="#F06649"/>
<path d="M51.9655 9.66103C51.9655 10.8298 51.9837 11.9986 51.9602 13.1674C51.9368 14.3779 51.1645 15.1945 50.0687 15.2206C48.9546 15.2467 48.0884 14.3988 48.0728 13.1596C48.0441 10.822 48.0441 8.48441 48.0728 6.14682C48.0884 4.91542 48.9651 4.0623 50.0765 4.09361C51.1723 4.12491 51.9368 4.9389 51.9602 6.15465C51.9837 7.32344 51.9655 8.49223 51.9655 9.66103Z" fill="#F06649"/>
<path d="M19.4207 16.7339C19.6895 16.8852 20.2634 17.073 20.6522 17.4513C22.1915 18.9384 23.6839 20.4751 25.171 22.0169C26.1129 22.9953 26.1468 24.1406 25.3093 24.952C24.4822 25.7555 23.329 25.6877 22.3715 24.7302C20.8348 23.1936 19.3138 21.6386 17.8031 20.0759C17.2135 19.468 17.0126 18.7428 17.3674 17.9314C17.6988 17.1774 18.2884 16.7887 19.4207 16.7339Z" fill="#F06649"/>
<path d="M83.2291 19.5177C83.1039 19.7316 82.9082 20.2665 82.5481 20.6369C81.0323 22.1945 79.4773 23.7181 77.9093 25.226C76.9883 26.1131 75.8404 26.1209 75.0446 25.3121C74.2463 24.5007 74.2723 23.358 75.1751 22.4501C76.73 20.8848 78.3111 19.3429 79.8948 17.8063C80.534 17.1853 81.2932 16.9923 82.1281 17.3941C82.8691 17.7489 83.2422 18.3567 83.2291 19.5177Z" fill="#F06649"/>
<path d="M16.512 81.0125C16.872 80.342 17.0338 79.7889 17.3886 79.4211C18.9227 77.8348 20.4985 76.2903 22.0874 74.7589C23.011 73.8693 24.1616 73.8641 24.9521 74.6754C25.7427 75.4868 25.7192 76.6295 24.8165 77.54C23.2641 79.108 21.683 80.6472 20.0968 82.1813C19.4549 82.8022 18.6383 83.0579 17.8791 82.5596C17.3416 82.2126 16.992 81.576 16.512 81.0125Z" fill="#F06649"/>
<path d="M9.37606 51.5995C8.27245 51.5995 7.16883 51.6256 6.06522 51.5916C4.91464 51.5577 4.13193 50.7829 4.10324 49.7211C4.07714 48.7114 4.7868 47.7905 5.86693 47.7565C8.26462 47.6809 10.6675 47.6809 13.0652 47.7539C14.1454 47.7878 14.8602 48.7062 14.8367 49.7132C14.8107 50.7751 14.0306 51.529 12.88 51.5969C12.8148 51.5995 12.7495 51.6021 12.6843 51.6021C11.5807 51.6021 10.4771 51.6021 9.37346 51.6021C9.37606 51.6021 9.37606 51.5995 9.37606 51.5995Z" fill="#F06649"/>
<path d="M90.5638 48.3879C91.6674 48.3879 92.771 48.3644 93.8746 48.3931C95.0852 48.427 95.8914 49.2149 95.8966 50.308C95.9019 51.349 95.1296 52.2308 93.9947 52.2569C91.6909 52.3143 89.3871 52.3143 87.0834 52.2595C85.9015 52.2308 85.1162 51.3177 85.1631 50.2324C85.2101 49.1732 85.9876 48.427 87.1564 48.3931C88.2913 48.3618 89.4263 48.3879 90.5638 48.3879Z" fill="#F06649"/>
<path d="M80.4949 83.2353C80.2758 83.1075 79.7409 82.9197 79.3705 82.5622C77.8103 81.0465 76.2892 79.4915 74.7786 77.9262C73.8837 77 73.8628 75.8652 74.6612 75.0616C75.4622 74.2555 76.618 74.2685 77.5233 75.1634C79.0913 76.7157 80.6306 78.2993 82.1699 79.8829C82.7883 80.5195 82.997 81.2734 82.603 82.1135C82.2534 82.857 81.6507 83.2301 80.4949 83.2353Z" fill="#F06649"/>
<path d="M48.0466 90.4413C48.0466 89.369 48.0284 88.2968 48.0518 87.2271C48.0779 85.9879 48.9102 85.14 50.0321 85.1582C51.1174 85.1765 51.9288 86.0035 51.9419 87.1984C51.9628 89.4056 51.9602 91.6153 51.9262 93.8224C51.908 95.0643 51.0496 95.9148 49.9382 95.8939C48.8137 95.873 48.0518 95.0304 48.0336 93.7546C48.0179 92.651 48.031 91.5475 48.031 90.4439C48.0362 90.4413 48.0414 90.4413 48.0466 90.4413Z" fill="#F06649"/>
<path d="M29.911 26.7993C30.9677 26.7941 31.8287 27.6525 31.8339 28.7169C31.8391 29.7944 31.0042 30.6527 29.9476 30.6579C28.857 30.6631 27.9256 29.75 27.949 28.6986C27.9699 27.6577 28.8518 26.8046 29.911 26.7993Z" fill="#F06649"/>
<path d="M59.2034 67.8712C59.2112 68.9539 58.3972 69.8096 57.3327 69.8357C56.2421 69.8618 55.3186 68.9539 55.3368 67.8764C55.3551 66.8094 56.2082 65.9797 57.2805 65.9797C58.3789 65.9823 59.1955 66.7859 59.2034 67.8712Z" fill="#F06649"/>
</svg>
