<svg width="100" height="100" viewBox="0 0 100 100" fill="none" xmlns="http://www.w3.org/2000/svg">
<path fill-rule="evenodd" clip-rule="evenodd" d="M4.39835 2.91262C3.57781 2.91262 2.91262 3.57781 2.91262 4.39835V95.6016C2.91262 96.4222 3.57781 97.0874 4.39835 97.0874H95.6016C96.4222 97.0874 97.0874 96.4222 97.0874 95.6016V4.39835C97.0874 3.57781 96.4222 2.91262 95.6016 2.91262H4.39835ZM0 4.39835C0 1.96921 1.96921 0 4.39835 0H95.6016C98.0308 0 100 1.96921 100 4.39835V95.6016C100 98.0308 98.0308 100 95.6016 100H4.39835C1.96921 100 0 98.0308 0 95.6016V4.39835Z" fill="#27AAE1"/>
<path fill-rule="evenodd" clip-rule="evenodd" d="M50 1.46582L52.7356 4.20146C52.9252 4.39104 52.9252 4.6984 52.7356 4.88798C52.5461 5.07755 52.2387 5.07755 52.0491 4.88798L50 2.83884L47.9509 4.88798C47.7613 5.07755 47.4539 5.07755 47.2644 4.88798C47.0748 4.6984 47.0748 4.39104 47.2644 4.20146L50 1.46582ZM59.2263 11.3786C59.4159 11.1891 59.7232 11.1891 59.9128 11.3786L64.6976 16.1634C64.8872 16.353 64.8872 16.6603 64.6976 16.8499C64.508 17.0395 64.2007 17.0395 64.0111 16.8499L59.2263 12.0651C59.0367 11.8756 59.0367 11.5682 59.2263 11.3786ZM71.1882 23.3406C71.3778 23.151 71.6852 23.151 71.8748 23.3406L76.6595 28.1253C76.8491 28.3149 76.8491 28.6223 76.6595 28.8119C76.47 29.0014 76.1626 29.0014 75.973 28.8119L71.1882 24.0271C70.9987 23.8375 70.9987 23.5301 71.1882 23.3406ZM83.1502 35.3025C83.3398 35.1129 83.6471 35.1129 83.8367 35.3025L88.6215 40.0873C88.811 40.2769 88.811 40.5842 88.6215 40.7738C88.4319 40.9634 88.1245 40.9634 87.935 40.7738L83.1502 35.989C82.9606 35.7994 82.9606 35.4921 83.1502 35.3025ZM95.1121 47.2645C95.3017 47.0749 95.6091 47.0749 95.7986 47.2645L98.5343 50.0001L95.7986 52.7357C95.6091 52.9253 95.3017 52.9253 95.1121 52.7357C94.9226 52.5462 94.9225 52.2388 95.1121 52.0492L97.1613 50.0001L95.1121 47.951C94.9226 47.7614 94.9225 47.454 95.1121 47.2645ZM40.7737 11.3786C40.9633 11.5682 40.9633 11.8756 40.7737 12.0651L35.9889 16.8499C35.7993 17.0395 35.492 17.0395 35.3024 16.8499C35.1128 16.6603 35.1128 16.353 35.3024 16.1634L40.0872 11.3786C40.2768 11.1891 40.5841 11.1891 40.7737 11.3786ZM88.6215 59.2264C88.811 59.416 88.811 59.7233 88.6215 59.9129L83.8367 64.6977C83.6471 64.8873 83.3398 64.8873 83.1502 64.6977C82.9606 64.5081 82.9606 64.2007 83.1502 64.0112L87.935 59.2264C88.1245 59.0368 88.4319 59.0368 88.6215 59.2264ZM76.6595 71.1883C76.8491 71.3779 76.8491 71.6853 76.6595 71.8748L71.8748 76.6596C71.6852 76.8492 71.3778 76.8492 71.1882 76.6596C70.9987 76.47 70.9987 76.1627 71.1882 75.9731L75.973 71.1883C76.1626 70.9988 76.47 70.9988 76.6595 71.1883ZM28.8118 23.3406C29.0013 23.5301 29.0013 23.8375 28.8118 24.0271L24.027 28.8119C23.8374 29.0014 23.53 29.0014 23.3405 28.8119C23.1509 28.6223 23.1509 28.3149 23.3405 28.1253L28.1252 23.3406C28.3148 23.151 28.6222 23.151 28.8118 23.3406ZM16.8498 35.3025C17.0394 35.4921 17.0394 35.7994 16.8498 35.989L12.065 40.7738C11.8755 40.9634 11.5681 40.9634 11.3785 40.7738C11.189 40.5842 11.189 40.2769 11.3785 40.0873L16.1633 35.3025C16.3529 35.1129 16.6602 35.1129 16.8498 35.3025ZM64.6976 83.1503C64.8872 83.3399 64.8872 83.6472 64.6976 83.8368L59.9128 88.6216C59.7232 88.8111 59.4159 88.8111 59.2263 88.6216C59.0367 88.432 59.0367 88.1246 59.2263 87.9351L64.0111 83.1503C64.2007 82.9607 64.508 82.9607 64.6976 83.1503ZM4.88788 47.2645C5.07745 47.454 5.07745 47.7614 4.88788 47.951L2.83874 50.0001L4.88788 52.0492C5.07745 52.2388 5.07745 52.5462 4.88788 52.7357C4.6983 52.9253 4.39094 52.9253 4.20136 52.7357L1.46572 50.0001L4.20136 47.2645C4.39094 47.0749 4.6983 47.0749 4.88788 47.2645ZM52.7356 95.1122C52.9252 95.3018 52.9252 95.6092 52.7356 95.7987L50 98.5344L47.2644 95.7987C47.0748 95.6092 47.0748 95.3018 47.2644 95.1122C47.4539 94.9226 47.7613 94.9226 47.9509 95.1122L50 97.1613L52.0491 95.1122C52.2387 94.9226 52.5461 94.9226 52.7356 95.1122ZM11.3785 59.2264C11.5681 59.0368 11.8755 59.0368 12.065 59.2264L16.8498 64.0112C17.0394 64.2007 17.0394 64.5081 16.8498 64.6977C16.6602 64.8873 16.3529 64.8873 16.1633 64.6977L11.3785 59.9129C11.189 59.7233 11.189 59.416 11.3785 59.2264ZM23.3405 71.1883C23.53 70.9988 23.8374 70.9988 24.027 71.1883L28.8118 75.9731C29.0013 76.1627 29.0013 76.47 28.8118 76.6596C28.6222 76.8492 28.3148 76.8492 28.1252 76.6596L23.3405 71.8748C23.1509 71.6853 23.1509 71.3779 23.3405 71.1883ZM35.3024 83.1503C35.492 82.9607 35.7993 82.9607 35.9889 83.1503L40.7737 87.9351C40.9633 88.1246 40.9633 88.432 40.7737 88.6216C40.5841 88.8111 40.2768 88.8111 40.0872 88.6216L35.3024 83.8368C35.1128 83.6472 35.1128 83.3399 35.3024 83.1503Z" fill="#27AAE1"/>
<path fill-rule="evenodd" clip-rule="evenodd" d="M4.7908 4.79086C4.98038 4.60129 5.28774 4.60129 5.47731 4.79086L7.72062 7.03417C7.9102 7.22374 7.9102 7.53111 7.72062 7.72068C7.53105 7.91026 7.22368 7.91026 7.03411 7.72068L4.7908 5.47737C4.60123 5.2878 4.60123 4.98044 4.7908 4.79086ZM13.764 13.7641C13.9536 13.5745 14.261 13.5745 14.4505 13.7641L18.9372 18.2507C19.1267 18.4403 19.1267 18.7476 18.9372 18.9372C18.7476 19.1268 18.4402 19.1268 18.2506 18.9372L13.764 14.4506C13.5745 14.261 13.5745 13.9537 13.764 13.7641ZM24.9806 24.9806C25.1701 24.791 25.4775 24.791 25.6671 24.9806L30.1537 29.4672C30.3433 29.6568 30.3433 29.9642 30.1537 30.1537C29.9641 30.3433 29.6568 30.3433 29.4672 30.1537L24.9806 25.6671C24.791 25.4776 24.791 25.1702 24.9806 24.9806ZM36.1971 36.1972C36.3867 36.0076 36.694 36.0076 36.8836 36.1972L41.3702 40.6838C41.5598 40.8733 41.5598 41.1807 41.3702 41.3703C41.1806 41.5599 40.8733 41.5599 40.6837 41.3703L36.1971 36.8837C36.0075 36.6941 36.0075 36.3867 36.1971 36.1972ZM47.4136 47.4137C47.6032 47.2241 47.9106 47.2241 48.1001 47.4137L52.5868 51.9003C52.7763 52.0899 52.7763 52.3972 52.5868 52.5868C52.3972 52.7764 52.0898 52.7764 51.9002 52.5868L47.4136 48.1002C47.2241 47.9106 47.2241 47.6033 47.4136 47.4137ZM58.6302 58.6302C58.8197 58.4407 59.1271 58.4407 59.3167 58.6302L63.8033 63.1168C63.9929 63.3064 63.9929 63.6138 63.8033 63.8033C63.6137 63.9929 63.3063 63.9929 63.1168 63.8033L58.6302 59.3167C58.4406 59.1272 58.4406 58.8198 58.6302 58.6302ZM69.8467 69.8468C70.0363 69.6572 70.3436 69.6572 70.5332 69.8468L75.0198 74.3334C75.2094 74.5229 75.2094 74.8303 75.0198 75.0199C74.8302 75.2095 74.5229 75.2095 74.3333 75.0199L69.8467 70.5333C69.6571 70.3437 69.6571 70.0363 69.8467 69.8468ZM81.0632 81.0633C81.2528 80.8737 81.5602 80.8737 81.7497 81.0633L86.2363 85.5499C86.4259 85.7395 86.4259 86.0468 86.2363 86.2364C86.0468 86.426 85.7394 86.426 85.5498 86.2364L81.0632 81.7498C80.8737 81.5602 80.8737 81.2529 81.0632 81.0633ZM92.2798 92.2798C92.4693 92.0902 92.7767 92.0902 92.9663 92.2798L95.2096 94.5231C95.3992 94.7127 95.3992 95.0201 95.2096 95.2097C95.02 95.3992 94.7127 95.3992 94.5231 95.2097L92.2798 92.9663C92.0902 92.7768 92.0902 92.4694 92.2798 92.2798Z" fill="#27AAE1"/>
<path fill-rule="evenodd" clip-rule="evenodd" d="M95.2092 4.79086C95.0196 4.60129 94.7123 4.60129 94.5227 4.79086L92.2794 7.03417C92.0898 7.22374 92.0898 7.53111 92.2794 7.72068C92.469 7.91026 92.7763 7.91026 92.9659 7.72068L95.2092 5.47737C95.3988 5.2878 95.3988 4.98044 95.2092 4.79086ZM86.236 13.7641C86.0464 13.5745 85.739 13.5745 85.5495 13.7641L81.0628 18.2507C80.8733 18.4403 80.8733 18.7476 81.0628 18.9372C81.2524 19.1268 81.5598 19.1268 81.7494 18.9372L86.236 14.4506C86.4255 14.261 86.4255 13.9537 86.236 13.7641ZM75.0194 24.9806C74.8299 24.791 74.5225 24.791 74.3329 24.9806L69.8463 29.4672C69.6567 29.6568 69.6567 29.9642 69.8463 30.1537C70.0359 30.3433 70.3432 30.3433 70.5328 30.1537L75.0194 25.6671C75.209 25.4776 75.209 25.1702 75.0194 24.9806ZM63.8029 36.1972C63.6133 36.0076 63.306 36.0076 63.1164 36.1972L58.6298 40.6838C58.4402 40.8733 58.4402 41.1807 58.6298 41.3703C58.8194 41.5599 59.1267 41.5599 59.3163 41.3703L63.8029 36.8837C63.9925 36.6941 63.9925 36.3867 63.8029 36.1972ZM52.5864 47.4137C52.3968 47.2241 52.0894 47.2241 51.8999 47.4137L47.4132 51.9003C47.2237 52.0899 47.2237 52.3972 47.4132 52.5868C47.6028 52.7764 47.9102 52.7764 48.0998 52.5868L52.5864 48.1002C52.7759 47.9106 52.7759 47.6033 52.5864 47.4137ZM41.3698 58.6302C41.1803 58.4407 40.8729 58.4407 40.6833 58.6302L36.1967 63.1168C36.0071 63.3064 36.0071 63.6138 36.1967 63.8033C36.3863 63.9929 36.6937 63.9929 36.8832 63.8033L41.3698 59.3167C41.5594 59.1272 41.5594 58.8198 41.3698 58.6302ZM30.1533 69.8468C29.9637 69.6572 29.6564 69.6572 29.4668 69.8468L24.9802 74.3334C24.7906 74.5229 24.7906 74.8303 24.9802 75.0199C25.1698 75.2095 25.4771 75.2095 25.6667 75.0199L30.1533 70.5333C30.3429 70.3437 30.3429 70.0363 30.1533 69.8468ZM18.9368 81.0633C18.7472 80.8737 18.4398 80.8737 18.2503 81.0633L13.7637 85.5499C13.5741 85.7395 13.5741 86.0468 13.7637 86.2364C13.9532 86.426 14.2606 86.426 14.4502 86.2364L18.9368 81.7498C19.1263 81.5602 19.1263 81.2529 18.9368 81.0633ZM7.72024 92.2798C7.53067 92.0902 7.22331 92.0902 7.03373 92.2798L4.79041 94.5231C4.60083 94.7127 4.60083 95.0201 4.79041 95.2097C4.97998 95.3992 5.28734 95.3992 5.47692 95.2097L7.72024 92.9663C7.90982 92.7768 7.90982 92.4694 7.72024 92.2798Z" fill="#27AAE1"/>
</svg>
