<svg width="40" height="40" viewBox="0 0 40 40" fill="none" xmlns="http://www.w3.org/2000/svg">
<path fill-rule="evenodd" clip-rule="evenodd" d="M5.98711 11.4416C6.69714 10.7315 7.84833 10.7315 8.55836 11.4416L19.4672 22.3506C20.1773 23.0606 20.1773 24.2118 19.4672 24.9218C18.7572 25.6319 17.606 25.6319 16.896 24.9218L5.98711 14.0129C5.27708 13.3028 5.27708 12.1516 5.98711 11.4416Z" fill="#999999"/>
<path fill-rule="evenodd" clip-rule="evenodd" d="M21.0086 5.7599C21.844 6.3169 22.0698 7.44574 21.5128 8.28124L17.8765 13.7357C17.8101 13.8354 17.734 13.9282 17.6494 14.0128L6.74049 24.9218C6.03046 25.6319 4.87927 25.6319 4.16924 24.9218C3.45921 24.2118 3.45921 23.0606 4.16924 22.3505L14.9508 11.5689L18.4872 6.26417C19.0442 5.42867 20.1731 5.2029 21.0086 5.7599Z" fill="#999999"/>
<path fill-rule="evenodd" clip-rule="evenodd" d="M0 7.27251C0 6.26837 0.814011 5.45435 1.81815 5.45435H23.6359C24.64 5.45435 25.454 6.26837 25.454 7.27251C25.454 8.27665 24.64 9.09067 23.6359 9.09067H1.81815C0.814011 9.09067 0 8.27665 0 7.27251Z" fill="#999999"/>
<path fill-rule="evenodd" clip-rule="evenodd" d="M9.09082 1.81816C9.09082 0.81402 9.90483 0 10.909 0H12.7271C13.7312 0 14.5453 0.81402 14.5453 1.81816C14.5453 2.82231 13.7312 3.63633 12.7271 3.63633H10.909C9.90483 3.63633 9.09082 2.82231 9.09082 1.81816Z" fill="#999999"/>
<path fill-rule="evenodd" clip-rule="evenodd" d="M29.0909 18.1815C29.7796 18.1815 30.4091 18.5706 30.7171 19.1866L39.8078 37.3682C40.2569 38.2663 39.8929 39.3585 38.9947 39.8075C38.0966 40.2566 37.0045 39.8926 36.5554 38.9944L29.0909 24.0652L21.6264 38.9944C21.1773 39.8926 20.0852 40.2566 19.1871 39.8075C18.289 39.3585 17.9249 38.2663 18.374 37.3682L27.4647 19.1866C27.7727 18.5706 28.4023 18.1815 29.0909 18.1815Z" fill="#999999"/>
<path fill-rule="evenodd" clip-rule="evenodd" d="M21.8174 30.9087C21.8174 29.9046 22.6314 29.0906 23.6355 29.0906H34.5444C35.5485 29.0906 36.3625 29.9046 36.3625 30.9087C36.3625 31.9129 35.5485 32.7269 34.5444 32.7269H23.6355C22.6314 32.7269 21.8174 31.9129 21.8174 30.9087Z" fill="#999999"/>
</svg>
