<svg width="965" height="916" viewBox="0 0 965 916" fill="none" xmlns="http://www.w3.org/2000/svg">
<g clip-path="url(#clip0_337_4713)">
<path d="M127.413 649.908C127.039 650.344 129.128 653.275 120.586 651.965C99.5425 648.817 62.9116 640.274 52.7173 618.638C38.1584 587.742 83.3002 599.028 81.7414 583.221C80.1827 567.415 28.8058 570.189 23.3501 546.994C17.8944 523.83 52.7484 534.866 53.2161 523.549C53.6837 512.263 13.5299 519.278 5.54903 494.274C-2.43185 469.271 27.9329 487.665 24.4413 477.283C20.9496 466.901 -13.0003 419.856 5.4555 414.4C23.9425 408.944 55.0866 457.205 67.0891 464.033C79.0916 470.861 89.7847 431.484 104.094 448.102C118.404 464.719 95.708 522.894 113.977 534.18C127.569 542.598 123.735 519.434 141.692 523.736C166.102 529.66 157.903 615.801 127.413 649.908Z" fill="#EBEBEB"/>
<path d="M62.4751 523.705C70.7365 524.391 76.8469 526.075 80.6503 527.446C73.2305 516.597 67.8996 511.016 67.7125 510.829C67.1202 510.206 67.1202 509.239 67.7437 508.616C68.3672 508.023 69.3336 508.023 69.9571 508.647C70.113 508.803 82.3961 521.46 95.8638 546.246C102.473 506.371 85.7942 471.547 85.6071 471.173C85.3266 470.58 85.576 469.894 86.1371 469.614C86.6983 469.333 87.4153 469.583 87.6959 470.144C87.8829 470.518 105.715 507.712 97.6096 549.551C99.7607 553.666 101.912 558.031 104.063 562.769C110.236 576.394 116.72 593.852 121.833 614.866C125.387 608.443 133.524 591.265 134.241 567.29C134.272 566.635 134.802 566.136 135.456 566.168C136.111 566.199 136.61 566.729 136.579 567.384C135.737 595.131 125.106 614.117 122.643 618.17C129.408 647.352 133.461 683.267 130.562 725.605C130.5 726.478 129.751 727.101 128.91 727.039C128.847 727.039 128.785 727.039 128.723 727.008C127.974 726.852 127.413 726.166 127.476 725.387C131.341 669.362 122.955 624.312 111.358 590.205C108.427 586.807 99.7295 578.077 86.48 576.019C85.8877 575.864 85.4201 575.334 85.5136 574.679C85.6071 574.055 86.1995 573.619 86.8541 573.712C97.329 575.365 104.998 580.789 109.55 584.998C101.008 561.304 91.0316 543.284 82.9572 530.969C80.3697 529.785 73.2617 527.041 62.288 526.106C61.6645 526.012 61.1657 525.482 61.2281 524.827C61.2592 524.11 61.8204 523.643 62.4751 523.705Z" fill="#F5F5F5"/>
<path d="M154.38 661.849C171.869 662.192 201.735 645.949 213.457 630.142C225.366 614.117 191.884 624.063 195.313 611.467C198.742 598.872 240.018 608.194 247.625 590.143C255.232 572.122 225.46 576.269 226.644 567.041C227.829 557.812 258.661 559.683 268.575 540.541C278.489 521.367 251.335 532.123 255.606 524.173C259.877 516.223 293.858 482.801 279.642 475.849C265.426 468.866 233.534 503.69 222.872 507.587C212.179 511.484 209.685 487.416 195.812 498.92C181.908 510.424 192.32 560.681 175.953 567.321C163.764 572.247 168.939 549.239 154.941 555.069C130.344 565.232 147.272 661.693 154.38 661.849Z" fill="#E0E0E0"/>
<g opacity="0.3">
<path opacity="0.3" d="M154.38 661.849C171.869 662.192 201.735 645.949 213.457 630.142C225.366 614.117 191.884 624.063 195.313 611.467C198.742 598.872 240.018 608.194 247.625 590.143C255.232 572.122 225.46 576.269 226.644 567.041C227.829 557.812 258.661 559.683 268.575 540.541C278.489 521.367 251.335 532.123 255.606 524.173C259.877 516.223 293.858 482.801 279.642 475.849C265.426 468.866 233.534 503.69 222.872 507.587C212.179 511.484 209.685 487.416 195.812 498.92C181.908 510.424 192.32 560.681 175.953 567.321C163.764 572.247 168.939 549.239 154.941 555.069C130.344 565.232 147.272 661.693 154.38 661.849Z" fill="#E0E0E0"/>
</g>
<path d="M160.147 640.867C159.898 640.773 159.68 640.618 159.524 640.368C159.118 639.589 149.548 621.039 151.668 593.51C151.73 592.855 152.26 592.387 152.915 592.45C153.569 592.512 154.037 593.073 153.974 593.697C152.166 616.954 159.118 633.977 161.051 638.248C168.876 616.986 178.26 598.093 187.675 581.912C184.589 544.375 203.824 513.635 204.011 513.323C204.354 512.793 205.071 512.606 205.632 512.949C206.162 513.292 206.349 514.009 206.006 514.571C205.819 514.851 188.143 543.128 189.795 578.296C212.21 540.759 234.064 518.966 234.5 518.53C235.124 517.938 236.09 517.938 236.714 518.561C237.306 519.185 237.306 520.151 236.683 520.775C236.308 521.149 220.752 536.675 202.577 563.923C213.239 559.964 224.805 557.906 235.623 558.093C236.277 558.093 236.776 558.623 236.776 559.278C236.776 559.901 236.246 560.431 235.591 560.431C235.591 560.431 235.591 560.431 235.56 560.431C223.994 560.213 211.524 562.645 200.301 567.29C194.035 576.893 187.55 587.867 181.284 599.994C187.301 595.941 198.96 590.298 213.893 594.258C214.517 594.414 214.891 595.069 214.735 595.692C214.579 596.316 213.925 596.69 213.301 596.534C194.346 591.546 181.003 602.863 178.821 604.858C161.675 639.37 146.898 683.018 144.934 733.025C144.902 733.867 144.217 734.521 143.375 734.521C143.344 734.521 143.344 734.521 143.313 734.521C142.44 734.49 141.785 733.773 141.816 732.9C143.188 699.042 150.358 668.084 160.147 640.867Z" fill="#F5F5F5"/>
<path d="M105.216 832.603C88.5375 801.208 77.5638 755.877 77.5638 736.017C77.5638 719.213 85.4512 704.155 97.9525 693.586H183.404C195.905 704.155 203.793 719.213 203.793 736.017C203.793 755.877 192.819 801.239 176.14 832.603H105.216Z" fill="#F0F0F0"/>
<path d="M761.332 17.8329H686.573C681.679 17.8329 677.221 21.4806 676.192 26.3442L675.693 28.6824C673.137 40.5607 662.257 49.446 650.317 49.446H579.237C567.266 49.446 557.975 40.5607 557.477 28.6824L557.383 26.3442C557.196 21.4806 553.361 17.8329 548.467 17.8329H473.708C448.768 17.8329 426.79 38.0354 424.607 62.9767L364.47 750.546C362.288 775.487 380.744 795.689 405.684 795.689H693.338C718.279 795.689 740.257 775.487 742.439 750.546L802.514 62.9767C804.697 38.0666 786.241 17.8329 761.332 17.8329Z" fill="#F06649"/>
<path opacity="0.7" d="M761.332 17.8329H686.573C681.679 17.8329 677.221 21.4806 676.192 26.3442L675.693 28.6824C673.137 40.5607 662.257 49.446 650.317 49.446H579.237C567.266 49.446 557.975 40.5607 557.477 28.6824L557.383 26.3442C557.196 21.4806 553.361 17.8329 548.467 17.8329H473.708C448.768 17.8329 426.79 38.0354 424.607 62.9767L364.47 750.546C362.288 775.487 380.744 795.689 405.684 795.689H693.338C718.279 795.689 740.257 775.487 742.439 750.546L802.514 62.9767C804.697 38.0666 786.241 17.8329 761.332 17.8329Z" fill="white"/>
<path d="M732.152 334.089H579.424C573.875 334.089 569.791 329.599 570.258 324.05L581.762 192.516C582.261 186.966 587.124 182.477 592.673 182.477H745.401C750.95 182.477 755.034 186.966 754.567 192.516L743.063 324.05C742.595 329.599 737.701 334.089 732.152 334.089Z" fill="white"/>
<path d="M681.305 745.371H425.699C411.95 745.371 401.756 734.209 402.972 720.46C404.188 706.712 416.315 695.55 430.063 695.55H685.67C699.418 695.55 709.612 706.712 708.396 720.46C707.18 734.209 695.053 745.371 681.305 745.371Z" fill="white"/>
<path d="M701.724 146.312H467.193C459.461 146.312 453.756 140.045 454.442 132.313L456.344 110.459C457.03 102.727 463.826 96.4603 471.557 96.4603H706.089C713.82 96.4603 719.526 102.727 718.84 110.459L716.938 132.313C716.252 140.045 709.456 146.312 701.724 146.312Z" fill="white"/>
<path d="M749.391 109.773C749.204 111.924 747.303 113.67 745.151 113.67C743 113.67 741.41 111.924 741.597 109.773C741.785 107.622 743.686 105.876 745.837 105.876C747.988 105.876 749.578 107.622 749.391 109.773Z" fill="white"/>
<path d="M748.394 121.402C748.207 123.553 746.305 125.299 744.154 125.299C742.003 125.299 740.413 123.553 740.6 121.402C740.787 119.25 742.689 117.505 744.84 117.505C746.991 117.505 748.581 119.25 748.394 121.402Z" fill="white"/>
<path d="M747.365 133.062C747.178 135.213 745.276 136.959 743.125 136.959C740.974 136.959 739.384 135.213 739.571 133.062C739.758 130.91 741.66 129.165 743.811 129.165C745.962 129.165 747.552 130.91 747.365 133.062Z" fill="white"/>
<path d="M713.166 551.078H427.819C422.269 551.078 418.185 546.588 418.653 541.039L431.778 390.923C432.277 385.374 437.14 380.884 442.689 380.884H728.037C733.586 380.884 737.67 385.374 737.202 390.923L724.077 541.039C723.61 546.588 718.715 551.078 713.166 551.078Z" fill="white"/>
<path d="M506.317 582.441H417.468C416.127 582.441 415.099 581.35 415.223 579.978C415.348 578.638 416.533 577.516 417.873 577.516H506.723C508.063 577.516 509.092 578.607 508.967 579.978C508.874 581.35 507.689 582.441 506.317 582.441Z" fill="white"/>
<path d="M617.364 582.441H521.999C520.658 582.441 519.629 581.35 519.754 579.978C519.879 578.638 521.064 577.516 522.404 577.516H617.769C619.11 577.516 620.139 578.607 620.014 579.978C619.92 581.35 618.736 582.441 617.364 582.441Z" fill="white"/>
<path d="M475.704 604.109H415.598C414.257 604.109 413.228 603.018 413.353 601.646C413.478 600.305 414.662 599.183 416.003 599.183H476.109C477.449 599.183 478.478 600.274 478.354 601.646C478.229 603.018 477.044 604.109 475.704 604.109Z" fill="white"/>
<path d="M589.805 604.109H491.354C490.013 604.109 488.984 603.018 489.109 601.646C489.234 600.305 490.419 599.183 491.759 599.183H590.211C591.551 599.183 592.58 600.274 592.455 601.646C592.362 603.018 591.146 604.109 589.805 604.109Z" fill="white"/>
<path d="M573.906 625.745H413.696C412.355 625.745 411.326 624.654 411.451 623.283C411.576 621.942 412.761 620.82 414.101 620.82H574.311C575.652 620.82 576.68 621.911 576.556 623.283C576.462 624.654 575.277 625.745 573.906 625.745Z" fill="white"/>
<path d="M600.155 625.745H589.587C588.246 625.745 587.217 624.654 587.342 623.283C587.467 621.942 588.651 620.82 590.023 620.82H600.592C601.932 620.82 602.961 621.911 602.836 623.283C602.711 624.654 601.527 625.745 600.155 625.745Z" fill="white"/>
<path d="M486.615 647.414H411.826C410.485 647.414 409.456 646.322 409.581 644.951C409.706 643.61 410.89 642.488 412.231 642.488H487.02C488.361 642.488 489.39 643.579 489.265 644.951C489.172 646.322 487.956 647.414 486.615 647.414Z" fill="white"/>
<path d="M595.416 647.414H502.296C500.955 647.414 499.927 646.322 500.051 644.951C500.176 643.61 501.361 642.488 502.701 642.488H595.822C597.162 642.488 598.191 643.579 598.066 644.951C597.973 646.322 596.757 647.414 595.416 647.414Z" fill="white"/>
<path d="M502.015 669.05H409.924C408.583 669.05 407.554 667.959 407.679 666.587C407.804 665.246 408.988 664.124 410.329 664.124H502.421C503.761 664.124 504.79 665.215 504.665 666.587C504.572 667.959 503.356 669.05 502.015 669.05Z" fill="white"/>
<path d="M591.894 669.05H517.697C516.356 669.05 515.327 667.959 515.452 666.587C515.577 665.246 516.762 664.124 518.102 664.124H592.299C593.64 664.124 594.669 665.215 594.544 666.587C594.419 667.959 593.234 669.05 591.894 669.05Z" fill="white"/>
<path d="M728.535 321.618C727.288 322.896 725.293 323.021 724.108 321.898L596.508 200.122C595.323 198.969 595.354 197.005 596.601 195.726C597.848 194.448 599.844 194.324 601.028 195.446L728.629 317.222C729.845 318.375 729.782 320.339 728.535 321.618Z" fill="#F06649"/>
<path d="M585.223 321.587C584.194 320.308 584.506 318.313 585.877 317.191L650.971 263.972C652.374 262.819 654.307 262.975 655.336 264.253C656.365 265.531 656.053 267.526 654.681 268.649L589.587 321.867C588.216 322.99 586.251 322.865 585.223 321.587Z" fill="#F06649"/>
<path d="M669.334 252.78C668.305 251.501 668.617 249.506 669.988 248.384L735.207 195.072C736.61 193.918 738.543 194.043 739.572 195.352C740.6 196.631 740.289 198.626 738.917 199.748L673.698 253.06C672.326 254.214 670.362 254.089 669.334 252.78Z" fill="#F06649"/>
<g opacity="0.7">
<path opacity="0.7" d="M728.535 321.618C727.288 322.896 725.293 323.021 724.108 321.898L596.508 200.122C595.323 198.969 595.354 197.005 596.601 195.726C597.848 194.448 599.844 194.324 601.028 195.446L728.629 317.222C729.845 318.375 729.782 320.339 728.535 321.618Z" fill="white"/>
</g>
<g opacity="0.7">
<path opacity="0.7" d="M585.223 321.587C584.194 320.308 584.506 318.313 585.877 317.191L650.971 263.972C652.374 262.819 654.307 262.975 655.336 264.253C656.365 265.531 656.053 267.526 654.681 268.649L589.587 321.867C588.216 322.99 586.251 322.865 585.223 321.587Z" fill="white"/>
</g>
<g opacity="0.7">
<path opacity="0.7" d="M669.334 252.78C668.305 251.501 668.617 249.506 669.988 248.384L735.207 195.072C736.61 193.918 738.543 194.043 739.572 195.352C740.6 196.631 740.289 198.626 738.917 199.748L673.698 253.06C672.326 254.214 670.362 254.089 669.334 252.78Z" fill="white"/>
</g>
<path d="M365.686 2.89926H325.314C317.115 2.89926 310.475 9.53988 310.475 17.7393V58.113C310.475 66.3125 317.115 72.9531 325.314 72.9531H365.686C373.885 72.9531 380.526 66.3125 380.526 58.113V17.7082C380.495 9.53988 373.854 2.89926 365.686 2.89926ZM345.485 17.2093C351.564 17.2093 354.868 22.1352 354.868 28.2458C354.868 34.3565 351.595 39.2824 345.485 39.2824C339.406 39.2824 336.101 34.3565 336.101 28.2458C336.101 22.1352 339.374 17.2093 345.485 17.2093ZM369.864 58.5807H321.106C320.7 58.5807 320.326 58.4248 320.077 58.1442L323.194 49.6018C325.221 44.1147 330.427 40.4671 336.288 40.4671H354.681C360.542 40.4671 365.749 44.1147 367.775 49.6018L370.893 58.1442C370.643 58.4248 370.269 58.5807 369.864 58.5807Z" fill="#F06649"/>
<path opacity="0.7" d="M365.686 2.89926H325.314C317.115 2.89926 310.475 9.53988 310.475 17.7393V58.113C310.475 66.3125 317.115 72.9531 325.314 72.9531H365.686C373.885 72.9531 380.526 66.3125 380.526 58.113V17.7082C380.495 9.53988 373.854 2.89926 365.686 2.89926ZM345.485 17.2093C351.564 17.2093 354.868 22.1352 354.868 28.2458C354.868 34.3565 351.595 39.2824 345.485 39.2824C339.406 39.2824 336.101 34.3565 336.101 28.2458C336.101 22.1352 339.374 17.2093 345.485 17.2093ZM369.864 58.5807H321.106C320.7 58.5807 320.326 58.4248 320.077 58.1442L323.194 49.6018C325.221 44.1147 330.427 40.4671 336.288 40.4671H354.681C360.542 40.4671 365.749 44.1147 367.775 49.6018L370.893 58.1442C370.643 58.4248 370.269 58.5807 369.864 58.5807Z" fill="white"/>
<path d="M221.999 168.977H191.323C180.287 168.977 171.339 177.925 171.339 188.961V219.639C171.339 230.676 180.287 239.623 191.323 239.623H221.999C233.035 239.623 241.983 230.676 241.983 219.639V188.93C241.983 177.925 233.035 168.977 221.999 168.977ZM206.661 221.042C206.661 221.042 194.066 207.324 194.066 200.372C194.066 193.42 199.709 187.777 206.661 187.777C213.613 187.777 219.256 193.42 219.256 200.372C219.256 207.324 206.661 221.042 206.661 221.042Z" fill="#F06649"/>
<path d="M206.661 194.604C203.481 194.604 200.925 197.192 200.925 200.372C200.925 203.552 203.512 206.14 206.661 206.14C209.841 206.14 212.428 203.552 212.428 200.372C212.428 197.192 209.841 194.604 206.661 194.604Z" fill="#F06649"/>
<g opacity="0.7">
<path opacity="0.7" d="M221.999 168.977H191.323C180.287 168.977 171.339 177.925 171.339 188.961V219.639C171.339 230.676 180.287 239.623 191.323 239.623H221.999C233.035 239.623 241.983 230.676 241.983 219.639V188.93C241.983 177.925 233.035 168.977 221.999 168.977ZM206.661 221.042C206.661 221.042 194.066 207.324 194.066 200.372C194.066 193.42 199.709 187.777 206.661 187.777C213.613 187.777 219.256 193.42 219.256 200.372C219.256 207.324 206.661 221.042 206.661 221.042Z" fill="white"/>
<path opacity="0.7" d="M206.661 194.604C203.481 194.604 200.925 197.192 200.925 200.372C200.925 203.552 203.512 206.14 206.661 206.14C209.841 206.14 212.428 203.552 212.428 200.372C212.428 197.192 209.841 194.604 206.661 194.604Z" fill="white"/>
</g>
<path d="M895.51 82.0569L916.055 68.7445L895.51 55.4321V82.0569Z" fill="#F06649"/>
<path d="M921.978 32.4858H882.822C873.594 32.4858 866.143 39.9682 866.143 49.1653V88.3232C866.143 97.5514 873.625 105.003 882.822 105.003H921.978C931.206 105.003 938.657 97.5203 938.657 88.3232V49.1653C938.688 39.9371 931.206 32.4858 921.978 32.4858ZM902.431 94.8079C888.028 94.8079 876.369 83.1167 876.369 68.7442C876.369 54.3406 888.028 42.6806 902.431 42.6806C916.834 42.6806 928.494 54.3718 928.494 68.7442C928.494 83.1478 916.834 94.8079 902.431 94.8079Z" fill="#F06649"/>
<g opacity="0.7">
<path opacity="0.7" d="M895.51 82.0569L916.055 68.7445L895.51 55.4321V82.0569Z" fill="white"/>
<path opacity="0.7" d="M921.978 32.4858H882.822C873.594 32.4858 866.143 39.9682 866.143 49.1653V88.3232C866.143 97.5514 873.625 105.003 882.822 105.003H921.978C931.206 105.003 938.657 97.5203 938.657 88.3232V49.1653C938.688 39.9371 931.206 32.4858 921.978 32.4858ZM902.431 94.8079C888.028 94.8079 876.369 83.1167 876.369 68.7442C876.369 54.3406 888.028 42.6806 902.431 42.6806C916.834 42.6806 928.494 54.3718 928.494 68.7442C928.494 83.1478 916.834 94.8079 902.431 94.8079Z" fill="white"/>
</g>
<path d="M960.417 182.664C960.417 181.853 960.386 181.042 960.292 180.263L965 177.644C964.657 175.368 964.065 173.186 963.254 171.128L957.892 171.222C957.206 169.756 956.395 168.385 955.491 167.075L958.266 162.461C956.832 160.715 955.242 159.094 953.496 157.691L948.882 160.466C947.573 159.562 946.201 158.751 944.736 158.065L944.829 152.703C942.741 151.892 940.558 151.3 938.314 150.957L935.695 155.665C934.916 155.602 934.105 155.54 933.295 155.54C932.484 155.54 931.673 155.571 930.894 155.665L928.275 150.957C926 151.3 923.817 151.892 921.76 152.703L921.853 158.065C920.388 158.751 919.016 159.562 917.707 160.466L913.093 157.691C911.347 159.125 909.726 160.715 908.323 162.461L911.098 167.075C910.194 168.385 909.383 169.756 908.697 171.222L903.335 171.128C902.525 173.217 901.932 175.399 901.589 177.644L906.297 180.263C906.234 181.042 906.172 181.853 906.172 182.664C906.172 183.474 906.203 184.285 906.297 185.064L901.589 187.683C901.932 189.959 902.525 192.141 903.335 194.199L908.697 194.105C909.383 195.571 910.194 196.942 911.098 198.252L908.323 202.866C909.757 204.612 911.347 206.233 913.093 207.636L917.707 204.861C919.016 205.765 920.388 206.576 921.853 207.262L921.76 212.624C923.848 213.435 926.031 214.027 928.275 214.37L930.894 209.663C931.673 209.725 932.484 209.787 933.295 209.787C934.105 209.787 934.916 209.756 935.695 209.663L938.314 214.37C940.59 214.027 942.772 213.435 944.829 212.624L944.736 207.262C946.201 206.576 947.573 205.765 948.882 204.861L953.496 207.636C955.242 206.202 956.863 204.612 958.266 202.866L955.491 198.252C956.395 196.942 957.206 195.571 957.892 194.105L963.254 194.199C964.065 192.11 964.657 189.928 965 187.683L960.292 185.064C960.386 184.285 960.417 183.474 960.417 182.664ZM933.263 201.12C923.069 201.12 914.808 192.858 914.808 182.664C914.808 172.469 923.069 164.207 933.263 164.207C943.458 164.207 951.719 172.469 951.719 182.664C951.688 192.858 943.426 201.12 933.263 201.12Z" fill="#F06649"/>
<path opacity="0.7" d="M960.417 182.664C960.417 181.853 960.386 181.042 960.292 180.263L965 177.644C964.657 175.368 964.065 173.186 963.254 171.128L957.892 171.222C957.206 169.756 956.395 168.385 955.491 167.075L958.266 162.461C956.832 160.715 955.242 159.094 953.496 157.691L948.882 160.466C947.573 159.562 946.201 158.751 944.736 158.065L944.829 152.703C942.741 151.892 940.558 151.3 938.314 150.957L935.695 155.665C934.916 155.602 934.105 155.54 933.295 155.54C932.484 155.54 931.673 155.571 930.894 155.665L928.275 150.957C926 151.3 923.817 151.892 921.76 152.703L921.853 158.065C920.388 158.751 919.016 159.562 917.707 160.466L913.093 157.691C911.347 159.125 909.726 160.715 908.323 162.461L911.098 167.075C910.194 168.385 909.383 169.756 908.697 171.222L903.335 171.128C902.525 173.217 901.932 175.399 901.589 177.644L906.297 180.263C906.234 181.042 906.172 181.853 906.172 182.664C906.172 183.474 906.203 184.285 906.297 185.064L901.589 187.683C901.932 189.959 902.525 192.141 903.335 194.199L908.697 194.105C909.383 195.571 910.194 196.942 911.098 198.252L908.323 202.866C909.757 204.612 911.347 206.233 913.093 207.636L917.707 204.861C919.016 205.765 920.388 206.576 921.853 207.262L921.76 212.624C923.848 213.435 926.031 214.027 928.275 214.37L930.894 209.663C931.673 209.725 932.484 209.787 933.295 209.787C934.105 209.787 934.916 209.756 935.695 209.663L938.314 214.37C940.59 214.027 942.772 213.435 944.829 212.624L944.736 207.262C946.201 206.576 947.573 205.765 948.882 204.861L953.496 207.636C955.242 206.202 956.863 204.612 958.266 202.866L955.491 198.252C956.395 196.942 957.206 195.571 957.892 194.105L963.254 194.199C964.065 192.11 964.657 189.928 965 187.683L960.292 185.064C960.386 184.285 960.417 183.474 960.417 182.664ZM933.263 201.12C923.069 201.12 914.808 192.858 914.808 182.664C914.808 172.469 923.069 164.207 933.263 164.207C943.458 164.207 951.719 172.469 951.719 182.664C951.688 192.858 943.426 201.12 933.263 201.12Z" fill="white"/>
<path d="M889.4 275.352C889.4 274.136 889.337 272.951 889.244 271.767L896.29 267.87C895.76 264.471 894.856 261.229 893.671 258.111L885.628 258.236C884.599 256.054 883.414 253.965 882.042 252.032L886.189 245.142C884.069 242.523 881.668 240.122 879.05 238.002L872.16 242.149C870.196 240.777 868.138 239.561 865.956 238.564L866.081 230.52C862.963 229.335 859.69 228.431 856.323 227.901L852.426 234.947C851.241 234.854 850.057 234.791 848.841 234.791C847.625 234.791 846.44 234.854 845.256 234.947L841.359 227.901C837.961 228.431 834.718 229.335 831.601 230.52L831.726 238.564C829.543 239.592 827.455 240.777 825.522 242.149L818.632 238.002C816.013 240.122 813.613 242.523 811.493 245.142L815.639 252.032C814.267 253.996 813.052 256.054 812.054 258.236L804.011 258.111C802.826 261.229 801.922 264.503 801.392 267.87L808.438 271.767C808.344 272.951 808.282 274.136 808.282 275.352C808.282 276.568 808.344 277.753 808.438 278.937L801.392 282.834C801.922 286.233 802.826 289.475 804.011 292.593L812.054 292.468C813.083 294.65 814.267 296.739 815.639 298.672L811.493 305.562C813.613 308.181 816.013 310.582 818.632 312.702L825.522 308.555C827.486 309.927 829.543 311.143 831.726 312.14L831.601 320.184C834.718 321.369 837.992 322.273 841.359 322.803L845.256 315.757C846.44 315.85 847.625 315.913 848.841 315.913C850.057 315.913 851.241 315.85 852.426 315.757L856.323 322.803C859.721 322.273 862.963 321.369 866.081 320.184L865.956 312.14C868.138 311.112 870.227 309.927 872.16 308.555L879.05 312.702C881.668 310.582 884.069 308.181 886.189 305.562L882.042 298.672C883.414 296.708 884.63 294.65 885.628 292.468L893.671 292.593C894.856 289.475 895.76 286.233 896.29 282.834L889.244 278.937C889.337 277.753 889.4 276.568 889.4 275.352ZM848.747 291.377C839.894 291.377 832.723 284.206 832.723 275.352C832.723 266.498 839.894 259.327 848.747 259.327C857.601 259.327 864.771 266.498 864.771 275.352C864.771 284.206 857.601 291.377 848.747 291.377Z" fill="#F06649"/>
<path opacity="0.7" d="M889.4 275.352C889.4 274.136 889.337 272.951 889.244 271.767L896.29 267.87C895.76 264.471 894.856 261.229 893.671 258.111L885.628 258.236C884.599 256.054 883.414 253.965 882.042 252.032L886.189 245.142C884.069 242.523 881.668 240.122 879.05 238.002L872.16 242.149C870.196 240.777 868.138 239.561 865.956 238.564L866.081 230.52C862.963 229.335 859.69 228.431 856.323 227.901L852.426 234.947C851.241 234.854 850.057 234.791 848.841 234.791C847.625 234.791 846.44 234.854 845.256 234.947L841.359 227.901C837.961 228.431 834.718 229.335 831.601 230.52L831.726 238.564C829.543 239.592 827.455 240.777 825.522 242.149L818.632 238.002C816.013 240.122 813.613 242.523 811.493 245.142L815.639 252.032C814.267 253.996 813.052 256.054 812.054 258.236L804.011 258.111C802.826 261.229 801.922 264.503 801.392 267.87L808.438 271.767C808.344 272.951 808.282 274.136 808.282 275.352C808.282 276.568 808.344 277.753 808.438 278.937L801.392 282.834C801.922 286.233 802.826 289.475 804.011 292.593L812.054 292.468C813.083 294.65 814.267 296.739 815.639 298.672L811.493 305.562C813.613 308.181 816.013 310.582 818.632 312.702L825.522 308.555C827.486 309.927 829.543 311.143 831.726 312.14L831.601 320.184C834.718 321.369 837.992 322.273 841.359 322.803L845.256 315.757C846.44 315.85 847.625 315.913 848.841 315.913C850.057 315.913 851.241 315.85 852.426 315.757L856.323 322.803C859.721 322.273 862.963 321.369 866.081 320.184L865.956 312.14C868.138 311.112 870.227 309.927 872.16 308.555L879.05 312.702C881.668 310.582 884.069 308.181 886.189 305.562L882.042 298.672C883.414 296.708 884.63 294.65 885.628 292.468L893.671 292.593C894.856 289.475 895.76 286.233 896.29 282.834L889.244 278.937C889.337 277.753 889.4 276.568 889.4 275.352ZM848.747 291.377C839.894 291.377 832.723 284.206 832.723 275.352C832.723 266.498 839.894 259.327 848.747 259.327C857.601 259.327 864.771 266.498 864.771 275.352C864.771 284.206 857.601 291.377 848.747 291.377Z" fill="white"/>
<path d="M774.768 94.5898V110.926L759.212 119.126C756.531 120.56 756.531 124.395 759.212 125.829L774.768 134.028V150.365C774.768 154.012 777.73 156.974 781.378 156.974H837.15C840.798 156.974 843.759 154.012 843.759 150.365V94.5898C843.759 90.9421 840.798 87.9803 837.15 87.9803H781.378C777.73 88.0115 774.768 90.9421 774.768 94.5898Z" fill="#F06649"/>
<g opacity="0.9">
<path opacity="0.9" d="M793.972 111.612C795.25 111.612 824.368 111.612 825.646 111.612C827.797 111.612 829.543 109.866 829.543 107.715C829.543 105.564 827.797 103.818 825.646 103.818C824.056 103.818 795.531 103.818 793.972 103.818C791.821 103.818 790.075 105.564 790.075 107.715C790.075 109.866 791.821 111.612 793.972 111.612Z" fill="white"/>
<path opacity="0.9" d="M825.646 118.596C824.212 118.596 795.406 118.596 793.972 118.596C791.821 118.596 790.075 120.342 790.075 122.493C790.075 124.644 791.821 126.39 793.972 126.39C795.406 126.39 824.212 126.39 825.646 126.39C827.797 126.39 829.543 124.644 829.543 122.493C829.543 120.342 827.797 118.596 825.646 118.596Z" fill="white"/>
<path opacity="0.9" d="M825.646 133.342C823.994 133.342 795.624 133.342 793.972 133.342C791.821 133.342 790.075 135.088 790.075 137.24C790.075 139.391 791.821 141.137 793.972 141.137C795.157 141.137 824.462 141.137 825.646 141.137C827.797 141.137 829.543 139.391 829.543 137.24C829.543 135.088 827.797 133.342 825.646 133.342Z" fill="white"/>
</g>
<path d="M459.68 68.9627H472.992L479.85 81.9633C481.846 85.7357 487.239 85.7357 489.203 81.9633L496.061 68.9627H509.373C514.673 68.9627 518.975 64.6603 518.975 59.3603V9.6024C518.975 4.30237 514.673 0 509.373 0H459.649C454.349 0 450.047 4.30237 450.047 9.6024V59.3291C450.078 64.6603 454.38 68.9627 459.68 68.9627Z" fill="#F06649"/>
<path opacity="0.9" d="M484.589 14.8713L469.219 23.8501V50.1008H480.661V32.4861H488.517V50.1008H499.958V23.8501L484.589 14.8713Z" fill="white"/>
<path d="M609.009 782.127H597.007L589.338 767.599C587.685 764.482 583.196 764.482 581.544 767.599L573.875 782.127H561.872C555.824 782.127 550.93 787.022 550.93 793.071V840.147C550.93 846.195 555.824 851.09 561.872 851.09H608.947C614.995 851.09 619.889 846.195 619.889 840.147V793.071C619.952 787.022 615.057 782.127 609.009 782.127Z" fill="#F06649"/>
<path opacity="0.9" d="M592.144 800.116C585.503 793.476 574.685 793.476 568.076 800.116C561.436 806.757 561.436 817.544 568.076 824.185C573.968 830.077 583.134 830.732 589.743 826.18C589.868 826.928 590.211 827.677 590.803 828.269L601.371 838.838C602.868 840.334 605.268 840.334 606.765 838.838C608.261 837.341 608.261 834.941 606.765 833.444L596.196 822.875C595.604 822.283 594.887 821.94 594.108 821.815C598.69 815.144 598.036 806.009 592.144 800.116ZM588.527 820.599C583.882 825.245 576.306 825.245 571.661 820.599C567.016 815.954 567.016 808.378 571.661 803.702C576.306 799.056 583.882 799.056 588.558 803.702C593.203 808.347 593.203 815.923 588.527 820.599Z" fill="white"/>
<path d="M290.023 196.101C291.27 210.785 288.122 237.379 277.023 245.89C295.105 252.406 314.215 263.63 326.467 278.439C338.595 260.793 324.784 250.723 324.784 250.723C309.165 245.173 310.88 233.357 314.87 222.477L290.023 196.101Z" fill="#B97964"/>
<path d="M349.007 183.443C348.82 185.283 349.693 186.873 350.909 186.997C352.125 187.122 353.247 185.688 353.403 183.849C353.59 182.009 352.717 180.388 351.501 180.294C350.317 180.17 349.226 181.604 349.007 183.443Z" fill="#242424"/>
<path d="M351.033 180.357L355.585 179.484C355.585 179.484 352.998 182.82 351.033 180.357Z" fill="#242424"/>
<path d="M349.63 185.407C350.909 189.772 352.748 193.95 355.148 197.847C353.122 199.031 350.659 199.281 348.446 198.47L349.63 185.407Z" fill="#A24E3F"/>
<path d="M354.245 173.747C354.525 173.716 354.806 173.591 354.993 173.373C355.367 172.906 355.336 172.22 354.868 171.814C352.281 169.445 348.696 168.479 345.235 169.258C344.705 169.57 344.549 170.256 344.861 170.754C345.048 171.097 345.422 171.284 345.796 171.284C348.54 170.754 351.346 171.534 353.403 173.436C353.652 173.623 353.933 173.747 354.245 173.747Z" fill="#242424"/>
<path d="M288.465 171.752C287.748 194.573 286.968 204.269 297.131 216.958C312.438 236.07 340.153 231.892 347.542 209.694C354.213 189.71 354.276 155.696 333.326 144.629C312.345 133.592 289.182 148.869 288.465 171.752Z" fill="#B97964"/>
<path d="M289.556 214.776C267.141 210.941 273.563 196.818 273.563 196.818C251.491 192.36 268.544 181.573 268.544 181.573C250.182 173.654 268.544 166.577 268.544 166.577C250.836 151.893 276.213 146.904 276.213 146.904C269.947 123.99 291.707 133.405 291.707 133.405C303.585 113.732 313.779 132.532 313.779 132.532C334.542 104.317 339.623 128.136 339.623 128.136C360.823 122.555 352.686 144.878 352.686 144.878C370.144 149.554 356.458 158.409 356.458 158.409C363.192 166.92 338.844 168.385 338.844 168.385C338.844 168.385 350.441 186.966 338.751 192.235L309.259 214.838C309.196 214.776 295.666 209.133 289.556 214.776Z" fill="#242424"/>
<path d="M311.566 196.382C311.566 196.382 326.997 159.063 314.964 127.045L325.252 123.522C325.283 123.522 338.719 169.944 311.566 196.382Z" fill="#F06649"/>
<path d="M327.122 192.298C329.71 197.66 330.676 199.967 334.355 201.775C337.597 203.584 341.681 202.43 343.489 199.219C344.331 197.754 344.549 196.008 344.175 194.355C343.209 188.993 339.062 181.105 333.388 180.918C327.652 180.731 324.441 186.966 327.122 192.298Z" fill="#B97964"/>
<path d="M311.035 270.146C311.035 270.146 332.141 285.64 340.714 291.876L401.787 263.069C401.631 256.147 405.715 249.818 412.106 247.106L416.439 245.267L425.636 241.183C429.127 239.624 433.18 240.06 436.267 242.305C439.914 244.955 441.504 249.631 440.226 253.965C437.607 262.881 430.499 269.771 421.521 272.11L412.604 274.448C412.604 274.448 360.23 314.198 341.587 315.227C322.944 316.256 295.479 297.799 295.479 297.799L311.035 270.146Z" fill="#B97964"/>
<path d="M260.251 243.864C276.369 243.801 294.388 253.902 322.757 272.297C322.757 272.297 317.395 292.468 300.904 306.84C300.904 306.84 285.347 302.663 264.647 283.146C239.582 259.577 250.368 243.895 260.251 243.864Z" fill="#242424"/>
<path d="M566.424 290.566H413.696C408.147 290.566 404.063 286.077 404.53 280.527L416.034 148.993C416.533 143.444 421.396 138.954 426.946 138.954H579.673C585.222 138.954 589.306 143.444 588.839 148.993L577.335 280.527C576.836 286.077 571.942 290.566 566.424 290.566Z" fill="#F06649"/>
<path opacity="0.4" d="M566.424 290.566H413.696C408.147 290.566 404.063 286.077 404.53 280.527L416.034 148.993C416.533 143.444 421.396 138.954 426.946 138.954H579.673C585.222 138.954 589.306 143.444 588.839 148.993L577.335 280.527C576.836 286.077 571.942 290.566 566.424 290.566Z" fill="white"/>
<path opacity="0.7" d="M566.954 284.331C569.043 284.331 570.913 282.616 571.1 280.527L582.604 148.993C582.791 146.904 581.232 145.19 579.143 145.19H426.416C424.327 145.19 422.456 146.904 422.269 148.993L410.766 280.527C410.579 282.616 412.137 284.331 414.226 284.331H566.954Z" fill="white"/>
<path d="M460.802 207.013L410.859 279.249L410.734 280.559C410.547 282.647 412.106 284.362 414.195 284.362H500.737L460.802 207.013Z" fill="#F06649"/>
<path opacity="0.3" d="M460.802 207.013L410.859 279.249L410.734 280.559C410.547 282.647 412.106 284.362 414.195 284.362H500.737L460.802 207.013Z" fill="white"/>
<path d="M571.537 275.508L529.699 196.101L467.785 284.331H566.954C569.043 284.331 570.913 282.616 571.1 280.527L571.537 275.508Z" fill="#F06649"/>
<path d="M513.582 182.072C512.896 189.835 506.068 196.101 498.306 196.101C490.543 196.101 484.807 189.804 485.493 182.072C486.179 174.309 493.006 168.042 500.769 168.042C508.5 168.011 514.236 174.309 513.582 182.072Z" fill="#F06649"/>
<path opacity="0.4" d="M513.582 182.072C512.896 189.835 506.068 196.101 498.306 196.101C490.543 196.101 484.807 189.804 485.493 182.072C486.179 174.309 493.006 168.042 500.769 168.042C508.5 168.011 514.236 174.309 513.582 182.072Z" fill="white"/>
<path d="M132.339 821.348L116.814 867.365L140.6 877.092L159.212 834.629L132.339 821.348Z" fill="#B97964"/>
<path d="M149.143 875.939C148.893 875.814 148.768 875.534 148.768 875.253C148.8 874.972 149.018 874.723 149.298 874.661C149.797 874.536 161.02 872.042 165.198 874.723C165.977 875.222 166.538 875.97 166.757 876.874C167.1 877.903 166.788 879.025 165.946 879.711C164.356 880.834 160.646 880.366 157.248 879.306C154.474 878.402 151.761 877.279 149.143 875.939ZM151.512 875.721C156.406 877.934 163.327 880.023 165.135 878.62C165.385 878.464 165.665 878.121 165.447 877.155C165.323 876.594 164.98 876.126 164.45 875.845C164.076 875.596 163.67 875.409 163.265 875.315C159.368 874.692 155.378 874.848 151.512 875.721Z" fill="#F06649"/>
<path d="M148.83 875.783C148.675 875.596 148.643 875.346 148.706 875.097C148.862 874.754 151.854 867.614 156.219 865.806C157.497 865.276 158.9 865.276 160.178 865.806C161.924 866.523 162.173 867.614 162.018 868.363C161.644 871.636 153.226 875.533 149.516 875.97C149.423 876.001 149.329 875.97 149.236 875.908C149.08 875.97 148.924 875.907 148.83 875.783ZM159.368 866.929C158.557 866.679 157.653 866.71 156.874 867.053C154.099 868.768 151.917 871.324 150.639 874.317C154.66 873.351 160.396 870.046 160.802 868.144C160.802 867.957 160.864 867.459 159.742 867.022L159.368 866.929Z" fill="#F06649"/>
<path d="M147.552 871.231L117.686 862.003C116.564 861.66 115.348 862.127 114.756 863.156L101.849 885.791C100.696 887.786 101.382 890.342 103.377 891.496C103.626 891.652 103.907 891.777 104.188 891.87C115.005 895.019 124.763 897.388 138.169 901.535C154.006 906.43 149.392 907.084 167.91 913.101C179.071 916.718 185.056 904.59 180.505 902.501C159.586 893.055 159.368 885.791 153.382 875.409C152.01 873.351 149.922 871.855 147.552 871.231Z" fill="#242424"/>
<path opacity="0.2" d="M124.888 843.421L149.828 856.017L159.212 834.629L132.339 821.348L124.888 843.421Z" fill="#242424"/>
<path d="M237.805 395.725C237.805 395.725 204.291 421.321 211.461 501.507C212.116 508.927 214.517 516.69 214.548 525.17C214.579 530.813 212.989 534.773 211.15 547.43C208.469 565.918 203.543 634.725 198.337 643.673C193.193 652.527 191.01 651.062 176.389 675.722C160.646 702.285 140.538 748.863 124.888 827.833C124.888 827.833 138.511 838.464 159.898 842.486C159.898 842.486 245.536 707.429 263.742 657.141C280.047 612.153 299.438 468.585 299.438 468.585L300.997 406.325L237.805 395.725Z" fill="#F06649"/>
<path opacity="0.1" d="M274.467 501.507H250.181C250.181 501.507 242.201 577.828 268.575 641.49C271.318 631.264 274.124 619.012 276.836 605.762L287.311 538.545C285.815 527.197 284.661 518.53 284.474 517.968C283.944 516.191 274.467 501.507 274.467 501.507Z" fill="black"/>
<path d="M270.446 839.867L270.601 888.783L298.223 886.944L302.431 839.867H270.446Z" fill="#B97964"/>
<path d="M301.402 886.133C301.122 886.071 300.904 885.884 300.841 885.603C300.779 885.322 300.904 885.042 301.153 884.886C301.59 884.605 311.379 878.557 316.18 879.711C317.084 879.898 317.863 880.459 318.362 881.207C319.048 882.049 319.11 883.234 318.518 884.169C317.395 885.728 313.748 886.538 310.163 886.663C307.232 886.694 304.302 886.538 301.402 886.133ZM303.554 885.135C308.916 885.603 316.117 885.291 317.395 883.39C317.582 883.14 317.738 882.735 317.208 881.924C316.928 881.425 316.398 881.114 315.837 881.02C315.4 880.927 314.964 880.864 314.527 880.895C310.63 881.581 306.921 883.047 303.554 885.135Z" fill="#F06649"/>
<path d="M301.029 886.102C300.81 885.977 300.686 885.759 300.717 885.509C300.748 885.135 301.216 877.403 304.77 874.286C305.798 873.35 307.139 872.883 308.511 873.008C310.381 873.132 311.005 874.036 311.098 874.816C311.815 878.027 305.175 884.481 301.808 886.102C301.714 886.164 301.621 886.164 301.527 886.133C301.34 886.164 301.184 886.164 301.029 886.102ZM308.074 874.255C307.201 874.286 306.391 874.598 305.767 875.19C303.71 877.746 302.494 880.833 302.276 884.106C305.736 881.893 310.101 876.873 309.851 874.941C309.789 874.753 309.695 874.286 308.479 874.223L308.074 874.255Z" fill="#F06649"/>
<path d="M298.316 882.205L267.079 883.327C265.894 883.358 264.896 884.231 264.678 885.385L259.939 911.012C259.503 913.288 260.999 915.47 263.244 915.907C263.525 915.969 263.836 916 264.117 915.969C275.371 915.377 285.379 914.41 299.407 913.911C315.961 913.319 311.815 915.47 331.3 915.034C343.022 914.784 344.705 901.378 339.717 900.879C316.866 898.822 314.247 892.056 305.175 884.2C303.242 882.735 300.779 882.018 298.316 882.205Z" fill="#242424"/>
<path opacity="0.2" d="M270.539 865.182L300.218 864.559L302.431 839.867H270.446L270.539 865.182Z" fill="#242424"/>
<path d="M256.448 386.746C256.448 386.746 222.997 431.048 247.781 517.781L275.745 644.296C275.745 644.296 249.122 701.848 263.182 853.678C263.182 853.678 284.318 857.076 304.489 852.743C304.489 852.743 335.633 692.401 340.372 638.217C345.578 578.576 342.46 398.687 342.46 398.687L256.448 386.746Z" fill="#F06649"/>
<path d="M276.649 243.24C276.649 243.24 271.474 221.105 304.676 230.769C337.909 240.465 335.134 259.389 335.134 259.389L276.649 243.24Z" fill="#242424"/>
<path opacity="0.4" d="M276.649 243.24C276.649 243.24 271.474 221.105 304.676 230.769C337.909 240.465 335.134 259.389 335.134 259.389L276.649 243.24Z" fill="black"/>
<path d="M359.077 298.61C359.077 306.373 355.803 317.596 352.873 330.161C351.439 336.115 350.129 342.319 349.257 348.617C344.549 382.943 343.022 419.045 343.022 419.045C343.022 419.045 288.714 434.29 235.966 397.814C235.966 397.814 249.028 386.746 246.347 310.083C245.131 275.539 232.661 234.48 289.743 240.933C337.94 246.389 354.151 261.354 358.048 284.767C358.079 285.048 358.142 285.36 358.204 285.672C358.297 286.389 358.391 287.106 358.484 287.854C358.89 291.252 359.077 294.869 359.077 298.61Z" fill="#242424"/>
<path opacity="0.4" d="M359.077 298.61C359.077 306.373 355.803 317.596 352.873 330.161C339.841 314.479 326.779 285.11 326.779 285.11L337.534 269.273L356.489 278.096C357.144 280.247 357.642 282.46 358.048 284.767C358.079 285.048 358.141 285.36 358.204 285.672C358.297 286.389 358.391 287.106 358.484 287.854C358.889 291.252 359.077 294.869 359.077 298.61Z" fill="black"/>
<path d="M378.78 285.079C378.78 285.079 397.329 303.536 404.873 310.987L469.531 291.595C470.404 284.705 475.392 279.062 482.095 277.347L486.677 276.194L496.404 273.513C500.083 272.484 504.042 273.513 506.754 276.194C509.965 279.374 510.838 284.206 508.936 288.322C505.008 296.739 496.965 302.507 487.737 303.505L478.572 304.502C478.572 304.502 420.835 336.022 402.255 334.276C383.674 332.53 359.264 310.176 359.264 310.176L378.78 285.079Z" fill="#B97964"/>
<path d="M332.484 251.502C348.446 253.84 364.751 266.529 390.065 288.914C390.065 288.914 381.772 308.056 363.317 319.841C363.317 319.841 348.539 313.387 330.988 291.034C309.695 263.972 322.726 250.068 332.484 251.502Z" fill="#242424"/>
</g>
<defs>
<clipPath id="clip0_337_4713">
<rect width="965" height="916" fill="white"/>
</clipPath>
</defs>
</svg>
