<svg width="581" height="625" viewBox="0 0 581 625" fill="none" xmlns="http://www.w3.org/2000/svg">
<path d="M288.638 291.963C390.965 310.855 402.847 251.83 434.863 213.91C466.878 175.99 551.279 174.526 555.624 244.545C560.004 314.565 562.177 366.373 578.167 440.75C594.158 515.126 539.803 529.185 481.578 549.438C423.353 569.692 414.832 566.22 381.357 577.521C347.882 588.822 289.317 640.256 229.666 620.547C170.016 600.838 133.655 582.014 116.17 528.266C84.5284 430.878 17.2387 435.984 4.13384 399.528C-14.4031 347.89 33.6028 278.449 64.8711 251.456C96.1395 224.462 126.355 211.697 173.988 221.909C221.722 232.155 261.003 286.857 288.638 291.963Z" fill="#F3F3F3"/>
<path d="M372.307 483H207.693C188.532 483 173 467.505 173 448.389V140.611C173 121.495 188.532 106 207.693 106H372.307C391.468 106 407 121.495 407 140.611V448.355C407 467.505 391.468 483 372.307 483Z" fill="white" stroke="#FF5353" stroke-miterlimit="10"/>
<path d="M381 161H200V442H381V161Z" fill="#FFE6E0" stroke="#FF5353" stroke-miterlimit="10"/>
<path d="M314.232 140H265.768C262.594 140 260 137.527 260 134.5C260 131.473 262.594 129 265.768 129H314.232C317.406 129 320 131.473 320 134.5C320 137.559 317.406 140 314.232 140Z" fill="#F06649"/>
<path d="M515.97 117.673L504.855 113.663L513.45 105.863L515.97 117.673Z" stroke="#F29545" stroke-width="3"/>
<path d="M499 17.9634C496.759 17.4424 494.62 16.713 492.514 15.8446C491.835 17.1298 490.511 17.9634 488.983 17.9634C488.643 17.9634 488.304 17.9287 487.998 17.8592C487.183 19.596 486.233 21.3327 485.18 23C485.554 21.0201 486.097 19.1444 486.742 17.2687C485.689 16.5046 484.976 15.2541 484.976 13.83C484.976 13.4132 485.044 12.9963 485.146 12.6143C483.041 11.5722 480.969 10.3912 479 9.03656C481.377 9.59232 483.652 10.3912 485.859 11.2943C486.572 10.3218 487.727 9.73126 488.983 9.73126C489.221 9.73126 489.458 9.766 489.696 9.80073C490.579 7.82084 491.598 5.87569 492.82 4C492.379 6.1883 491.767 8.2724 491.054 10.3218C492.243 11.0165 493.024 12.3364 493.024 13.83C493.024 14.0384 493.024 14.2468 492.956 14.4552C495.027 15.4625 497.065 16.6088 499 17.9634Z" fill="#A1E2C4"/>
<path d="M399.5 35C408.06 35 415 28.0604 415 19.5C415 10.9396 408.06 4 399.5 4C390.94 4 384 10.9396 384 19.5C384 28.0604 390.94 35 399.5 35Z" stroke="#FFA35A" stroke-width="3" stroke-miterlimit="10"/>
<path d="M284 26C288.477 25.4196 293.488 12.797 298.333 9.09731C303.177 5.39758 313 7.71898 313 7.71898" stroke="#C0ADEF" stroke-width="3" stroke-miterlimit="10" stroke-linecap="round"/>
<path d="M212 8C214.209 8 216 6.20914 216 4C216 1.79086 214.209 0 212 0C209.791 0 208 1.79086 208 4C208 6.20914 209.791 8 212 8Z" fill="#FF5353"/>
<path d="M116.255 11.5431L132.746 26.2945L108.421 31.0035L116.255 11.5431Z" stroke="#80C181" stroke-width="3"/>
<path d="M167.218 73.0898L150.343 80.917L158.17 97.7916L175.045 89.9644L167.218 73.0898Z" fill="#FFE152"/>
<path d="M445.893 76.3652C444.205 85.9398 444.205 96.3663 452.805 100.261C461.404 104.156 466.588 105.9 467.03 112.878" stroke="#80BFEA" stroke-width="3" stroke-miterlimit="10" stroke-linecap="round"/>
<g clip-path="url(#clip0_337_5183)">
<path d="M247.89 359.999C247.218 359.999 246.579 359.551 246.356 358.877C245.972 357.723 237.471 330.373 249.04 312.385C255.911 301.74 268.407 299.175 273.456 298.566C278.729 297.925 283.331 295.872 286.751 292.602C293.686 285.965 296.21 274.999 294.005 260.827C293.877 259.961 294.453 259.128 295.347 258.999C296.242 258.871 297.041 259.448 297.169 260.346C300.173 279.616 294.357 289.78 288.988 294.943C285.057 298.694 279.816 301.067 273.871 301.772C269.27 302.317 257.892 304.626 251.756 314.149C241.018 330.854 249.328 357.627 249.423 357.915C249.679 358.749 249.232 359.647 248.401 359.935C248.209 359.967 248.049 359.999 247.89 359.999Z" fill="#F06649"/>
</g>
<path d="M349 202L299.045 251.955" stroke="#F06649" stroke-width="3" stroke-linecap="round" stroke-linejoin="round"/>
<path d="M349 202L317.21 292.827L299.045 251.955L258.173 233.789L349 202Z" stroke="#F06649" stroke-width="3" stroke-linecap="round" stroke-linejoin="round"/>
<path d="M227.196 394V406" stroke="#F06649" stroke-width="2" stroke-linecap="round" stroke-linejoin="round"/>
<path d="M232.392 397L222 403" stroke="#F06649" stroke-width="2" stroke-linecap="round" stroke-linejoin="round"/>
<path d="M222 397L232.392 403" stroke="#F06649" stroke-width="2" stroke-linecap="round" stroke-linejoin="round"/>
<path d="M252.588 394V406" stroke="#F06649" stroke-width="2" stroke-linecap="round" stroke-linejoin="round"/>
<path d="M257.784 397L247.392 403" stroke="#F06649" stroke-width="2" stroke-linecap="round" stroke-linejoin="round"/>
<path d="M247.392 397L257.784 403" stroke="#F06649" stroke-width="2" stroke-linecap="round" stroke-linejoin="round"/>
<path d="M277.979 394V406" stroke="#F06649" stroke-width="2" stroke-linecap="round" stroke-linejoin="round"/>
<path d="M283.175 397L272.783 403" stroke="#F06649" stroke-width="2" stroke-linecap="round" stroke-linejoin="round"/>
<path d="M272.783 397L283.175 403" stroke="#F06649" stroke-width="2" stroke-linecap="round" stroke-linejoin="round"/>
<path d="M303.371 394V406" stroke="#F06649" stroke-width="2" stroke-linecap="round" stroke-linejoin="round"/>
<path d="M308.567 397L298.175 403" stroke="#F06649" stroke-width="2" stroke-linecap="round" stroke-linejoin="round"/>
<path d="M298.175 397L308.567 403" stroke="#F06649" stroke-width="2" stroke-linecap="round" stroke-linejoin="round"/>
<path d="M328.763 394V406" stroke="#F06649" stroke-width="2" stroke-linecap="round" stroke-linejoin="round"/>
<path d="M333.958 397L323.566 403" stroke="#F06649" stroke-width="2" stroke-linecap="round" stroke-linejoin="round"/>
<path d="M323.566 397L333.958 403" stroke="#F06649" stroke-width="2" stroke-linecap="round" stroke-linejoin="round"/>
<path d="M354.154 394V406" stroke="#F06649" stroke-width="2" stroke-linecap="round" stroke-linejoin="round"/>
<path d="M359.35 397L348.958 403" stroke="#F06649" stroke-width="2" stroke-linecap="round" stroke-linejoin="round"/>
<path d="M348.958 397L359.35 403" stroke="#F06649" stroke-width="2" stroke-linecap="round" stroke-linejoin="round"/>
<defs>
<clipPath id="clip0_337_5183">
<rect width="55" height="101" fill="white" transform="translate(243 259)"/>
</clipPath>
</defs>
</svg>
