<svg width="48" height="48" viewBox="0 0 48 48" fill="none" xmlns="http://www.w3.org/2000/svg">
<g clip-path="url(#clip0_337_2836)">
<path fill-rule="evenodd" clip-rule="evenodd" d="M7.2 4.8C6.56348 4.8 5.95303 5.05286 5.50294 5.50294C5.05286 5.95303 4.8 6.56348 4.8 7.2V40.8C4.8 41.4365 5.05286 42.047 5.50294 42.4971C5.95303 42.9471 6.56348 43.2 7.2 43.2H16.8C18.1255 43.2 19.2 44.2745 19.2 45.6C19.2 46.9255 18.1255 48 16.8 48H7.2C5.29044 48 3.45909 47.2414 2.10883 45.8912C0.758569 44.5409 0 42.7096 0 40.8V7.2C0 5.29044 0.758569 3.45909 2.10883 2.10883C3.45909 0.758569 5.29044 0 7.2 0H16.8C18.1255 0 19.2 1.07452 19.2 2.4C19.2 3.72548 18.1255 4.8 16.8 4.8H7.2Z" fill="#F06649"/>
<path fill-rule="evenodd" clip-rule="evenodd" d="M31.9029 10.3026C32.8402 9.36529 34.3597 9.36529 35.297 10.3026L47.297 22.3026C48.2343 23.2398 48.2343 24.7594 47.297 25.6967L35.297 37.6967C34.3597 38.6339 32.8402 38.6339 31.9029 37.6967C30.9656 36.7594 30.9656 35.2398 31.9029 34.3026L42.2058 23.9996L31.9029 13.6967C30.9656 12.7594 30.9656 11.2398 31.9029 10.3026Z" fill="#F06649"/>
<path fill-rule="evenodd" clip-rule="evenodd" d="M14.4 23.9996C14.4 22.6741 15.4745 21.5996 16.8 21.5996H45.6C46.9255 21.5996 48 22.6741 48 23.9996C48 25.3251 46.9255 26.3996 45.6 26.3996H16.8C15.4745 26.3996 14.4 25.3251 14.4 23.9996Z" fill="#F06649"/>
</g>
<defs>
<clipPath id="clip0_337_2836">
<rect width="48" height="48" fill="white"/>
</clipPath>
</defs>
</svg>
