<svg width="48" height="40" viewBox="0 0 48 40" fill="none" xmlns="http://www.w3.org/2000/svg">
<path fill-rule="evenodd" clip-rule="evenodd" d="M6.5454 4.3636C5.3504 4.3636 4.3636 5.3504 4.3636 6.5454V32.727C4.3636 33.922 5.3504 34.9088 6.5454 34.9088H41.4542C42.6492 34.9088 43.636 33.922 43.636 32.727V6.5454C43.636 5.3504 42.6492 4.3636 41.4542 4.3636H6.5454ZM0 6.5454C0 2.94045 2.94045 0 6.5454 0H41.4542C45.0592 0 47.9996 2.94045 47.9996 6.5454V32.727C47.9996 36.332 45.0592 39.2724 41.4542 39.2724H6.5454C2.94045 39.2724 0 36.332 0 32.727V6.5454Z" fill="#999999"/>
<path fill-rule="evenodd" clip-rule="evenodd" d="M0.394587 5.29433C1.0856 4.30718 2.44601 4.0671 3.43317 4.75811L24 19.1549L44.5668 4.75811C45.554 4.0671 46.9144 4.30718 47.6054 5.29433C48.2964 6.28149 48.0563 7.64191 47.0692 8.33292L25.2512 23.6055C24.4999 24.1314 23.5001 24.1314 22.7488 23.6055L0.930808 8.33292C-0.0563466 7.64191 -0.296421 6.28149 0.394587 5.29433Z" fill="#999999"/>
</svg>
