<svg width="100" height="100" viewBox="0 0 100 100" fill="none" xmlns="http://www.w3.org/2000/svg">
<path d="M54.1575 12.5043C51.3003 12.5475 48.4542 13.1756 45.7643 14.5827C37.9941 18.6492 34.9892 27.6987 34.9785 35.8036C28.2514 37.3829 21.8428 40.3365 16.3351 44.5089L16.3313 44.5111L16.3274 44.5149C10.0875 49.3386 4.44999 56.7444 5.27535 65.3213C6.02409 73.2029 12.7959 78.7441 19.7218 80.9473C31.6247 84.8201 44.7996 82.7115 55.7231 77.1691C58.5804 79.3637 61.6997 81.2141 65.079 82.6147C72.3513 85.7388 81.8044 85.4204 87.645 79.2712C94.336 72.2786 94.978 61.8874 93.3691 53.0621L93.3673 53.0544L93.3656 53.0467C90.6374 39.0664 82.52 25.9917 70.6567 17.9509L70.6546 17.9496L70.6528 17.9479C66.2516 15.0003 60.8318 12.7471 55.3853 12.5177C54.9981 12.5023 54.5682 12.4955 54.1594 12.5032L54.1575 12.5043ZM26.2035 13.0164C24.3532 13.0087 22.4986 13.7006 21.0884 15.112C21.0878 15.1126 21.0873 15.1132 21.0867 15.1137C19.6796 16.5295 18.9738 18.4487 19.0255 20.4053C17.0676 20.3621 15.1483 21.0637 13.7369 22.4794C13.6433 22.579 13.5702 22.696 13.5217 22.8238C11.0087 25.6639 11.0947 30.0221 13.7369 32.6643C16.2499 35.1816 20.6598 35.1515 24.419 34.7814C28.1757 34.3941 31.3961 33.5206 31.3961 33.5206C31.5699 33.4726 31.7283 33.3804 31.8557 33.2529C31.9832 33.1254 32.0754 32.9671 32.1233 32.7933C32.1233 32.7933 33.0141 29.566 33.3842 25.8012C33.7714 22.0359 33.7714 17.6166 31.2756 15.0993C29.9072 13.7266 28.0698 13.0295 26.2208 13.0209L26.2035 13.0164ZM54.6218 14.5999C59.8119 14.6431 65.1327 16.7644 69.4913 19.6836C80.8443 27.3798 88.688 39.9884 91.3172 53.4387C92.8577 61.8819 92.1564 71.5481 86.1363 77.8362L86.1349 77.8379L86.1332 77.8393C81.049 83.1924 72.5129 83.5504 65.8925 80.7008L65.8848 80.6991L65.8771 80.6973C61.3762 78.834 57.3334 76.1038 53.7833 72.796C53.6923 72.6713 53.5746 72.5684 53.4389 72.4947C47.9494 67.2754 43.6661 60.6607 40.7412 53.693L40.74 53.6853C40.7395 53.6849 40.7383 53.6849 40.7383 53.6842C40.1573 52.2684 39.6367 50.8225 39.1805 49.3599C39.7357 49.2307 40.2907 49.1019 40.8501 49.0155C40.8519 49.0151 40.854 49.0138 40.854 49.0138C44.0684 48.4587 47.3943 48.1575 50.6466 48.3296C51.0339 49.2892 51.4771 50.2488 51.9376 51.2041C52.5142 52.4003 53.1424 53.5837 53.818 54.7585V54.7602C57.8931 61.8229 63.213 67.6378 68.7189 71.0699C68.7459 71.1003 68.7746 71.129 68.8049 71.1559C70.6552 72.3049 72.6605 73.2817 74.8117 73.8841C79.243 75.3257 84.736 74.1853 87.3983 69.9424C90.9183 64.3759 90.2943 57.5141 88.9775 51.6713L88.9737 51.6597L88.9698 51.6482C86.3449 41.1709 80.5619 31.4179 72.3847 24.3147L72.377 24.307L72.3693 24.2993C69.1076 21.597 65.107 18.9562 60.6864 18.253C59.2147 18.0378 57.6918 17.9946 56.1362 18.2646L56.1324 18.2659H56.1285C53.4993 18.735 51.414 20.3056 49.9651 22.3023C48.515 24.2989 47.663 26.7297 47.4005 29.1025C47.3885 29.188 47.3872 29.2747 47.3966 29.3605C47.3106 29.7909 47.2674 30.2039 47.2674 30.6342C47.1814 31.6498 47.1382 32.6998 47.1814 33.7798C47.193 34.0382 47.2046 34.2962 47.2246 34.5587C43.8209 34.4727 40.4093 34.7739 37.0615 35.4322C37.1907 27.9839 40.0307 20.0051 46.7233 16.501C49.2148 15.1972 51.8965 14.6507 54.6153 14.6722L54.6218 14.5999ZM26.2048 15.1034C27.5216 15.1111 28.8298 15.6026 29.785 16.5622C31.3255 18.1027 31.6483 22.0284 31.2954 25.5876C30.9942 28.6212 30.4262 30.9136 30.2369 31.6438C29.5096 31.859 27.2204 32.4055 24.1966 32.7024C20.6465 33.0468 16.7349 32.7255 15.1952 31.1919C13.2846 29.2771 13.2201 25.949 15.2106 23.9502C16.4542 22.7066 18.2358 22.1859 19.9407 22.5646C20.1119 22.6028 20.2899 22.5972 20.4584 22.5482C20.6268 22.4993 20.7802 22.4086 20.9042 22.2845C21.0282 22.1605 21.1189 22.0071 21.1679 21.8387C21.2168 21.6703 21.2225 21.4922 21.1843 21.321C20.797 19.6127 21.3135 17.8269 22.5613 16.5802C23.5596 15.5819 24.885 15.1 26.2017 15.1043L26.2048 15.1034ZM58.4486 20.1066C63.0013 20.1298 67.381 22.822 71.0241 25.8406C78.8511 32.6417 84.4245 42.029 86.9482 52.0974C86.9487 52.0983 86.95 52.0992 86.95 52.1013C88.2151 57.7281 88.6755 63.9762 85.6375 68.7772V68.7785L85.6363 68.7806C83.9581 71.4614 80.6468 72.6018 77.5064 72.2833C81.2157 69.7058 83.0905 65.0312 83.2403 59.6248C83.4123 53.8552 81.6395 47.1544 77.9637 40.7729C74.2889 34.3913 69.3742 29.5128 64.3064 26.7666C61.7719 25.3939 59.1733 24.5505 56.6792 24.3568C54.5147 24.1848 52.432 24.5288 50.5364 25.3939C50.8376 24.7097 51.2163 24.0642 51.6467 23.4703C52.8472 21.8136 54.4566 20.626 56.4877 20.2645C57.1418 20.1353 57.7958 20.0925 58.4499 20.0925L58.4486 20.1066ZM55.7764 26.3927C58.1345 26.4355 60.7026 27.1802 63.3176 28.6002C67.9688 31.1218 72.6571 35.733 76.1616 41.8151C79.6644 47.8967 81.3077 54.271 81.161 59.569C80.989 64.8657 79.1213 68.9868 75.6951 70.9706C75.6947 70.971 75.6943 70.9714 75.6934 70.9719C75.3061 71.1871 74.9231 71.3592 74.5229 71.4925C72.3455 70.761 70.0726 69.5131 67.819 67.8349C72.5547 62.4087 75.5475 54.4612 72.2948 47.3288L72.2935 47.327C68.7908 39.6106 60.4009 36.0051 52.7155 34.897H52.7078L52.704 34.8952C51.5852 34.7232 50.4577 34.6369 49.326 34.5509C49.3029 34.2497 49.2828 33.9226 49.2828 33.6128C49.2396 32.6058 49.2674 31.6376 49.3688 30.7082C49.4548 29.9035 49.5841 29.1461 49.7133 28.406C50.0576 28.1048 50.4061 27.8466 50.7804 27.6185C52.2822 26.7536 53.9862 26.3448 55.819 26.3749L55.7764 26.3927ZM46.686 36.5619C48.6052 36.5734 50.5244 36.7339 52.4281 36.9492C59.6888 37.9991 67.32 41.393 70.3975 48.1782V48.1794C73.2161 54.3604 70.5696 61.5445 66.1848 66.5279C65.7459 66.1407 65.3069 65.7749 64.8723 65.3747C65.9481 63.9332 66.8561 62.3109 67.3552 60.5002C68.7064 56.2272 66.4774 51.6744 62.7801 49.5229C62.4357 49.3077 62.1046 49.1356 61.7603 48.9505L61.7526 48.939L61.4514 48.767C61.4437 48.7631 61.4321 48.7593 61.4282 48.7554C61.127 48.5834 60.7999 48.4542 60.4815 48.3036C60.4132 48.267 60.341 48.2382 60.2663 48.2176C57.5511 47.06 54.6878 46.449 51.793 46.2166C51.6635 46.1408 51.5192 46.0939 51.37 46.0791C51.2207 46.0642 51.07 46.0818 50.9281 46.1305C47.4039 45.9153 43.8447 46.3026 40.4625 46.8621L40.4548 46.8638L40.4432 46.8677C32.5577 48.391 24.6464 51.5448 18.6448 57.194C18.5658 57.2415 18.4934 57.2994 18.4296 57.366C18.1284 57.6672 17.8057 57.9856 17.5001 58.3169C17.0354 58.7773 16.5793 59.2895 16.192 59.8661C15.4045 60.9074 14.7074 62.0478 14.191 63.2655C13.2142 65.5505 12.8657 68.1453 13.8037 70.6918L13.8076 70.7034L13.8115 70.715C15.8081 75.7737 21.2632 77.8483 25.8693 78.7029L25.877 78.7042L25.8847 78.7059C35.0009 80.2335 44.4049 78.3616 52.6704 74.5663C53.1007 74.9536 53.5009 75.3021 53.9183 75.6636C43.577 80.6802 31.2985 82.469 20.3358 78.8995L20.3319 78.8983L20.3298 78.8961C13.9951 76.8821 7.972 71.8385 7.32609 65.0576V65.0563C6.59888 57.5087 11.6723 50.6649 17.5706 46.1028L17.5745 46.0989C17.5762 46.098 17.5766 46.0968 17.5783 46.0951C25.8464 39.8345 36.2888 36.4268 46.6632 36.4961L46.686 36.5619ZM53.0069 48.5185C55.4898 48.8197 57.9017 49.4781 60.1608 50.5367C61.3915 53.2347 60.7762 56.4948 59.2228 59.1206C57.949 57.4295 56.7398 55.6135 55.6339 53.6939V53.6926C54.9842 52.5609 54.3774 51.4163 53.818 50.2673C53.5168 49.6864 53.2672 49.1012 53.009 48.5159L53.0069 48.5185ZM37.1589 49.8353C37.6452 51.4016 38.1959 52.9464 38.8199 54.4633L38.8216 54.4672L38.8234 54.4693C40.9233 59.4777 43.7096 64.3261 47.1379 68.6481C41.342 71.0493 34.8834 72.0863 28.7252 71.0751C24.2448 70.3134 19.5737 68.2006 17.8314 64.0503L17.7882 63.9642L17.745 63.8783C17.1985 63.0306 17.2544 62.4668 17.573 61.7353C17.659 61.5633 17.745 61.348 17.8742 61.1759C18.2615 60.6897 18.6359 60.2206 19.0447 59.7817C19.1738 59.6525 19.2598 59.5665 19.3458 59.4805L19.3574 59.4728L19.369 59.4612C24.1669 54.6452 30.5037 51.592 37.1327 49.8355L37.1589 49.8353ZM4.33155 52.0901C4.1444 52.0864 3.95966 52.1332 3.79686 52.2256C3.63405 52.318 3.49916 52.4526 3.40634 52.6151C2.17997 54.6892 1.20746 56.9053 0.605007 59.2355C0.563161 59.37 0.549067 59.5116 0.563519 59.6517C0.577971 59.7919 0.620682 59.9276 0.6891 60.0508C0.757519 60.1739 0.850215 60.2819 0.961566 60.3682C1.07292 60.4545 1.20063 60.5173 1.33696 60.5529C1.47328 60.5884 1.6154 60.596 1.75472 60.575C1.89403 60.554 2.02763 60.505 2.14747 60.4309C2.26731 60.3569 2.37086 60.2593 2.45189 60.144C2.53292 60.0288 2.58974 59.8983 2.6189 59.7605C3.16971 57.6433 4.0561 55.6079 5.19644 53.6771C5.29177 53.5207 5.34418 53.3418 5.34833 53.1586C5.35247 52.9755 5.3082 52.7944 5.22004 52.6338C5.13188 52.4732 5.00293 52.3387 4.84618 52.2438C4.68942 52.149 4.51044 52.0972 4.32726 52.0936L4.33155 52.0901ZM62.8425 52.1333C65.0587 54.0181 66.2549 57.1254 65.3685 59.9065L65.3608 59.9296L65.3531 59.9527C64.9658 61.3685 64.2515 62.7025 63.3564 63.9418C62.414 62.9865 61.4889 61.9537 60.5852 60.865C62.2634 58.3692 63.3048 55.1983 62.84 52.1366L62.8425 52.1333ZM98.0847 53.166C97.9306 53.1657 97.7784 53.1996 97.639 53.2652C97.4995 53.3308 97.3764 53.4266 97.2784 53.5456C97.1805 53.6645 97.1101 53.8037 97.0725 53.9531C97.0348 54.1026 97.0307 54.2585 97.0606 54.4097C97.9944 59.5158 98.2526 65.0251 97.3618 70.1909C97.1466 71.4819 96.8411 72.7513 96.4668 73.9906C96.4202 74.1233 96.401 74.2641 96.4103 74.4044C96.4196 74.5448 96.4572 74.6818 96.5209 74.8072C96.5846 74.9326 96.673 75.0438 96.7808 75.1342C96.8886 75.2245 97.0136 75.292 97.1482 75.3327C97.2829 75.3734 97.4243 75.3865 97.5641 75.371C97.7039 75.3556 97.8391 75.312 97.9616 75.2429C98.0841 75.1737 98.1914 75.0805 98.2769 74.9689C98.3624 74.8572 98.4244 74.7293 98.4591 74.5931C98.8464 73.2677 99.1777 71.9166 99.4144 70.5481C100.365 65.0707 100.081 59.3359 99.1132 54.0383C99.0725 53.7959 98.9474 53.5756 98.7599 53.4166C98.5725 53.2575 98.3349 53.1699 98.089 53.1691L98.0847 53.166ZM15.8764 64.7966C15.8995 64.8826 15.9624 64.9258 15.9624 64.9686C18.1441 70.0106 23.5316 72.3239 28.3632 73.1432H28.367H28.3709C35.1956 74.262 42.2554 73.0572 48.5108 70.3376C49.3284 71.2843 50.1804 72.2052 51.0626 73.0916C43.2989 76.5169 34.5915 78.1245 26.2511 76.7278C21.9652 75.9317 17.3544 74.034 15.7678 70.0368C15.131 68.2897 15.2557 66.5298 15.897 64.8021L15.8764 64.7966ZM1.03018 65.3818C0.88495 65.3834 0.741688 65.4154 0.609538 65.4756C0.477388 65.5359 0.35925 65.6231 0.262806 65.7317C0.166362 65.8403 0.0937097 65.9679 0.0494821 66.1062C0.00525454 66.2446 -0.00956676 66.3906 0.00599351 66.535C0.883846 75.7768 8.82141 82.3034 16.9591 84.8982C17.0912 84.9468 17.2317 84.9682 17.3722 84.961C17.5127 84.9538 17.6504 84.9182 17.7768 84.8564C17.9032 84.7946 18.0158 84.7079 18.1077 84.6014C18.1997 84.4949 18.2692 84.3709 18.3119 84.2368C18.3547 84.1028 18.3698 83.9615 18.3565 83.8214C18.3431 83.6813 18.3015 83.5454 18.2342 83.4218C18.1669 83.2983 18.0753 83.1896 17.9649 83.1024C17.8544 83.0152 17.7275 82.9513 17.5917 82.9144C10.0457 80.509 2.85382 74.4842 2.07968 66.3401C2.0579 66.0784 1.93808 65.8346 1.74418 65.6574C1.55029 65.4803 1.29669 65.3829 1.03407 65.3848L1.03018 65.3818ZM95.1255 78.7624C94.9384 78.7631 94.7549 78.8143 94.5944 78.9104C94.4339 79.0066 94.3022 79.1442 94.2132 79.3088C93.912 79.8682 93.5634 80.4148 93.202 80.9483C92.4834 82.0198 91.6658 83.0354 90.7492 83.9907C90.6541 84.0895 90.5794 84.2061 90.5295 84.3338C90.4795 84.4615 90.4552 84.5979 90.458 84.735C90.4608 84.8721 90.4907 85.0073 90.5458 85.1328C90.601 85.2584 90.6803 85.3718 90.7794 85.4666C90.8785 85.5614 90.9953 85.6358 91.1232 85.6854C91.251 85.735 91.3874 85.7589 91.5245 85.7557C91.6616 85.7525 91.7967 85.7223 91.9221 85.6668C92.0475 85.6113 92.1608 85.5316 92.2553 85.4323C93.2579 84.3909 94.1444 83.2764 94.9318 82.1145C95.3191 81.5336 95.6892 80.9355 96.0292 80.3287C96.1205 80.1703 96.1685 79.9905 96.1684 79.8076C96.1683 79.6247 96.12 79.4451 96.0284 79.2868C95.9368 79.1284 95.8051 78.997 95.6466 78.9057C95.4882 78.8144 95.3084 78.7665 95.1255 78.7667V78.7624Z" fill="#F1A341"/>
</svg>
