<svg width="35" height="48" viewBox="0 0 35 48" fill="none" xmlns="http://www.w3.org/2000/svg">
<path fill-rule="evenodd" clip-rule="evenodd" d="M6.54545 4.36364C5.34047 4.36364 4.36364 5.34047 4.36364 6.54545V41.4545C4.36364 42.6595 5.34047 43.6364 6.54545 43.6364H28.3636C29.5686 43.6364 30.5455 42.6595 30.5455 41.4545V6.54545C30.5455 5.34047 29.5686 4.36364 28.3636 4.36364H6.54545ZM0 6.54545C0 2.9305 2.9305 0 6.54545 0H28.3636C31.9786 0 34.9091 2.9305 34.9091 6.54545V41.4545C34.9091 45.0695 31.9786 48 28.3636 48H6.54545C2.9305 48 0 45.0695 0 41.4545V6.54545Z" fill="#999999"/>
<path fill-rule="evenodd" clip-rule="evenodd" d="M15.2727 37.091C15.2727 35.886 16.2495 34.9092 17.4545 34.9092H17.4763C18.6813 34.9092 19.6582 35.886 19.6582 37.091C19.6582 38.296 18.6813 39.2728 17.4763 39.2728H17.4545C16.2495 39.2728 15.2727 38.296 15.2727 37.091Z" fill="#999999"/>
</svg>
