<svg width="92" height="92" viewBox="0 0 92 92" fill="none" xmlns="http://www.w3.org/2000/svg">
<path fill-rule="evenodd" clip-rule="evenodd" d="M27.9256 20.4463C32.6521 15.7661 39.0559 13.1426 45.7264 13.1426C52.3969 13.1426 58.8007 15.7661 63.5273 20.4463C68.255 25.1275 70.9169 31.4835 70.9169 38.1179C70.9169 50.2806 73.5444 57.8577 75.9853 62.2888C77.2106 64.5131 78.4073 65.9787 79.2464 66.8557C79.6667 67.295 79.9996 67.5889 80.2042 67.7578C80.3065 67.8422 80.3769 67.8954 80.4101 67.92C80.4183 67.926 80.4242 67.9303 80.4279 67.9329C81.6146 68.7376 82.1437 70.2209 81.7305 71.5972C81.3132 72.9865 80.0342 73.9379 78.5836 73.9379H12.8693C11.4186 73.9379 10.1396 72.9865 9.7224 71.5972C9.30912 70.2209 9.83829 68.7375 11.025 67.9329C11.0286 67.9303 11.0346 67.926 11.0427 67.92C11.076 67.8954 11.1464 67.8422 11.2487 67.7578C11.4533 67.5889 11.7861 67.295 12.2065 66.8557C13.0455 65.9787 14.2423 64.5131 15.4675 62.2888C17.9085 57.8577 20.536 50.2806 20.536 38.1179C20.536 31.4835 23.1979 25.1275 27.9256 20.4463ZM20.0897 67.3665H71.3631C70.9871 66.7804 70.6074 66.1457 70.2294 65.4596C67.1942 59.9496 64.3455 51.2596 64.3455 38.1179C64.3455 33.2474 62.3918 28.5698 58.9036 25.1158C55.4143 21.6608 50.6749 19.7141 45.7264 19.7141C40.7779 19.7141 36.0386 21.6608 32.5493 25.1158C29.0611 28.5698 27.1074 33.2474 27.1074 38.1179C27.1074 51.2596 24.2586 59.9496 21.2234 65.4596C20.8455 66.1457 20.4657 66.7804 20.0897 67.3665Z" fill="#999999"/>
<path fill-rule="evenodd" clip-rule="evenodd" d="M37.75 82.2772C39.3158 81.3599 41.3286 81.8856 42.2459 83.4513C42.5953 84.0477 43.0992 84.5467 43.7102 84.8952C44.3215 85.2439 45.017 85.4286 45.7267 85.4286C46.4365 85.4286 47.132 85.2439 47.7433 84.8952C48.3543 84.5467 48.8582 84.0477 49.2076 83.4513C50.1249 81.8856 52.1377 81.3599 53.7035 82.2772C55.2692 83.1944 55.7949 85.2073 54.8777 86.7731C53.9434 88.3679 52.6047 89.6877 50.9989 90.6035C49.3933 91.5193 47.5753 92 45.7267 92C43.8782 92 42.0602 91.5193 40.4546 90.6035C38.8488 89.6877 37.5101 88.3679 36.5758 86.7731C35.6586 85.2073 36.1843 83.1944 37.75 82.2772Z" fill="#999999"/>
<path d="M78.5831 16.4285C78.5831 25.5018 71.2278 32.8571 62.1545 32.8571C53.0813 32.8571 45.726 25.5018 45.726 16.4285C45.726 7.35531 53.0813 0 62.1545 0C71.2278 0 78.5831 7.35531 78.5831 16.4285Z" fill="#F06649"/>
</svg>
