<svg width="581" height="625" viewBox="0 0 581 625" fill="none" xmlns="http://www.w3.org/2000/svg">
<path d="M288.638 291.963C390.965 310.855 402.847 251.83 434.863 213.91C466.878 175.99 551.279 174.526 555.624 244.545C560.004 314.565 562.177 366.373 578.167 440.75C594.158 515.126 539.803 529.185 481.578 549.438C423.353 569.692 414.832 566.22 381.357 577.521C347.882 588.822 289.317 640.256 229.666 620.547C170.016 600.838 133.655 582.014 116.17 528.266C84.5284 430.878 17.2387 435.984 4.13384 399.528C-14.4031 347.89 33.6028 278.449 64.8711 251.456C96.1395 224.462 126.355 211.697 173.988 221.909C221.722 232.155 261.003 286.857 288.638 291.963Z" fill="#F3F3F3"/>
<path d="M372.307 483H207.693C188.532 483 173 467.505 173 448.389V140.611C173 121.495 188.532 106 207.693 106H372.307C391.468 106 407 121.495 407 140.611V448.355C407 467.505 391.468 483 372.307 483Z" fill="white" stroke="#FF5353" stroke-miterlimit="10"/>
<path d="M381 161H200V442H381V161Z" fill="#FFE6E0" stroke="#FF5353" stroke-miterlimit="10"/>
<path d="M314.232 140H265.768C262.594 140 260 137.527 260 134.5C260 131.473 262.594 129 265.768 129H314.232C317.406 129 320 131.473 320 134.5C320 137.559 317.406 140 314.232 140Z" fill="#F06649"/>
<path d="M515.97 117.673L504.855 113.663L513.45 105.863L515.97 117.673Z" stroke="#F29545" stroke-width="3"/>
<path d="M499 17.9634C496.759 17.4424 494.62 16.713 492.514 15.8446C491.835 17.1298 490.511 17.9634 488.983 17.9634C488.643 17.9634 488.304 17.9287 487.998 17.8592C487.183 19.596 486.233 21.3327 485.18 23C485.554 21.0201 486.097 19.1444 486.742 17.2687C485.689 16.5046 484.976 15.2541 484.976 13.83C484.976 13.4132 485.044 12.9963 485.146 12.6143C483.041 11.5722 480.969 10.3912 479 9.03656C481.377 9.59232 483.652 10.3912 485.859 11.2943C486.572 10.3218 487.727 9.73126 488.983 9.73126C489.221 9.73126 489.458 9.766 489.696 9.80073C490.579 7.82084 491.598 5.87569 492.82 4C492.379 6.1883 491.767 8.2724 491.054 10.3218C492.243 11.0165 493.024 12.3364 493.024 13.83C493.024 14.0384 493.024 14.2468 492.956 14.4552C495.027 15.4625 497.065 16.6088 499 17.9634Z" fill="#A1E2C4"/>
<path d="M399.5 35C408.06 35 415 28.0604 415 19.5C415 10.9396 408.06 4 399.5 4C390.94 4 384 10.9396 384 19.5C384 28.0604 390.94 35 399.5 35Z" stroke="#FFA35A" stroke-width="3" stroke-miterlimit="10"/>
<path d="M284 26C288.477 25.4196 293.488 12.797 298.333 9.09731C303.177 5.39758 313 7.71898 313 7.71898" stroke="#C0ADEF" stroke-width="3" stroke-miterlimit="10" stroke-linecap="round"/>
<path d="M212 8C214.209 8 216 6.20914 216 4C216 1.79086 214.209 0 212 0C209.791 0 208 1.79086 208 4C208 6.20914 209.791 8 212 8Z" fill="#FF5353"/>
<path d="M116.255 11.5431L132.746 26.2945L108.421 31.0035L116.255 11.5431Z" stroke="#80C181" stroke-width="3"/>
<path d="M167.218 73.0898L150.343 80.917L158.17 97.7916L175.045 89.9644L167.218 73.0898Z" fill="#FFE152"/>
<path d="M445.893 76.3652C444.205 85.9398 444.205 96.3663 452.805 100.261C461.404 104.156 466.588 105.9 467.03 112.878" stroke="#80BFEA" stroke-width="3" stroke-miterlimit="10" stroke-linecap="round"/>
<line x1="272.17" y1="285.038" x2="309.329" y2="285.038" stroke="#FF5353" stroke-width="3" stroke-linecap="round"/>
<line x1="272.17" y1="294.165" x2="309.329" y2="294.165" stroke="#FF5353" stroke-width="3" stroke-linecap="round"/>
<line x1="272.17" y1="303.292" x2="309.329" y2="303.292" stroke="#FF5353" stroke-width="3" stroke-linecap="round"/>
<path d="M319.5 311.333C319.5 313.028 318.827 314.653 317.629 315.851C316.431 317.049 314.806 317.722 313.111 317.722H274.778L262 330.5V279.389C262 277.694 262.673 276.069 263.871 274.871C265.069 273.673 266.694 273 268.389 273H313.111C314.806 273 316.431 273.673 317.629 274.871C318.827 276.069 319.5 277.694 319.5 279.389V311.333Z" stroke="#FF5353" stroke-width="2" stroke-linecap="round" stroke-linejoin="round"/>
</svg>
