<svg width="48" height="48" viewBox="0 0 48 48" fill="none" xmlns="http://www.w3.org/2000/svg">
<path d="M5.33333 1.5H42.6667C44.7838 1.5 46.5 3.21624 46.5 5.33333V42.6667C46.5 44.7838 44.7838 46.5 42.6667 46.5H5.33333C3.21624 46.5 1.5 44.7838 1.5 42.6667V5.33333C1.5 3.21624 3.21624 1.5 5.33333 1.5Z" stroke="#999999" stroke-width="3" stroke-linecap="round" stroke-linejoin="round"/>
<path d="M17.167 14.6665C17.167 16.0472 16.0477 17.1665 14.667 17.1665C13.2863 17.1665 12.167 16.0472 12.167 14.6665C12.167 13.2858 13.2863 12.1665 14.667 12.1665C16.0477 12.1665 17.167 13.2858 17.167 14.6665Z" stroke="#999999" stroke-width="3" stroke-linecap="round" stroke-linejoin="round"/>
<mask id="path-3-inside-1_946_3553" fill="white">
<path d="M47.9997 31.9998L34.6663 18.6665L5.33301 47.9998"/>
</mask>
<path d="M45.8784 34.1212C47.0499 35.2927 48.9494 35.2927 50.121 34.1212C51.2926 32.9496 51.2926 31.0501 50.121 29.8785L45.8784 34.1212ZM34.6663 18.6665L36.7877 16.5452C35.6161 15.3736 33.7166 15.3736 32.545 16.5452L34.6663 18.6665ZM3.21169 45.8785C2.04011 47.0501 2.04011 48.9496 3.21169 50.1212C4.38326 51.2927 6.28276 51.2927 7.45433 50.1212L3.21169 45.8785ZM50.121 29.8785L36.7877 16.5452L32.545 20.7878L45.8784 34.1212L50.121 29.8785ZM32.545 16.5452L3.21169 45.8785L7.45433 50.1212L36.7877 20.7878L32.545 16.5452Z" fill="#999999" mask="url(#path-3-inside-1_946_3553)"/>
</svg>
