<svg width="48" height="48" viewBox="0 0 48 48" fill="none" xmlns="http://www.w3.org/2000/svg">
<path fill-rule="evenodd" clip-rule="evenodd" d="M24 4C19.7565 4 15.6869 5.68571 12.6863 8.68629C9.68571 11.6869 8 15.7565 8 20C8 26.1961 12.0315 32.2085 16.4519 36.8745C18.6212 39.1643 20.7973 41.0389 22.4334 42.3417C23.0422 42.8265 23.574 43.2304 24 43.5452C24.426 43.2304 24.9578 42.8265 25.5666 42.3417C27.2027 41.0389 29.3788 39.1643 31.5481 36.8745C35.9685 32.2085 40 26.1961 40 20C40 15.7565 38.3143 11.6869 35.3137 8.68629C32.3131 5.68571 28.2435 4 24 4ZM24 46C22.8906 47.6641 22.8901 47.6638 22.8895 47.6634L22.8838 47.6596L22.8705 47.6506L22.8246 47.6196C22.7857 47.5932 22.7302 47.5552 22.6591 47.506C22.5171 47.4076 22.3129 47.2643 22.0556 47.0784C21.5411 46.7068 20.8127 46.1644 19.9416 45.4708C18.2027 44.0861 15.8788 42.0857 13.5481 39.6255C8.96853 34.7915 4 27.8039 4 20C4 14.6957 6.10714 9.60859 9.85786 5.85786C13.6086 2.10714 18.6957 0 24 0C29.3043 0 34.3914 2.10714 38.1421 5.85786C41.8929 9.60859 44 14.6957 44 20C44 27.8039 39.0315 34.7915 34.4519 39.6255C32.1212 42.0857 29.7973 44.0861 28.0584 45.4708C27.1873 46.1644 26.4589 46.7068 25.9444 47.0784C25.6871 47.2643 25.4829 47.4076 25.3409 47.506C25.2698 47.5552 25.2143 47.5932 25.1754 47.6196L25.1295 47.6506L25.1162 47.6596L25.1105 47.6634C25.1099 47.6638 25.1094 47.6641 24 46ZM24 46L25.1094 47.6641C24.4376 48.112 23.5624 48.112 22.8906 47.6641L24 46Z" fill="#999999"/>
<path fill-rule="evenodd" clip-rule="evenodd" d="M24 16C21.7909 16 20 17.7909 20 20C20 22.2091 21.7909 24 24 24C26.2091 24 28 22.2091 28 20C28 17.7909 26.2091 16 24 16ZM16 20C16 15.5817 19.5817 12 24 12C28.4183 12 32 15.5817 32 20C32 24.4183 28.4183 28 24 28C19.5817 28 16 24.4183 16 20Z" fill="#999999"/>
</svg>
