<svg width="48" height="48" viewBox="0 0 48 48" fill="none" xmlns="http://www.w3.org/2000/svg">
<path fill-rule="evenodd" clip-rule="evenodd" d="M24 4.36364C13.1551 4.36364 4.36364 13.1551 4.36364 24C4.36364 34.8449 13.1551 43.6364 24 43.6364C34.8449 43.6364 43.6364 34.8449 43.6364 24C43.6364 13.1551 34.8449 4.36364 24 4.36364ZM0 24C0 10.7452 10.7452 0 24 0C37.2548 0 48 10.7452 48 24C48 37.2548 37.2548 48 24 48C10.7452 48 0 37.2548 0 24Z" fill="white"/>
<path fill-rule="evenodd" clip-rule="evenodd" d="M24.0002 13.0909C25.2052 13.0909 26.182 14.0677 26.182 15.2727V32.7273C26.182 33.9323 25.2052 34.9091 24.0002 34.9091C22.7952 34.9091 21.8184 33.9323 21.8184 32.7273V15.2727C21.8184 14.0677 22.7952 13.0909 24.0002 13.0909Z" fill="white"/>
<path fill-rule="evenodd" clip-rule="evenodd" d="M13.0908 24C13.0908 22.795 14.0677 21.8182 15.2726 21.8182H32.7272C33.9322 21.8182 34.909 22.795 34.909 24C34.909 25.205 33.9322 26.1818 32.7272 26.1818H15.2726C14.0677 26.1818 13.0908 25.205 13.0908 24Z" fill="white"/>
</svg>
