<svg width="48" height="48" viewBox="0 0 48 48" fill="none" xmlns="http://www.w3.org/2000/svg">
<path fill-rule="evenodd" clip-rule="evenodd" d="M38.2893 12.0348H30.8681C30.467 9.4274 29.3638 6.92024 27.659 4.81423H38.2893C39.593 4.81423 40.6962 3.71108 40.6962 2.40736C40.6962 1.10364 39.593 0.000488281 38.2893 0.000488281H9.40687C8.10315 0.000488281 7 1.10364 7 2.40736C7 3.71108 8.10315 4.81423 9.40687 4.81423H16.6275C19.9369 4.81423 22.3438 6.01766 23.8481 7.72253C24.9512 8.92596 25.6532 10.4303 25.9541 12.0348H9.40687C8.10315 12.0348 7 13.138 7 14.4417C7 15.7454 8.10315 16.8486 9.40687 16.8486H25.9541C25.553 18.4532 24.8509 19.9575 23.8481 21.1609C22.3438 22.8658 19.9369 24.0692 16.6275 24.0692H9.40687C9.30658 24.0692 9.2063 24.0692 9.10601 24.0692C9.00572 24.0692 9.00572 24.0692 8.90544 24.0692C8.80515 24.0692 8.70487 24.0692 8.70487 24.1695C8.60458 24.1695 8.60458 24.1695 8.50429 24.2698C8.40401 24.2698 8.40401 24.37 8.30372 24.37C8.20343 24.37 8.20343 24.4703 8.10315 24.4703C8.00286 24.4703 8.00286 24.5706 8.00286 24.5706C7.90258 24.6709 7.90258 24.6709 7.80229 24.7712L7.702 24.8715C7.50143 25.072 7.40114 25.0721 7.40114 25.1723C7.40114 25.2726 7.30086 25.2726 7.30086 25.3729C7.30086 25.4732 7.20057 25.4732 7.20057 25.5735C7.20057 25.6738 7.20057 25.7741 7.10029 25.7741C7.10029 25.8743 7.10029 25.8743 7 25.9746C7 26.0749 7 26.1752 7 26.2755C7 26.3758 7 26.3758 7 26.4761C7 26.5763 7 26.6766 7 26.7769C7 26.8772 7 26.8772 7 26.9775C7 27.0778 7 27.1781 7.10029 27.1781C7.10029 27.2783 7.10029 27.2783 7.20057 27.3786C7.20057 27.4789 7.30086 27.4789 7.30086 27.5792C7.30086 27.6795 7.40114 27.6795 7.40114 27.7798C7.40114 27.8801 7.50143 27.8801 7.50143 27.8801C7.60172 27.9804 7.60172 27.9804 7.702 28.0806L28.1604 47.3356C29.1633 48.2382 30.6676 48.2382 31.5701 47.2353C32.4727 46.2324 32.4727 44.7282 31.4698 43.8256L15.424 28.6824H16.5272C21.1404 28.6824 24.8509 26.8772 27.3581 24.0692C29.2635 21.9632 30.3667 19.3557 30.7678 16.648H38.189C39.4927 16.648 40.5959 15.5449 40.5959 14.2411C40.6962 13.138 39.593 12.0348 38.2893 12.0348Z" fill="#999999"/>
</svg>
