<svg width="35" height="35" viewBox="0 0 35 35" fill="none" xmlns="http://www.w3.org/2000/svg">
<path fill-rule="evenodd" clip-rule="evenodd" d="M27.9196 8.77541H22.5083C22.2158 6.87415 21.4115 5.04602 20.1683 3.51038H27.9196C28.8702 3.51038 29.6746 2.70601 29.6746 1.75538C29.6746 0.804746 28.8702 0.000366211 27.9196 0.000366211H6.8595C5.90887 0.000366211 5.10449 0.804746 5.10449 1.75538C5.10449 2.70601 5.90887 3.51038 6.8595 3.51038H12.1245C14.5377 3.51038 16.2927 4.38789 17.3896 5.63102C18.1939 6.50853 18.7058 7.60541 18.9252 8.77541H6.8595C5.90887 8.77541 5.10449 9.57979 5.10449 10.5304C5.10449 11.4811 5.90887 12.2854 6.8595 12.2854H18.9252C18.6327 13.4554 18.1208 14.5523 17.3896 15.4298C16.2927 16.673 14.5377 17.5505 12.1245 17.5505H6.8595C6.78638 17.5505 6.71325 17.5505 6.64013 17.5505C6.567 17.5505 6.567 17.5505 6.49387 17.5505C6.42075 17.5505 6.34762 17.5505 6.34762 17.6236C6.2745 17.6236 6.2745 17.6236 6.20137 17.6967C6.12825 17.6967 6.12825 17.7698 6.05512 17.7698C5.982 17.7698 5.982 17.843 5.90887 17.843C5.83575 17.843 5.83575 17.9161 5.83575 17.9161C5.76262 17.9892 5.76262 17.9892 5.6895 18.0623L5.61637 18.1355C5.47012 18.2817 5.39699 18.2817 5.39699 18.3548C5.39699 18.428 5.32387 18.428 5.32387 18.5011C5.32387 18.5742 5.25074 18.5742 5.25074 18.6473C5.25074 18.7205 5.25074 18.7936 5.17762 18.7936C5.17762 18.8667 5.17762 18.8667 5.10449 18.9398C5.10449 19.013 5.10449 19.0861 5.10449 19.1592C5.10449 19.2323 5.10449 19.2323 5.10449 19.3055C5.10449 19.3786 5.10449 19.4517 5.10449 19.5248C5.10449 19.598 5.10449 19.598 5.10449 19.6711C5.10449 19.7442 5.10449 19.8173 5.17762 19.8173C5.17762 19.8905 5.17762 19.8905 5.25074 19.9636C5.25074 20.0367 5.32387 20.0367 5.32387 20.1098C5.32387 20.183 5.39699 20.183 5.39699 20.2561C5.39699 20.3292 5.47012 20.3292 5.47012 20.3292C5.54324 20.4023 5.54324 20.4023 5.61637 20.4755L20.5339 34.5155C21.2652 35.1737 22.3621 35.1737 23.0202 34.4424C23.6783 33.7112 23.6783 32.6143 22.9471 31.9562L11.247 20.9142H12.0514C15.4152 20.9142 18.1208 19.598 19.9489 17.5505C21.3383 16.0148 22.1427 14.1136 22.4352 12.1392H27.8465C28.7971 12.1392 29.6015 11.3348 29.6015 10.3842C29.6746 9.57979 28.8702 8.77541 27.9196 8.77541Z" fill="white"/>
</svg>
