<svg width="150" height="150" viewBox="0 0 150 150" fill="none" xmlns="http://www.w3.org/2000/svg">
<path d="M0 20C0 8.9543 8.95431 0 20 0H130C141.046 0 150 8.95431 150 20V130C150 141.046 141.046 150 130 150H20C8.9543 150 0 141.046 0 130V20Z" fill="url(#paint0_linear_2669_3445)"/>
<path fill-rule="evenodd" clip-rule="evenodd" d="M104.202 45.7988C105.267 46.8639 105.267 48.5907 104.202 49.6557L74.2016 79.6557C73.1366 80.7208 71.4098 80.7208 70.3447 79.6557C69.2796 78.5906 69.2796 76.8638 70.3447 75.7988L100.345 45.7988C101.41 44.7337 103.137 44.7337 104.202 45.7988Z" fill="white"/>
<path fill-rule="evenodd" clip-rule="evenodd" d="M104.201 45.7989C104.942 46.5397 105.193 47.6394 104.847 48.6283L85.7559 103.174C85.3865 104.229 84.4103 104.952 83.2929 104.998C82.1756 105.043 81.1437 104.402 80.6896 103.38L70.2065 79.7935L46.6196 69.3104C45.5978 68.8563 44.9567 67.8244 45.0023 66.7071C45.0479 65.5897 45.7709 64.6135 46.8263 64.2441L101.372 45.1532C102.361 44.8071 103.46 45.058 104.201 45.7989ZM55.1211 67.1199L73.3803 75.2351C73.9973 75.5093 74.4907 76.0027 74.7649 76.6196L82.8801 94.8789L97.8273 52.1727L55.1211 67.1199Z" fill="white"/>
<defs>
<linearGradient id="paint0_linear_2669_3445" x1="0.23316" y1="2.31818" x2="177.533" y2="58.8629" gradientUnits="userSpaceOnUse">
<stop stop-color="#27AAE1"/>
<stop offset="0.0001" stop-color="#27ABE1"/>
<stop offset="1" stop-color="#36D1DC"/>
</linearGradient>
</defs>
</svg>
