<svg width="48" height="48" viewBox="0 0 48 48" fill="none" xmlns="http://www.w3.org/2000/svg">
<path fill-rule="evenodd" clip-rule="evenodd" d="M36.909 4.36364C34.4991 4.36364 32.5454 6.3173 32.5454 8.72727C32.5454 11.1372 34.4991 13.0909 36.909 13.0909C39.319 13.0909 41.2727 11.1372 41.2727 8.72727C41.2727 6.3173 39.319 4.36364 36.909 4.36364ZM28.1818 8.72727C28.1818 3.90733 32.0891 0 36.909 0C41.729 0 45.6363 3.90733 45.6363 8.72727C45.6363 13.5472 41.729 17.4545 36.909 17.4545C32.0891 17.4545 28.1818 13.5472 28.1818 8.72727Z" fill="#F06649"/>
<path fill-rule="evenodd" clip-rule="evenodd" d="M10.7273 19.6371C8.3173 19.6371 6.36364 21.5907 6.36364 24.0007C6.36364 26.4107 8.3173 28.3643 10.7273 28.3643C13.1372 28.3643 15.0909 26.4107 15.0909 24.0007C15.0909 21.5907 13.1372 19.6371 10.7273 19.6371ZM2 24.0007C2 19.1808 5.90733 15.2734 10.7273 15.2734C15.5472 15.2734 19.4545 19.1808 19.4545 24.0007C19.4545 28.8206 15.5472 32.728 10.7273 32.728C5.90733 32.728 2 28.8206 2 24.0007Z" fill="#F06649"/>
<path fill-rule="evenodd" clip-rule="evenodd" d="M36.909 34.9086C34.4991 34.9086 32.5454 36.8622 32.5454 39.2722C32.5454 41.6822 34.4991 43.6358 36.909 43.6358C39.319 43.6358 41.2727 41.6822 41.2727 39.2722C41.2727 36.8622 39.319 34.9086 36.909 34.9086ZM28.1818 39.2722C28.1818 34.4523 32.0891 30.5449 36.909 30.5449C41.729 30.5449 45.6363 34.4523 45.6363 39.2722C45.6363 44.0921 41.729 47.9995 36.909 47.9995C32.0891 47.9995 28.1818 44.0921 28.1818 39.2722Z" fill="#F06649"/>
<path fill-rule="evenodd" clip-rule="evenodd" d="M14.4931 26.195C15.0998 25.1539 16.4356 24.8017 17.4767 25.4084L32.3785 34.092C33.4197 34.6987 33.7718 36.0345 33.1651 37.0756C32.5585 38.1168 31.2227 38.4689 30.1815 37.8622L15.2797 29.1786C14.2386 28.5719 13.8864 27.2361 14.4931 26.195Z" fill="#F06649"/>
<path fill-rule="evenodd" clip-rule="evenodd" d="M33.1426 10.9223C33.75 11.963 33.3986 13.2991 32.3579 13.9064L17.4779 22.5901C16.4372 23.1974 15.1012 22.8461 14.4938 21.8054C13.8865 20.7646 14.2378 19.4286 15.2785 18.8212L30.1585 10.1376C31.1993 9.53026 32.5353 9.88159 33.1426 10.9223Z" fill="#F06649"/>
</svg>
