<svg width="40" height="40" viewBox="0 0 40 40" fill="none" xmlns="http://www.w3.org/2000/svg">
<path fill-rule="evenodd" clip-rule="evenodd" d="M20 2.397C10.2782 2.397 2.39718 10.278 2.39718 19.9998C2.39718 29.7216 10.2782 37.6026 20 37.6026C29.7218 37.6026 37.6028 29.7216 37.6028 19.9998C37.6028 10.278 29.7218 2.397 20 2.397ZM0 19.9998C0 8.95412 8.9543 -0.000183105 20 -0.000183105C31.0457 -0.000183105 40 8.95412 40 19.9998C40 31.0455 31.0457 39.9998 20 39.9998C8.9543 39.9998 0 31.0455 0 19.9998Z" fill="#999999"/>
<path d="M21.207 2.41537L25.5724 11.2365C25.7686 11.6328 26.1483 11.9087 26.5858 11.9714L36.3451 13.386C37.4491 13.5466 37.8916 14.901 37.092 15.6785L30.0309 22.5433C29.714 22.8518 29.5682 23.2957 29.6436 23.7322L31.3108 33.4262C31.4994 34.5247 30.3452 35.36 29.357 34.8433L20.6261 30.2634C20.2339 30.0577 19.7661 30.0577 19.3739 30.2634L10.6456 34.8408C9.6573 35.36 8.50309 34.5222 8.69169 33.4237L10.3589 23.7297C10.4343 23.2932 10.2885 22.8493 9.97163 22.5408L2.90802 15.676C2.10837 14.8984 2.55095 13.544 3.65487 13.3835L13.4142 11.9689C13.8517 11.9062 14.2314 11.6303 14.4276 11.234L18.793 2.41537C19.2858 1.41713 20.7142 1.41713 21.207 2.41537Z" stroke="#999999" stroke-width="3" stroke-miterlimit="10" stroke-linecap="round" stroke-linejoin="round"/>
</svg>
