<svg width="48" height="48" viewBox="0 0 48 48" fill="none" xmlns="http://www.w3.org/2000/svg">
<path fill-rule="evenodd" clip-rule="evenodd" d="M8.84615 0C9.86576 0 10.6923 0.826551 10.6923 1.84615C10.6923 5.27357 12.0538 8.5606 14.4774 10.9841C16.9009 13.4077 20.188 14.7692 23.6154 14.7692C27.0428 14.7692 30.3298 13.4077 32.7534 10.9841C35.1769 8.5606 36.5385 5.27357 36.5385 1.84615C36.5385 0.826551 37.365 0 38.3846 0C39.4042 0 40.2308 0.826551 40.2308 1.84615C40.2308 6.25283 38.4802 10.479 35.3642 13.595C32.2482 16.711 28.0221 18.4615 23.6154 18.4615C19.2087 18.4615 14.9825 16.711 11.8665 13.595C8.75054 10.479 7 6.25283 7 1.84615C7 0.826551 7.82655 0 8.84615 0Z" fill="#585EAA"/>
<path fill-rule="evenodd" clip-rule="evenodd" d="M23.6154 18.4618C16.4782 18.4618 10.6923 24.2477 10.6923 31.3849C10.6923 38.5221 16.4782 44.308 23.6154 44.308C30.7526 44.308 36.5385 38.5221 36.5385 31.3849C36.5385 24.2477 30.7526 18.4618 23.6154 18.4618ZM7 31.3849C7 22.2085 14.439 14.7695 23.6154 14.7695C32.7918 14.7695 40.2308 22.2085 40.2308 31.3849C40.2308 40.5613 32.7918 48.0003 23.6154 48.0003C14.439 48.0003 7 40.5613 7 31.3849Z" fill="#585EAA"/>
</svg>
