<svg width="48" height="48" viewBox="0 0 48 48" fill="none" xmlns="http://www.w3.org/2000/svg">
<path fill-rule="evenodd" clip-rule="evenodd" d="M24 4.36364C13.1551 4.36364 4.36364 13.1551 4.36364 24C4.36364 34.8449 13.1551 43.6364 24 43.6364C34.8449 43.6364 43.6364 34.8449 43.6364 24C43.6364 13.1551 34.8449 4.36364 24 4.36364ZM0 24C0 10.7452 10.7452 0 24 0C37.2548 0 48 10.7452 48 24C48 37.2548 37.2548 48 24 48C10.7452 48 0 37.2548 0 24Z" fill="#999999"/>
<path fill-rule="evenodd" clip-rule="evenodd" d="M24.0002 8.72705C25.2052 8.72705 26.182 9.70388 26.182 10.9089V22.6513L33.7032 26.4119C34.781 26.9508 35.2178 28.2614 34.6789 29.3392C34.14 30.4169 32.8295 30.8538 31.7517 30.3149L23.0244 25.9513C22.2853 25.5817 21.8184 24.8262 21.8184 23.9998V10.9089C21.8184 9.70388 22.7952 8.72705 24.0002 8.72705Z" fill="#999999"/>
</svg>
