<svg width="48" height="48" viewBox="0 0 48 48" fill="none" xmlns="http://www.w3.org/2000/svg">
<path fill-rule="evenodd" clip-rule="evenodd" d="M15.9966 3.99914C9.37057 3.99914 3.99914 9.37057 3.99914 15.9966C3.99914 22.6226 9.37057 27.994 15.9966 27.994C22.6226 27.994 27.994 22.6226 27.994 15.9966C27.994 9.37057 22.6226 3.99914 15.9966 3.99914ZM0 15.9966C0 7.16191 7.16191 0 15.9966 0C24.8312 0 31.9931 7.16191 31.9931 15.9966C31.9931 24.8312 24.8312 31.9931 15.9966 31.9931C7.16191 31.9931 0 24.8312 0 15.9966Z" fill="#F06649"/>
<path fill-rule="evenodd" clip-rule="evenodd" d="M37.2591 18.8766C37.8105 17.9197 39.0331 17.591 39.99 18.1424C42.1169 19.368 43.9333 21.0667 45.2984 23.1069C46.6636 25.1472 47.5408 27.4742 47.8623 29.9079C48.1837 32.3416 47.9407 34.8166 47.1522 37.1413C46.3636 39.466 45.0505 41.578 43.3147 43.3139C41.5789 45.0497 39.4669 46.3627 37.1422 47.1513C34.8174 47.9399 32.3424 48.1829 29.9087 47.8614C27.4751 47.54 25.148 46.6627 23.1078 45.2976C21.0675 43.9325 19.3688 42.1161 18.1432 39.9891C17.5919 39.0323 17.9206 37.8096 18.8774 37.2583C19.8343 36.7069 21.0569 37.0356 21.6083 37.9925C22.5275 39.5877 23.8015 40.95 25.3317 41.9738C26.8619 42.9977 28.6072 43.6556 30.4324 43.8967C32.2577 44.1378 34.1139 43.9556 35.8575 43.3641C37.601 42.7727 39.185 41.7879 40.4869 40.486C41.7888 39.1842 42.7735 37.6002 43.365 35.8566C43.9564 34.1131 44.1386 32.2568 43.8976 30.4316C43.6565 28.6063 42.9985 26.861 41.9747 25.3308C40.9508 23.8007 39.5886 22.5266 37.9933 21.6074C37.0365 21.0561 36.7078 19.8334 37.2591 18.8766Z" fill="#F06649"/>
<path fill-rule="evenodd" clip-rule="evenodd" d="M11.9974 11.9976C11.9974 10.8933 12.8927 9.99805 13.997 9.99805H15.9966C17.1009 9.99805 17.9961 10.8933 17.9961 11.9976V19.9959C17.9961 21.1002 17.1009 21.9955 15.9966 21.9955C14.8922 21.9955 13.997 21.1002 13.997 19.9959V13.9972C12.8927 13.9972 11.9974 13.1019 11.9974 11.9976Z" fill="#F06649"/>
<path fill-rule="evenodd" clip-rule="evenodd" d="M33.1787 27.1794C33.9596 26.3985 35.2256 26.3985 36.0065 27.1794L37.4062 28.5791C37.7812 28.9541 37.9919 29.4627 37.9919 29.993C37.9919 30.5233 37.7812 31.0319 37.4062 31.4069L31.8074 37.0057C31.0265 37.7866 29.7605 37.7866 28.9796 37.0057C28.1987 36.2248 28.1987 34.9588 28.9796 34.1779L33.1645 29.9929C32.3978 29.211 32.4025 27.9556 33.1787 27.1794Z" fill="#F06649"/>
</svg>
