<svg width="48" height="48" viewBox="0 0 48 48" fill="none" xmlns="http://www.w3.org/2000/svg">
<path fill-rule="evenodd" clip-rule="evenodd" d="M5.42461 32.9629C7.61735 30.7702 10.5913 29.5383 13.6924 29.5383H33.3847C36.4857 29.5383 39.4597 30.7702 41.6525 32.9629C43.8452 35.1557 45.0771 38.1297 45.0771 41.2307V46.1538C45.0771 47.1734 44.2505 47.9999 43.2309 47.9999C42.2113 47.9999 41.3848 47.1734 41.3848 46.1538V41.2307C41.3848 39.1089 40.5419 37.0741 39.0416 35.5738C37.5413 34.0735 35.5065 33.2307 33.3847 33.2307H13.6924C11.5706 33.2307 9.53577 34.0735 8.03548 35.5738C6.53518 37.0741 5.69232 39.1089 5.69232 41.2307V46.1538C5.69232 47.1734 4.86577 47.9999 3.84616 47.9999C2.82655 47.9999 2 47.1734 2 46.1538V41.2307C2 38.1297 3.23187 35.1557 5.42461 32.9629Z" fill="#999999"/>
<path fill-rule="evenodd" clip-rule="evenodd" d="M23.5393 3.69232C19.121 3.69232 15.5392 7.27406 15.5392 11.6924C15.5392 16.1106 19.121 19.6924 23.5393 19.6924C27.9576 19.6924 31.5393 16.1106 31.5393 11.6924C31.5393 7.27406 27.9576 3.69232 23.5393 3.69232ZM11.8469 11.6924C11.8469 5.23484 17.0818 0 23.5393 0C29.9968 0 35.2316 5.23484 35.2316 11.6924C35.2316 18.1499 29.9968 23.3847 23.5393 23.3847C17.0818 23.3847 11.8469 18.1499 11.8469 11.6924Z" fill="#999999"/>
</svg>
