<svg width="24" height="24" viewBox="0 0 24 24" fill="none" xmlns="http://www.w3.org/2000/svg">
<path d="M23.5281 10.988C23.1753 10.6181 22.7225 10.3327 22.3032 10.0237C21.9638 9.77402 21.5916 9.56371 21.2663 9.29975C21.1544 9.2089 21.0679 8.99429 21.0948 8.85909C21.1791 8.43275 21.3126 8.01499 21.4461 7.59937C21.6207 7.05499 21.8624 6.52635 21.9862 5.97196C22.172 5.14502 21.7132 4.52267 20.8501 4.36529C20.533 4.30806 20.2003 4.30091 19.8766 4.31236C19.3193 4.33239 18.7628 4.38961 18.2056 4.4218C17.802 4.44541 17.5074 4.30306 17.3955 3.89889C17.3209 3.63206 17.2276 3.37025 17.1515 3.10414C16.9964 2.56334 16.9001 2.00036 16.6845 1.48245C16.2623 0.465227 15.3769 0.222725 14.4272 0.830053C14.1266 1.02248 13.8618 1.26641 13.582 1.48817C13.2016 1.79005 12.8271 2.09836 12.4422 2.3938C12.2042 2.57621 11.9483 2.5848 11.6999 2.40095C11.4635 2.22712 11.2247 2.05616 10.9927 1.87732C10.5138 1.5082 10.0692 1.08901 9.55525 0.774256C8.70558 0.2542 7.90366 0.487403 7.47025 1.35798C7.27182 1.75643 7.16813 2.19851 7.02714 2.62271C6.86078 3.12202 6.7101 3.62562 6.52733 4.11921C6.49376 4.20935 6.34233 4.31236 6.24088 4.31665C5.82537 4.33453 5.40762 4.31951 4.99137 4.31021C4.45277 4.29876 3.9097 4.2351 3.37633 4.27587C2.46251 4.34598 1.90302 5.04487 2.08728 5.90543C2.20589 6.45982 2.44386 6.99061 2.62513 7.53284C2.74672 7.89695 2.86981 8.26106 2.97947 8.62804C3.06376 8.90774 2.97052 9.13808 2.72061 9.30404C2.32972 9.56299 1.92839 9.80764 1.54719 10.0788C1.15929 10.3542 0.751982 10.6188 0.422261 10.9515C-0.140952 11.5209 -0.129762 12.2105 0.390184 12.8178C0.508048 12.9552 0.640086 13.0875 0.788535 13.1927C1.14735 13.4473 1.51885 13.6862 1.88661 13.9302C2.16188 14.1126 2.43938 14.2936 2.71614 14.4746C2.96977 14.6398 3.06376 14.868 2.98171 15.1477C2.8713 15.524 2.74672 15.8967 2.62364 16.2694C2.44162 16.8209 2.20365 17.3603 2.08355 17.924C1.91123 18.7301 2.42297 19.384 3.27637 19.497C3.67919 19.5506 4.09321 19.5356 4.50201 19.527C4.9481 19.517 5.39345 19.4727 5.83954 19.4555C6.2655 19.4383 6.57135 19.5964 6.68921 20.0199C6.75859 20.2696 6.85631 20.5114 6.92419 20.7617C7.04057 21.1931 7.11815 21.6366 7.26212 22.0587C7.36432 22.3598 7.51202 22.6603 7.70598 22.9149C8.08269 23.4092 8.63621 23.5401 9.23224 23.3363C9.7507 23.1581 10.1871 22.8663 10.5817 22.4993C10.8891 22.2139 11.2158 21.9449 11.5567 21.6974C11.9439 21.4156 12.096 21.417 12.4802 21.6981C12.8428 21.9635 13.1717 22.2697 13.5313 22.5394C13.9192 22.8291 14.2989 23.1438 14.7293 23.3642C15.4216 23.7197 16.087 23.5265 16.4749 22.8713C16.6786 22.5272 16.8084 22.1366 16.9277 21.7546C17.1001 21.2002 17.2306 20.6344 17.3835 20.075C17.4753 19.7395 17.7267 19.6043 18.0676 19.6122C18.6532 19.6265 19.2388 19.6501 19.8244 19.6701V19.7116C20.075 19.7002 20.3272 19.7016 20.5771 19.6765C21.6334 19.5685 22.1734 18.8725 21.9265 17.8789C21.8049 17.3874 21.5804 16.9203 21.4185 16.4367C21.2828 16.0311 21.1679 15.6191 21.047 15.2092C20.9866 15.0061 21.0522 14.8351 21.2246 14.7106C21.5811 14.4531 21.9444 14.2034 22.304 13.9488C22.6785 13.6848 23.0813 13.4488 23.42 13.1469C24.1473 12.4959 24.1988 11.6904 23.5281 10.988ZM16.1676 9.2461C15.6879 9.86129 15.1971 10.4693 14.7107 11.0795C13.585 12.4923 12.4593 13.9059 11.3329 15.3179C10.951 15.7972 10.6615 15.8108 10.2192 15.373C9.42172 14.5833 8.62129 13.7957 7.82533 13.0045C7.61198 12.7928 7.56722 12.5388 7.69553 12.3207C7.8313 12.091 8.04838 11.988 8.30723 12.0545C8.44971 12.0917 8.58772 12.1933 8.69365 12.2978C9.28745 12.8793 9.8708 13.4695 10.4564 14.0582C10.5198 14.1226 10.5743 14.1949 10.663 14.2986C11.4075 13.3651 12.114 12.4787 12.8211 11.5924C13.6298 10.5766 14.4339 9.55799 15.2538 8.55078C15.3649 8.41415 15.5432 8.29397 15.7148 8.24461C15.9483 8.17737 16.1527 8.29612 16.278 8.5007C16.4436 8.77325 16.3399 9.02362 16.1676 9.2461Z" fill="#80C181"/>
</svg>
