<svg width="60" height="60" viewBox="0 0 60 60" fill="none" xmlns="http://www.w3.org/2000/svg">
<path fill-rule="evenodd" clip-rule="evenodd" d="M8.46143 7.11533C6.35135 7.11533 4.61533 8.85135 4.61533 10.9614C4.61533 11.9815 5.02054 12.9598 5.74183 13.681C6.46311 14.4023 7.44138 14.8075 8.46143 14.8075H43.0764V7.11533H8.46143ZM47.6917 14.8075V4.80766C47.6917 3.53318 46.6585 2.5 45.384 2.5H8.46143C3.80237 2.5 0 6.30237 0 10.9614C0 13.2055 0.891469 15.3577 2.4783 16.9446C4.06512 18.5314 6.21732 19.4229 8.46143 19.4229H49.2302V29.4227C49.2302 30.6972 50.2633 31.7304 51.5378 31.7304C52.8123 31.7304 53.8455 30.6972 53.8455 29.4227V17.1152C53.8455 15.8407 52.8123 14.8075 51.5378 14.8075H47.6917Z" fill="#999999"/>
<path fill-rule="evenodd" clip-rule="evenodd" d="M2.30766 8.65381C3.58215 8.65381 4.61533 9.68698 4.61533 10.9615V47.8841C4.61533 49.9942 6.35135 51.7302 8.46143 51.7302H49.2302V41.7303C49.2302 40.4558 50.2633 39.4227 51.5378 39.4227C52.8123 39.4227 53.8455 40.4558 53.8455 41.7303V54.0379C53.8455 55.3123 52.8123 56.3455 51.5378 56.3455H8.46143C3.80237 56.3455 0 52.5431 0 47.8841V10.9615C0 9.68698 1.03318 8.65381 2.30766 8.65381Z" fill="#999999"/>
<path fill-rule="evenodd" clip-rule="evenodd" d="M39.4016 29.5938C40.9885 28.007 43.1407 27.1155 45.3848 27.1155H57.6923C58.9668 27.1155 60 28.1487 60 29.4231V41.7307C60 43.0052 58.9668 44.0383 57.6923 44.0383H45.3848C40.7257 44.0383 36.9233 40.236 36.9233 35.5769C36.9233 33.3328 37.8148 31.1806 39.4016 29.5938ZM45.3848 31.7308C44.3647 31.7308 43.3865 32.136 42.6652 32.8573C41.9439 33.5786 41.5387 34.5569 41.5387 35.5769C41.5387 37.687 43.2747 39.423 45.3848 39.423H55.3846V31.7308H45.3848Z" fill="#999999"/>
</svg>
